<?xml version="1.0" encoding="utf-8"?>
<!-- Generator: Adobe Illustrator 24.1.0, SVG Export Plug-In . SVG Version: 6.00 Build 0)  -->
<svg version="1.1" id="VECTO" xmlns="http://www.w3.org/2000/svg" xmlns:xlink="http://www.w3.org/1999/xlink" x="0px" y="0px"
	 viewBox="0 0 744 877" style="enable-background:new 0 0 744 877;" xml:space="preserve">
<style type="text/css">
	.st0{fill:#FFFFFF;}
	.st1{fill:#1B1B1B;}
	.st2{fill:#D84759;}
	.st3{fill:#1C1C1C;}
	.st4{fill:#FDD51E;}
	.st5{fill:#F9AF03;}
	.st6{clip-path:url(#SVGID_2_);fill:#F9AF03;}
	.st7{clip-path:url(#SVGID_4_);fill:#F9AF03;}
	.st8{clip-path:url(#SVGID_6_);fill:#F9AF03;}
	.st9{clip-path:url(#SVGID_18_);fill:#F9AF03;}
	.st10{clip-path:url(#SVGID_20_);fill:#F9AF03;}
	.st11{clip-path:url(#SVGID_22_);fill:#F9AF03;}
	.st12{clip-path:url(#SVGID_24_);fill:#F9AF03;}
	.st13{clip-path:url(#SVGID_26_);fill:#F9AF03;}
	.st14{fill:none;stroke:#D3D9EE;stroke-width:2;stroke-miterlimit:10;}
	.st15{clip-path:url(#SVGID_28_);fill:#F9AF03;}
	.st16{clip-path:url(#SVGID_30_);fill:#F9AF03;}
	.st17{fill:#F3F7FB;}
	.st18{fill:#D3D9EE;}
	.st19{fill:none;stroke:#FFFFFF;stroke-linecap:round;stroke-linejoin:round;stroke-miterlimit:10;}
	.st20{fill:none;}
	.st21{opacity:0.5;}
	.st22{clip-path:url(#SVGID_32_);fill:#F9AF03;}
</style>
<g>
	<path class="st0" d="M727.53,877H16.47C7.37,877,0,869.63,0,860.53V79.47C0,70.37,7.37,63,16.47,63h711.07
		c9.09,0,16.47,7.37,16.47,16.47v781.07C744,869.63,736.63,877,727.53,877z"/>
	<g>
		<path class="st2" d="M317.74,800.98h-3.37v-34.61c0-0.59-0.48-1.07-1.06-1.07l-17.9,5.38c-0.82,0.2-1.06,0.97-1.06,1.56v10.27
			c0,0.59,0.48,1.07,1.06,1.07l3.2-0.96v18.37h-3.37c-0.59,0-1.06,0.48-1.06,1.07v10.76c0,0.59,0.48,1.07,1.06,1.07h22.51
			c0.59,0,1.06-0.48,1.06-1.07v-10.76C318.8,801.45,318.33,800.98,317.74,800.98z"/>
		<path class="st2" d="M432.63,813.98c4.16,0.42,8.62-0.86,12.51-2.18c9.18-3.12,17.88-8.08,25.62-13.89
			c3.38-2.53,6.67-5.26,9.44-8.46c2.05-2.38,4.04-5.18,4.2-8.43c0.17-3.59-5.4-3.57-5.57,0c0,0.03,0,0.06,0,0.08
			c0,0.02-0.01,0.04-0.01,0.06c-0.06,0.28-0.14,0.54-0.24,0.81c-0.01,0.02-0.02,0.05-0.03,0.08c-0.04,0.09-0.08,0.17-0.12,0.26
			c-0.18,0.36-0.38,0.71-0.58,1.05c-0.19,0.32-0.4,0.63-0.62,0.93c-0.11,0.16-0.23,0.32-0.35,0.47c-0.02,0.02-0.04,0.05-0.07,0.09
			c-0.6,0.76-1.26,1.48-1.92,2.18c-3.27,3.43-6.59,5.95-10.36,8.53c-4.31,2.96-8.86,5.59-13.57,7.85
			c-4.02,1.93-8.27,3.61-12.91,4.58c-0.47,0.1-0.95,0.18-1.43,0.26c-0.05,0.01-0.23,0.03-0.35,0.05c-0.17,0.02-0.34,0.04-0.51,0.06
			c-0.96,0.1-1.93,0.12-2.89,0.07c-0.06,0-0.33-0.04-0.44-0.05c-0.14-0.03-0.27-0.05-0.41-0.08c-0.36-0.08-0.71-0.19-1.06-0.31
			c0.35,0.12-0.55-0.27-0.73-0.38c-0.07-0.04-0.14-0.09-0.21-0.13c0.06,0.03-0.33-0.26-0.43-0.34c-0.11-0.1-0.53-0.59-0.59-0.63
			c-0.12-0.17-0.23-0.35-0.34-0.53c3.89-2.72,7.5-5.89,10.77-9.29c3.79-3.94,7.3-8.37,9.78-13.26c2.42-4.77,4.24-11.34,0.31-15.84
			c-4.06-4.64-10.79-1.31-14.52,1.83c-3.74,3.14-6.41,7.41-8.43,11.8c-1.95,4.23-3.45,8.71-4.21,13.31
			c-0.48,2.92-0.76,6.08-0.28,9.08c-1.66,0.99-3.38,1.89-5.15,2.67c-2,0.89-4.61,1.66-6.98,2.04c0.15-0.03-0.56,0.06-0.56,0.06
			c-0.29,0.03-0.57,0.04-0.86,0.06c-0.54,0.03-1.09,0.03-1.63,0.01c-0.15-0.01-0.31-0.02-0.46-0.03c0.16,0.01-0.33-0.05-0.42-0.06
			c-0.42-0.08-0.84-0.2-1.24-0.34c0.26,0.08-0.59-0.29-0.76-0.39c-0.08-0.05-0.16-0.1-0.23-0.15c-0.07-0.05-0.21-0.16-0.27-0.2
			c-0.24-0.21-0.45-0.44-0.65-0.67c-0.05-0.07-0.11-0.14-0.14-0.18c-0.14-0.2-0.26-0.4-0.37-0.61c4.34-2.97,8.35-6.44,11.87-10.34
			c4.33-4.81,8.24-10.41,10.63-16.45c1.95-4.92,1.4-11.21-4.1-13.35c-2.46-0.96-5.25-0.18-7.54,0.82c-3.12,1.35-5.75,3.95-7.88,6.53
			c-2.77,3.36-4.69,7.3-6.3,11.33c-1.73,4.31-2.89,8.86-3.29,13.5c-0.16,1.78-0.16,3.68,0.1,5.52c-2.09,1.24-4.26,2.36-6.49,3.33
			c-0.14,0.05-0.73,0.3-0.9,0.37c-0.28,0.11-0.56,0.22-0.85,0.32c-0.25,0.09-0.5,0.18-0.76,0.26c-0.53,0.16-1.06,0.3-1.6,0.43
			c-0.25,0.06-0.51,0.11-0.76,0.16c-0.05,0.01-0.34,0.05-0.45,0.07c-0.85,0.1-1.7,0.11-2.55,0.03c-0.02,0-0.04-0.01-0.07-0.01
			c-0.18-0.03-0.37-0.08-0.55-0.12c-0.24-0.06-0.48-0.14-0.72-0.22c0.07,0.01-0.55-0.27-0.71-0.36c-0.14-0.08-0.27-0.17-0.4-0.26
			c-0.03-0.02-0.06-0.05-0.1-0.09c-0.25-0.22-0.48-0.46-0.7-0.7c-0.01-0.02-0.03-0.04-0.05-0.06c-0.07-0.1-0.15-0.21-0.22-0.32
			c-0.19-0.29-0.36-0.59-0.51-0.9c-0.03-0.06-0.06-0.12-0.09-0.18c-0.04-0.1-0.16-0.38-0.19-0.47c-0.02-0.05-0.04-0.11-0.05-0.16
			c7.17-4.51,13.25-10.61,17.71-17.92c3.04-4.99,6.66-11.8,3.65-17.6c-2.72-5.25-9.42-4.04-13.5-1.38
			c-7.54,4.9-11.31,13.74-13.17,22.21c-0.78,3.53-1.42,7.89-1.02,11.97c-1.28,0.68-2.6,1.28-3.93,1.86c-1.39,0.61-1.7,2.62-1,3.81
			c0.83,1.42,2.42,1.61,3.81,1c0.84-0.37,1.68-0.76,2.5-1.17c0.67,1.48,1.59,2.83,2.83,3.95c3.67,3.33,8.85,3.13,13.33,1.8
			c3.22-1,6.36-2.5,9.33-4.22c0.12,0.2,0.25,0.4,0.38,0.59c2.62,3.78,6.97,4.94,11.37,4.57c5.19-0.44,10.12-2.45,14.62-5.02
			C425.9,811.92,428.89,813.61,432.63,813.98z M376.59,794.4c0.03-0.19,0.06-0.38,0.09-0.57c0.07-0.47,0.16-0.94,0.25-1.4
			c0.19-1.02,0.42-2.03,0.68-3.03c0.48-1.89,1.08-3.75,1.78-5.57c0.14-0.36,0.28-0.71,0.43-1.06c0.01-0.01,0.34-0.76,0.4-0.91
			c0.37-0.81,0.77-1.6,1.2-2.37c0.36-0.65,0.75-1.28,1.16-1.89c0.11-0.17,0.23-0.33,0.35-0.49c-0.02,0.04,0.44-0.56,0.43-0.53
			c0.41-0.49,0.84-0.96,1.27-1.43c1.92-2.06,4.19-3.8,6.7-4.32c0.02,0,0.04-0.01,0.06-0.01c0.04,0,0.1,0,0.2-0.01
			c0.24-0.02,0.47-0.01,0.71,0.01c0,0,0,0,0.01,0c0.03,0.01,0.07,0.02,0.13,0.03c0.12,0.03,0.24,0.06,0.35,0.1
			c-0.17-0.05,0.22,0.11,0.33,0.18c0.02,0.01,0.03,0.02,0.05,0.03c0.01,0.01,0.02,0.02,0.04,0.03c0.05,0.05,0.19,0.21,0.26,0.28
			c0.06,0.09,0.12,0.19,0.17,0.28c0.01,0.04,0.16,0.34,0.18,0.42c0.08,0.23,0.12,0.47,0.17,0.71c0,0.02,0.01,0.04,0.01,0.06
			c0,0.04,0,0.12,0.01,0.24c0.02,0.28,0.01,0.56,0.01,0.84c-0.03,1.19-0.42,2.5-0.93,3.86c-1.19,3.2-3.19,6.26-5.14,9.04
			c-1.8,2.57-3.91,4.91-6.19,7.07c-1.7,1.61-3.54,3.07-5.47,4.41c0.02-1.22,0.12-2.44,0.26-3.66
			C376.55,794.68,376.57,794.52,376.59,794.4z M378.01,806.31C377.98,806.27,377.98,806.25,378.01,806.31L378.01,806.31z
			 M401.34,797.33c0.02-0.19,0.04-0.39,0.06-0.58c0,0.05,0.09-0.65,0.11-0.74c0.35-2.23,0.91-4.43,1.59-6.58
			c1.27-4.04,2.75-7.45,5.23-11.18c0.24-0.36,0.49-0.71,0.74-1.06c0.03-0.03,0.05-0.06,0.06-0.09c0.24-0.31,0.5-0.61,0.75-0.91
			c1.12-1.31,2.37-2.57,3.78-3.57c1.07-0.76,2.05-1.26,3.06-1.58c0.26-0.08,0.53-0.14,0.79-0.19c0.03-0.01,0.06-0.01,0.08-0.02
			c0.04,0,0.1,0,0.18-0.01c0.24-0.02,0.47-0.01,0.71,0c0.04,0,0.07,0,0.1,0c0.05,0.02,0.13,0.04,0.26,0.07
			c0.07,0.02,0.25,0.08,0.35,0.12c0.1,0.06,0.21,0.12,0.31,0.18c0.02,0.02,0.05,0.05,0.08,0.08c0.05,0.05,0.17,0.19,0.24,0.27
			c0.07,0.11,0.14,0.23,0.2,0.34c0.01,0.03,0.03,0.04,0.04,0.06c0.01,0.03,0.02,0.06,0.03,0.09c0.08,0.22,0.13,0.46,0.19,0.69
			c0.01,0.06,0.02,0.11,0.03,0.15c0.01,0.13,0.02,0.25,0.03,0.38c0.14,2.48-1.2,5.15-2.53,7.58c-4.13,7.55-9.9,13.95-16.62,18.94
			c0-0.32,0.01-0.63,0.03-0.95C401.25,798.33,401.29,797.83,401.34,797.33z M427.46,798.59c0.03-0.51,0.07-1.01,0.13-1.51
			c0-0.04,0.05-0.39,0.06-0.49c0.03-0.19,0.06-0.38,0.09-0.57c0.18-1.15,0.42-2.29,0.7-3.42c0.54-2.22,1.25-4.39,2.08-6.52
			c0.1-0.25,0.2-0.5,0.3-0.75c0.03-0.07,0.05-0.12,0.07-0.16c0.02-0.04,0.04-0.09,0.07-0.16c0.21-0.48,0.43-0.96,0.65-1.44
			c0.46-0.99,0.97-1.97,1.5-2.92c0.45-0.81,0.94-1.61,1.46-2.38c0.24-0.36,0.49-0.71,0.74-1.06c0.03-0.03,0.05-0.06,0.06-0.09
			c0.34-0.44,0.71-0.86,1.08-1.28c1.87-2.13,4.29-4.18,6.72-4.82c0.05-0.01,0.42-0.08,0.5-0.1c0.16-0.01,0.32-0.02,0.49-0.02
			c0.07,0,0.28,0.02,0.39,0.03c0.13,0.03,0.26,0.07,0.39,0.1c0.01,0,0.02,0.01,0.03,0.01c0.02,0.01,0.04,0.02,0.07,0.04
			c0.06,0.03,0.24,0.15,0.32,0.2c0.08,0.08,0.16,0.16,0.24,0.24c0,0.01,0.01,0.01,0.01,0.02c0.06,0.09,0.12,0.19,0.18,0.28
			c0.03,0.05,0.13,0.28,0.18,0.37c0.05,0.16,0.1,0.32,0.14,0.47c0.06,0.21,0.1,0.43,0.13,0.65c-0.07-0.38,0.01,0.4,0.02,0.45
			c0.06,1.39-0.17,2.36-0.6,3.8c-0.7,2.36-1.97,4.53-3.28,6.6c-2.98,4.69-6.83,8.83-11.03,12.59c-1.26,1.13-2.57,2.22-3.93,3.25
			C427.42,799.53,427.43,799.06,427.46,798.59z"/>
		<path class="st2" d="M306.49,763.75c4.35,0,7.89-3.53,7.89-7.89c0-4.36-3.53-7.89-7.89-7.89c-4.36,0-7.88,3.53-7.88,7.89
			C298.6,760.22,302.13,763.75,306.49,763.75z"/>
		<path class="st2" d="M287.91,765.3h-8.23c0-0.28,0-0.55,0-0.83V753.8c0,0,0.27-3-2.93-1.89c-3.2,1.11-10.54,3.25-10.54,3.25
			s-1.71,0.25-1.71,2.46c0,1.87,0.03,2.95,0.05,7.68h-3.9c-0.59,0-1.06,0.48-1.06,1.07v10.76c0,0.59,0.48,1.07,1.06,1.07h3.94
			c0.01,5.72,0.02,13.29,0.02,23.44c0,0-0.96,19,23.04,9.64c0,0,1.21-0.65,1.3-1.7v-10.42c0,0,0.01-1.59-1.48-0.88
			c0,0-7.81,3.56-7.81-1.54c0-4.09,0-4.29,0-18.55h8.23c0.59,0,1.06-0.48,1.06-1.07v-10.76C288.97,765.78,288.5,765.3,287.91,765.3z
			"/>
		<path class="st2" d="M347.02,765.3c-2.57,0-5.03,0.52-7.31,1.48v-0.45c0-0.59-0.48-1.07-1.06-1.07H320.5
			c-0.59,0-1.06,0.48-1.06,1.07v10.76c0,0.59,0.48,1.07,1.06,1.07h3.45v41.77h-3.45c-0.59,0-1.06,0.48-1.06,1.07v10.76
			c0,0.59,0.48,1.07,1.06,1.07h22.58c0.59,0,1.06-0.48,1.06-1.07V821c0-0.59-0.48-1.07-1.06-1.07h-3.37v-7.54
			c2.28,0.96,4.74,1.48,7.31,1.48c11.72,0,21.22-10.87,21.22-24.28C368.25,776.18,358.74,765.3,347.02,765.3z M347.27,801.28
			c-4.2-0.02-7.58-5.27-7.56-11.72c0.03-6.46,3.46-11.68,7.66-11.66c4.2,0.02,7.58,5.27,7.55,11.72
			C354.9,796.08,351.47,801.3,347.27,801.28z"/>
		<path class="st2" d="M432.14,827.11c-1.76,0-2.72,1.52-2.72,2.75c0,1.28,1.13,2.6,2.72,2.6c1.81,0,2.77-1.16,2.77-2.6
			C434.91,828.63,433.9,827.11,432.14,827.11z"/>
		<path class="st2" d="M442.79,829.16c-1.54-0.02-2.48-1.28-2.48-2.84c0-1.57,0.7-3.09,2.12-3.09c1.11,0,1.47,1.37,1.52,2.53h3.54
			v-5.45h-2.85l-0.41,1.16c-0.41-0.48-1.37-1.37-3.01-1.37c-3.09,0-5.93,1.9-5.93,6.17c0,4.29,3.09,6.44,6.63,6.44
			c2.6,0,4.77-1.23,5.91-2.46l-2.12-2.46C444.91,828.65,444.07,829.18,442.79,829.16z"/>
		<path class="st2" d="M454.94,820.02c-3.33,0-6.58,2.24-6.61,6.27c-0.05,4.27,3.28,6.39,6.73,6.39c3.67,0,6.63-2.29,6.58-6.29
			C461.57,822.36,458.75,820.07,454.94,820.02z M455.06,829.59c-1.01,0-1.78-1.3-1.78-3.28c0-1.76,0.72-3.16,1.66-3.16
			c1.13,0.02,1.76,1.42,1.76,3.23C456.7,828.19,456.1,829.59,455.06,829.59z"/>
		<path class="st2" d="M482.26,825.78c0-2.94-0.6-5.79-4.51-5.79c-1.66,0-2.8,0.89-3.54,1.74c-0.39-0.58-1.16-1.74-3.59-1.74
			c-1.52,0-2.63,1.3-3.01,1.76l-0.53-1.42h-4.56v3.18h1.01v5.69h-1.01v3.16h7.16v-3.16h-1.45v-4.29c0-0.99,0.31-1.45,1.08-1.45
			c0.96,0,1.01,0.8,1.01,2.75v6.15h6.24v-3.23h-1.45v-3.91c0-1.04,0.24-1.76,1.28-1.76c1.13,0,0.92,1.83,0.92,2.99v5.91h6.12v-3.26
			h-1.18V825.78z"/>
	</g>
	<g>
		<path class="st2" d="M163.44,242.93v-21.25l-7.7,15.45h-4.4l-7.7-15.45v21.25h-8.2v-35.5h8.9l9.2,18.55l9.25-18.55h8.85v35.5
			H163.44z"/>
		<path class="st2" d="M190.34,243.43c-2.2,0-4.18-0.36-5.93-1.08c-1.75-0.72-3.23-1.69-4.45-2.92c-1.22-1.23-2.14-2.66-2.78-4.28
			c-0.63-1.62-0.95-3.31-0.95-5.07c0-1.9,0.32-3.69,0.95-5.38s1.55-3.16,2.75-4.43c1.2-1.27,2.68-2.27,4.43-3
			c1.75-0.73,3.74-1.1,5.97-1.1c2.23,0,4.22,0.37,5.95,1.1c1.73,0.73,3.2,1.73,4.4,2.98c1.2,1.25,2.11,2.69,2.72,4.33
			s0.93,3.35,0.93,5.15c0,0.47-0.02,0.92-0.05,1.38s-0.08,0.84-0.15,1.17h-19.4c0.13,1.77,0.77,3.11,1.92,4.03
			c1.15,0.92,2.46,1.38,3.93,1.38c1.17,0,2.29-0.28,3.38-0.85c1.08-0.57,1.81-1.33,2.17-2.3l6.8,1.9c-1.03,2.07-2.63,3.75-4.8,5.05
			S193.37,243.43,190.34,243.43z M195.89,227.33c-0.17-1.67-0.77-2.98-1.8-3.95s-2.32-1.45-3.85-1.45c-1.57,0-2.86,0.49-3.88,1.47
			c-1.02,0.98-1.61,2.29-1.78,3.93H195.89z"/>
		<path class="st2" d="M224.58,223.53c-1.93,0.03-3.67,0.35-5.23,0.95c-1.55,0.6-2.69,1.5-3.42,2.7v15.75h-8v-26.25h7.35v5.3
			c0.93-1.77,2.11-3.14,3.53-4.12c1.42-0.98,2.92-1.51,4.52-1.58c0.67,0,1.08,0.02,1.25,0.05V223.53z"/>
		<path class="st2" d="M226.48,229.78c0-1.8,0.32-3.52,0.95-5.17c0.63-1.65,1.55-3.1,2.75-4.35c1.2-1.25,2.68-2.24,4.43-2.98
			c1.75-0.73,3.74-1.1,5.97-1.1c3.03,0,5.58,0.64,7.65,1.92c2.07,1.28,3.62,2.96,4.65,5.03l-7.8,2.35c-1.03-1.67-2.55-2.5-4.55-2.5
			c-1.67,0-3.06,0.62-4.17,1.85c-1.12,1.23-1.68,2.88-1.68,4.95c0,1.03,0.15,1.98,0.45,2.83c0.3,0.85,0.72,1.58,1.25,2.17
			c0.53,0.6,1.16,1.07,1.88,1.4c0.72,0.33,1.47,0.5,2.27,0.5c1,0,1.92-0.24,2.75-0.72s1.45-1.11,1.85-1.88l7.8,2.4
			c-0.97,2.03-2.51,3.7-4.62,5s-4.69,1.95-7.72,1.95c-2.2,0-4.17-0.38-5.92-1.12s-3.23-1.75-4.45-3s-2.14-2.7-2.78-4.35
			C226.8,233.31,226.48,231.58,226.48,229.78z"/>
		<path class="st2" d="M256.48,213.68v-7.25h8v7.25H256.48z M256.48,242.93v-26.25h8v26.25H256.48z"/>
		<path class="st2" d="M289.03,243.43c-1.3,0-2.51-0.21-3.62-0.62c-1.12-0.42-2.08-1-2.88-1.75c-0.8-0.75-1.43-1.63-1.9-2.65
			c-0.47-1.02-0.7-2.12-0.7-3.32c0-1.3,0.28-2.48,0.83-3.55c0.55-1.07,1.32-1.98,2.32-2.75c1-0.77,2.18-1.37,3.55-1.8
			c1.37-0.43,2.88-0.65,4.55-0.65c1.1,0,2.17,0.09,3.2,0.27c1.03,0.18,1.93,0.46,2.7,0.83v-1.2c0-3.03-1.75-4.55-5.25-4.55
			c-1.43,0-2.8,0.24-4.1,0.72c-1.3,0.48-2.67,1.21-4.1,2.18l-2.35-5c1.73-1.13,3.53-1.98,5.4-2.55c1.87-0.57,3.85-0.85,5.95-0.85
			c3.97,0,7.03,0.93,9.2,2.8c2.17,1.87,3.25,4.6,3.25,8.2v6.75c0,0.8,0.15,1.36,0.45,1.67c0.3,0.32,0.83,0.51,1.6,0.58v6.75
			c-0.77,0.17-1.47,0.28-2.12,0.33s-1.22,0.08-1.72,0.08c-1.47-0.03-2.58-0.33-3.35-0.9c-0.77-0.57-1.25-1.38-1.45-2.45l-0.15-1.2
			c-1.17,1.5-2.56,2.65-4.17,3.45C292.54,243.03,290.83,243.43,289.03,243.43z M291.38,237.68c0.87,0,1.71-0.15,2.53-0.45
			c0.82-0.3,1.49-0.7,2.02-1.2c0.77-0.6,1.15-1.23,1.15-1.9v-2.5c-0.7-0.27-1.46-0.48-2.28-0.62c-0.82-0.15-1.57-0.23-2.27-0.23
			c-1.47,0-2.68,0.33-3.62,1c-0.95,0.67-1.43,1.53-1.43,2.6c0,0.97,0.37,1.76,1.1,2.38C289.31,237.38,290.25,237.68,291.38,237.68z"
			/>
		<path class="st2" d="M319.03,243.43c-2.67,0-4.7-0.84-6.1-2.53c-1.4-1.68-2.1-4.16-2.1-7.42v-16.8h8v15.05
			c0,1.6,0.32,2.83,0.95,3.67c0.63,0.85,1.53,1.28,2.7,1.28c1.07,0,2.1-0.28,3.1-0.85s1.88-1.55,2.65-2.95v-16.2h8v17.25
			c0,0.8,0.15,1.36,0.45,1.67c0.3,0.32,0.83,0.51,1.6,0.58v6.75c-0.83,0.17-1.56,0.28-2.18,0.33s-1.16,0.08-1.62,0.08
			c-2.8-0.03-4.42-1.15-4.85-3.35l-0.15-1.6c-1.2,1.73-2.69,3.01-4.47,3.83S321.23,243.43,319.03,243.43z"/>
		<path class="st2" d="M348.23,216.68l4.75,7.4l0.5,0.95l0.45-0.95l4.75-7.4h8.2l-9.1,13.15l9.25,13.1h-8.15l-4.95-7.35l-0.45-0.95
			l-0.45,0.95l-4.95,7.35h-8.2l9.25-13.1l-9.05-13.15H348.23z"/>
		<path class="st2" d="M415.62,219.23h-7.94v-6.91h-4.54v23.44h4.48v7.18h-20.09v-7.18h4.43v-23.44h-4.64v6.91h-7.94v-14.04h36.23
			V219.23z"/>
		<path class="st2" d="M417.78,242.93v-7.07h2.27v-12.91h-2.27v-7.02h12.53v19.93h2.59v7.07H417.78z M425.13,202.54
			c3.72,0,5.94,3.02,5.94,5.51c0,2.97-2.11,5.45-5.94,5.45c-3.4,0-5.83-2.86-5.83-5.45C419.3,205.57,421.35,202.54,425.13,202.54z"
			/>
		<path class="st2" d="M437.87,246.88v-23.76h-2.27v-7.18h12.37l0.92,1.89c1.03-0.76,3.29-2.32,6.54-2.32
			c8.42,0,12.74,6.48,12.74,14.15c0,8.59-5.35,13.88-12.31,13.88c-4.48,0-6.64-1.78-7.02-2.11v5.45h2.92v7.07H435.6v-7.07H437.87z
			 M452.67,223.12c-2.11,0-4.05,2.65-3.83,6.91c0,3.67,1.84,6.48,3.89,6.48c2.27,0,3.83-2.65,3.83-6.75
			C456.56,226.52,455.04,223.12,452.67,223.12z"/>
		<path class="st2" d="M497.16,239.21c-4,3.46-8.31,4.7-13.93,4.7c-6.7,0-14.26-4.27-14.26-14.63c0-8.86,6.37-14.09,14.53-14.09
			c6.43,0,11.34,3.29,12.91,7.83c0.65,1.89,1.24,6.05,0.11,9.13H479.5c0.32,1.46,1.03,4.43,5.56,4.43c1.84,0,4.64-0.16,7.56-2.59
			L497.16,239.21z M487.82,226.79c-0.05-2.05-0.54-4.32-4-4.32c-3.29,0-4.05,2.97-4.16,4.32H487.82z"/>
		<path class="st2" d="M511.85,215.93v13.01c0,4.64,0.7,6.8,2.92,6.8c1.89,0,3.4-1.67,3.4-4.1v-8.59h-3.56v-7.13h13.99v19.82h2.65
			v7.18h-10.21l-1.46-3.4c-1.19,1.35-3.08,4.16-7.67,4.16c-8.15,0-10.85-4.21-10.85-13.18v-7.45h-2.27v-7.13H511.85z"/>
		<path class="st2" d="M533.4,242.93v-7.07h2.38v-12.91h-2.32v-7.02h10.15l1.62,3.46c1.4-2.59,2.81-4.81,8.37-4.81v9.72
			c-4.86,0-7.61,1.24-7.61,5.99v5.56h2.7v7.07H533.4z"/>
		<path class="st2" d="M555.21,233.21h7.24c0,2.86,4.1,3.62,5.72,3.62c1.08,0,2.38-0.32,2.38-1.84c0-1.62-4.05-1.89-7.94-3.24
			c-3.67-1.3-7.18-3.56-7.18-8.64c0-5.51,5.67-7.83,9.5-7.83c3.67,0,6.91,1.89,8.04,4.21l0.43-3.56h6.64v9.72h-7.02
			c0-2.27-2.81-4.1-5.51-4.1c-1.13,0-2.11,0.59-2.11,1.94c0,1.51,3.19,2.16,6.64,3.35c4.11,1.4,8.7,2.97,8.7,8.64
			c0,5.08-4.81,8.1-10.04,8.1c-3.89,0-6.97-1.89-8.26-3.94l-0.49,3.29h-6.75V233.21z"/>
		<path class="st2" d="M603,231.7c3.83,0,6.43,2.65,6.43,5.72c0,3.02-2.48,5.56-6.43,5.56c-3.51,0-6.16-2.75-6.16-5.56
			C596.85,234.73,599.11,231.7,603,231.7z M597.06,205.19h12.91v10.26l-2.86,13.61h-7.13l-2.92-13.61V205.19z"/>
	</g>
	<g>
		<g>
			<line class="st14" x1="59" y1="327" x2="345" y2="327"/>
			<line class="st14" x1="59" y1="402.2" x2="345" y2="402.2"/>
			<line class="st14" x1="59" y1="477.4" x2="345" y2="477.4"/>
			<line class="st14" x1="59" y1="552.6" x2="345" y2="552.6"/>
			<line class="st14" x1="59" y1="627.8" x2="345" y2="627.8"/>
			<line class="st14" x1="59" y1="703" x2="345" y2="703"/>
		</g>
		<g>
			<line class="st14" x1="399" y1="327" x2="685" y2="327"/>
			<line class="st14" x1="399" y1="402.2" x2="685" y2="402.2"/>
			<line class="st14" x1="399" y1="477.4" x2="685" y2="477.4"/>
			<line class="st14" x1="399" y1="552.6" x2="685" y2="552.6"/>
			<line class="st14" x1="399" y1="627.8" x2="685" y2="627.8"/>
			<line class="st14" x1="399" y1="703" x2="685" y2="703"/>
		</g>
	</g>
	<g id="Calque_5_6_">
		<g>
			<path class="st2" d="M456.87,107.2l-151.42,29.54c-8.94,1.74-17.59-4.09-19.35-13.03l-14.52-74.54
				c-1.74-8.94,4.09-17.59,13.03-19.35L436.03,0.31c8.94-1.74,17.59,4.09,19.35,13.03l14.55,74.54
				C471.64,96.79,465.81,105.44,456.87,107.2z"/>
			<g>
				<path class="st0" d="M303.37,61.59l-1.52-7.79l14.62-8.03l2.5,12.79l8.06-1.57l2.16,11.02l-8.06,1.57l2.94,15.09
					c0.56,2.89,0.73,6.88,4.04,6.25c1.1-0.22,3.58-1.49,5.07-2.47l2.11,10.85c-2.35,1.52-7.99,3.23-9.94,3.6
					c-12.71,2.47-14.5-4.38-16.85-15.19l-2.94-15.09l-4.58,0.88l-2.16-11.02L303.37,61.59z"/>
				<path class="st0" d="M342.31,97.99l-2.16-11.1l3.55-0.69l-3.94-20.26l-3.55,0.69l-2.16-11.02l19.64-3.85l6.1,31.25l4.07-0.78
					l2.16,11.1L342.31,97.99z M341.48,32.37c5.85-1.15,10.24,2.94,11,6.83c0.91,4.65-1.64,9.21-7.64,10.36
					c-5.34,1.03-10.02-2.69-10.83-6.76C333.25,38.89,335.55,33.52,341.48,32.37z"/>
				<path class="st0" d="M373.25,98.36l-7.27-37.28l-3.55,0.69l-2.2-11.27l19.4-3.77l2.01,2.67c1.37-1.49,4.46-4.65,9.55-5.63
					c13.23-2.57,21.97,6.27,24.32,18.3c2.62,13.47-4.14,23.42-15.06,25.55c-7.03,1.37-10.97-0.76-11.66-1.15l1.67,8.55l4.58-0.88
					l2.16,11.1l-25.33,4.95l-2.16-11.1L373.25,98.36z M389.17,56.57c-3.31,0.64-5.54,5.39-3.89,12.03c1.13,5.76,4.87,9.6,8.08,8.96
					c3.55-0.69,5.22-5.32,3.94-11.76C396.32,60.71,392.92,55.83,389.17,56.57z"/>
				<path class="st0" d="M429.02,62.77c6.03-1.18,10.9,2.18,11.83,7.01c0.93,4.75-2.2,9.48-8.38,10.7
					c-5.51,1.08-10.51-2.45-11.37-6.83C420.3,69.4,422.92,63.97,429.02,62.77z M411.61,22.99l20.26-3.94L435,35.14l-0.32,22.22
					l-11.19,2.18l-8.74-20.45L411.61,22.99z"/>
			</g>
			<g>
				<path id="path4109_7_" class="st0" d="M415.77,91.25c0.29,0.98,0.61,1.96,0.91,2.94l0.12,0.42l-0.42,0.15
					c-0.96,0.34-1.94,0.66-2.91,1c3.14,9.92,6.37,19.84,9.55,29.74l0.15,0.42l-0.42,0.15c-0.81,0.27-1.64,0.54-2.47,0.83l-0.44,0.15
					l-0.15-0.44c-0.29-0.98-0.61-1.94-0.96-2.89c-3.38,1.05-6.74,2.13-10.09,3.26c1.08,3.36,2.16,6.71,3.23,10.04
					c0.98-0.29,1.98-0.56,2.94-0.96l0.54-0.22l0.1,0.56c0.17,1,0.59,1.96,0.91,2.94c0.96-0.24,1.89-0.54,2.82-0.83l0.39-0.12
					l0.17,0.39c0.83,2.03,1.42,4.12,2.13,6.2c0.98-0.27,1.96-0.56,2.94-0.88l0.42-0.12l0.15,0.42c0.69,2.08,1.35,4.14,2.06,6.22
					c0.98-0.29,1.98-0.56,2.94-0.93l0.49-0.2l0.12,0.51c0.51,2.13,1.32,4.19,1.98,6.27c0.96-0.29,1.91-0.59,2.87-0.88l0.42-0.15
					l0.15,0.42c1.08,3.18,2.08,6.42,3.16,9.6c5.56-1.71,11.12-3.48,16.66-5.27c5.66-1.84,11.37-3.6,16.97-5.58
					c-1.13-3.16-1.86-6.47-3.01-9.63l-0.17-0.47l0.47-0.15c0.96-0.27,1.91-0.61,2.84-0.93c-0.98-3.18-2.01-6.39-3.04-9.58
					l-0.12-0.39l0.37-0.17c0.93-0.39,1.91-0.73,2.89-1.03c-1.13-3.58-2.33-7.1-3.38-10.7l0,0l0,0c-1.49-4.24-2.79-8.55-4.21-12.83
					c-0.96,0.32-1.91,0.61-2.87,0.91l-0.42,0.12l-0.15-0.42c-0.32-0.93-0.64-1.89-0.93-2.84c-1,0.29-1.96,0.64-2.96,0.88l-0.39,0.1
					l-0.15-0.37c-0.39-0.96-0.66-1.96-1-2.96c-2.08,0.66-4.16,1.35-6.27,1.98l-0.42,0.12l-0.15-0.42c-0.32-0.93-0.64-1.89-0.93-2.84
					c-3.26,0.86-6.44,2.01-9.65,3.01l-0.42,0.12l-0.15-0.39c-0.37-0.96-0.69-1.94-1-2.91c-2.08,0.66-4.16,1.35-6.27,1.98l-0.42,0.12
					l-0.15-0.42c-1.42-4.31-2.79-8.62-4.19-12.93c-0.56,0.17-1.13,0.34-1.67,0.51c-0.42,0.12-0.83,0.27-1.25,0.42l-0.44,0.15
					l-0.15-0.44c-0.29-1-0.61-1.98-1.03-2.94C420.18,89.86,417.98,90.57,415.77,91.25L415.77,91.25z"/>
				<path id="path3016_7_" class="st3" d="M415.77,91.25c2.2-0.69,4.41-1.42,6.61-2.13c0.47,1.08,0.81,2.18,1.15,3.31
					c-2.23,0.73-4.48,1.45-6.71,2.18C416.46,93.51,416.12,92.38,415.77,91.25z"/>
				<path id="path3018_7_" class="st3" d="M413.49,95.76c1.1-0.37,2.23-0.71,3.33-1.13c3.97,12.32,7.96,24.67,11.9,36.99
					c-1.13,0.39-2.23,0.76-3.38,1.08c-0.37-1.1-0.73-2.2-1.08-3.31c-1.13,0.32-2.25,0.69-3.36,1.05c-0.39-1.13-0.78-2.25-1.1-3.38
					c1.1-0.39,2.23-0.73,3.33-1.13C419.94,115.87,416.68,105.83,413.49,95.76L413.49,95.76z"/>
				<path id="path3020_7_" class="st3" d="M423.56,92.5c1.1-0.37,2.23-0.73,3.33-1.08c1.45,4.46,2.87,8.92,4.34,13.37
					c2.25-0.66,4.46-1.4,6.69-2.11c0.37,1.1,0.71,2.23,1.13,3.31c3.36-1.03,6.69-2.23,10.09-3.14c0.34,1.1,0.69,2.18,1.08,3.26
					c2.25-0.69,4.46-1.42,6.71-2.13c0.37,1.1,0.66,2.25,1.15,3.33c1.15-0.27,2.23-0.69,3.36-1c0.34,1.1,0.69,2.18,1.08,3.26
					c1.1-0.34,2.2-0.69,3.31-1.05c1.42,4.26,2.72,8.6,4.21,12.83c1.03,3.6,2.25,7.15,3.38,10.73c-1.1,0.34-2.2,0.71-3.26,1.2
					c1.05,3.31,2.13,6.64,3.16,9.97c-1.1,0.39-2.18,0.78-3.31,1.08c-1.2-3.33-2.23-6.74-3.28-10.12c1.1-0.34,2.23-0.71,3.33-1.08
					c-2.52-7.84-5.05-15.68-7.54-23.51c-1.1,0.34-2.23,0.71-3.33,1.08c-0.42-1.08-0.69-2.18-1.13-3.26
					c-1.18,0.15-2.25,0.64-3.36,0.98c1.05,3.38,2.2,6.71,3.21,10.09c-1.1,0.37-2.2,0.71-3.28,1.05c-1.52-4.46-2.89-8.96-4.36-13.45
					c-2.25,0.71-4.51,1.45-6.74,2.18c1.08,3.36,2.2,6.71,3.23,10.09c-1.1,0.39-2.23,0.73-3.33,1.08c-1.47-4.48-2.91-8.96-4.31-13.45
					c-2.25,0.71-4.51,1.45-6.74,2.18c1.42,4.48,2.89,8.94,4.31,13.42c-1.13,0.39-2.25,0.76-3.38,1.08
					C430.03,112.66,426.79,102.59,423.56,92.5L423.56,92.5z"/>
				<path id="path3026_7_" class="st3" d="M408.67,126.97c3.36-1.13,6.71-2.2,10.09-3.26c0.39,1.1,0.76,2.2,1.08,3.33
					c-2.2,0.76-4.46,1.45-6.69,2.18c0.64,2.25,1.54,4.41,2.11,6.69c-1.08,0.49-2.23,0.76-3.38,1.1
					C410.8,133.68,409.75,130.32,408.67,126.97z"/>
				<path id="path3030_7_" class="st3" d="M415.38,135.96c1.03-0.51,2.16-0.81,3.23-1.13c0.39,1.1,0.76,2.23,1.1,3.36
					c1.13-0.34,2.25-0.71,3.38-1.05c0.73,2.23,1.45,4.48,2.18,6.71c1.1-0.37,2.23-0.71,3.33-1.05c0.71,2.25,1.59,4.46,2.08,6.76
					c-1.05,0.44-2.18,0.73-3.28,1.05c-0.76-2.2-1.45-4.43-2.18-6.64c-1.1,0.34-2.23,0.69-3.36,1c-0.76-2.2-1.35-4.43-2.25-6.59
					c-1.08,0.34-2.16,0.69-3.23,0.96C415.99,138.23,415.48,137.13,415.38,135.96L415.38,135.96z"/>
				<path id="path3038_7_" class="st3" d="M430.84,149.5c1.08-0.44,2.18-0.73,3.28-1.1c0.76,2.23,1.45,4.46,2.16,6.69
					c1.13-0.37,2.23-0.73,3.38-1.05c0.73,2.23,1.42,4.48,2.18,6.69c8.94-2.87,17.91-5.73,26.85-8.62c-0.69-2.25-1.45-4.46-2.13-6.71
					c1.15-0.39,2.28-0.76,3.45-1.08c1.25,3.28,2.01,6.74,3.18,10.07c-5.63,1.96-11.32,3.75-16.97,5.56
					c-5.54,1.79-11.07,3.58-16.66,5.27c-1.13-3.33-2.18-6.69-3.31-10.02c-1.1,0.34-2.18,0.69-3.28,1
					C432.23,153.98,431.33,151.8,430.84,149.5L430.84,149.5z"/>
			</g>
		</g>
	</g>
</g>
</svg>
