<?xml version="1.0" encoding="utf-8"?>
<!-- Generator: Adobe Illustrator 24.1.0, SVG Export Plug-In . SVG Version: 6.00 Build 0)  -->
<svg version="1.1" id="VECTO" xmlns="http://www.w3.org/2000/svg" xmlns:xlink="http://www.w3.org/1999/xlink" x="0px" y="0px"
	 viewBox="0 0 430 420" style="enable-background:new 0 0 430 420;" xml:space="preserve">
<style type="text/css">
	.st0{fill:#FFFFFF;}
	.st1{fill:#1B1B1B;}
	.st2{fill:#D84759;}
	.st3{fill:#1C1C1C;}
	.st4{fill:#FDD51E;}
	.st5{fill:#F9AF03;}
	.st6{clip-path:url(#SVGID_2_);fill:#F9AF03;}
	.st7{clip-path:url(#SVGID_4_);fill:#F9AF03;}
	.st8{clip-path:url(#SVGID_6_);fill:#F9AF03;}
	.st9{clip-path:url(#SVGID_18_);fill:#F9AF03;}
	.st10{clip-path:url(#SVGID_20_);fill:#F9AF03;}
	.st11{clip-path:url(#SVGID_22_);fill:#F9AF03;}
	.st12{clip-path:url(#SVGID_24_);fill:#F9AF03;}
	.st13{clip-path:url(#SVGID_26_);fill:#F9AF03;}
	.st14{fill:none;stroke:#D3D9EE;stroke-width:2;stroke-miterlimit:10;}
	.st15{clip-path:url(#SVGID_28_);fill:#F9AF03;}
	.st16{clip-path:url(#SVGID_30_);fill:#F9AF03;}
	.st17{fill:#F3F7FB;}
	.st18{fill:#D3D9EE;}
	.st19{fill:none;stroke:#FFFFFF;stroke-linecap:round;stroke-linejoin:round;stroke-miterlimit:10;}
	.st20{fill:none;}
	.st21{opacity:0.5;}
	.st22{clip-path:url(#SVGID_32_);fill:#F9AF03;}
</style>
<g>
	<path class="st0" d="M413.53,420H16.47C7.37,420,0,412.63,0,403.53V16.47C0,7.37,7.37,0,16.47,0h397.07
		C422.63,0,430,7.37,430,16.47v387.07C430,412.63,422.63,420,413.53,420z"/>
	<g>
		<path class="st1" d="M52.68,239.7c-0.11-0.11-0.4-0.31-0.88-0.6s-1.08-0.6-1.8-0.92c-0.72-0.32-1.51-0.6-2.36-0.84
			c-0.85-0.24-1.71-0.36-2.56-0.36c-1.12,0-1.98,0.2-2.58,0.6c-0.6,0.4-0.9,0.99-0.9,1.76c0,0.48,0.13,0.88,0.4,1.2
			c0.27,0.32,0.65,0.61,1.14,0.86c0.49,0.25,1.11,0.49,1.84,0.7c0.73,0.21,1.58,0.45,2.54,0.72c1.36,0.37,2.59,0.78,3.68,1.22
			c1.09,0.44,2.03,0.99,2.8,1.64c0.77,0.65,1.37,1.45,1.78,2.38c0.41,0.93,0.62,2.05,0.62,3.36c0,1.6-0.3,2.95-0.9,4.06
			s-1.39,2-2.38,2.68c-0.99,0.68-2.13,1.17-3.42,1.48c-1.29,0.31-2.62,0.46-3.98,0.46c-1.04,0-2.1-0.08-3.18-0.24
			s-2.14-0.39-3.18-0.7c-1.04-0.31-2.05-0.67-3.04-1.1c-0.99-0.43-1.89-0.92-2.72-1.48l2.88-5.72c0.13,0.13,0.49,0.39,1.08,0.76
			c0.59,0.37,1.31,0.75,2.16,1.12c0.85,0.37,1.81,0.71,2.88,1c1.07,0.29,2.15,0.44,3.24,0.44c2.32,0,3.48-0.71,3.48-2.12
			c0-0.53-0.17-0.97-0.52-1.32c-0.35-0.35-0.83-0.66-1.44-0.94c-0.61-0.28-1.33-0.54-2.16-0.78s-1.73-0.51-2.72-0.8
			c-1.31-0.4-2.44-0.83-3.4-1.3c-0.96-0.47-1.76-1.01-2.4-1.62c-0.64-0.61-1.11-1.32-1.42-2.12c-0.31-0.8-0.46-1.73-0.46-2.8
			c0-1.49,0.28-2.81,0.84-3.96c0.56-1.15,1.32-2.11,2.28-2.9c0.96-0.79,2.07-1.38,3.34-1.78s2.61-0.6,4.02-0.6
			c1.01,0,2,0.09,2.96,0.28c0.96,0.19,1.87,0.43,2.74,0.72c0.87,0.29,1.69,0.63,2.46,1c0.77,0.37,1.47,0.75,2.08,1.12L52.68,239.7z"
			/>
		<path class="st1" d="M69.72,260.18c-1.79,0-3.38-0.29-4.78-0.88c-1.4-0.59-2.58-1.38-3.54-2.38s-1.69-2.16-2.18-3.48
			c-0.49-1.32-0.74-2.7-0.74-4.14c0-1.44,0.25-2.82,0.74-4.14c0.49-1.32,1.22-2.48,2.18-3.48s2.14-1.8,3.54-2.4s2.99-0.9,4.78-0.9
			c1.79,0,3.37,0.3,4.76,0.9c1.39,0.6,2.56,1.4,3.52,2.4s1.69,2.16,2.2,3.48c0.51,1.32,0.76,2.7,0.76,4.14
			c0,1.44-0.25,2.82-0.74,4.14c-0.49,1.32-1.22,2.48-2.18,3.48s-2.14,1.79-3.54,2.38C73.1,259.89,71.51,260.18,69.72,260.18z
			 M65.04,249.3c0,1.65,0.44,2.98,1.32,3.98c0.88,1,2,1.5,3.36,1.5c0.67,0,1.28-0.13,1.84-0.4c0.56-0.27,1.05-0.64,1.46-1.12
			c0.41-0.48,0.74-1.06,0.98-1.74c0.24-0.68,0.36-1.42,0.36-2.22c0-1.65-0.44-2.98-1.32-3.98s-1.99-1.5-3.32-1.5
			c-0.67,0-1.29,0.13-1.86,0.4c-0.57,0.27-1.07,0.64-1.48,1.12c-0.41,0.48-0.74,1.06-0.98,1.74
			C65.16,247.76,65.04,248.5,65.04,249.3z"/>
		<path class="st1" d="M90.44,260.18c-2.13,0-3.76-0.67-4.88-2.02c-1.12-1.35-1.68-3.33-1.68-5.94v-13.44h6.4v12.04
			c0,1.28,0.25,2.26,0.76,2.94c0.51,0.68,1.23,1.02,2.16,1.02c0.85,0,1.68-0.23,2.48-0.68c0.8-0.45,1.51-1.24,2.12-2.36v-12.96h6.4
			v13.8c0,0.64,0.12,1.09,0.36,1.34c0.24,0.25,0.67,0.41,1.28,0.46v5.4c-0.67,0.13-1.25,0.22-1.74,0.26
			c-0.49,0.04-0.93,0.06-1.3,0.06c-2.24-0.03-3.53-0.92-3.88-2.68l-0.12-1.28c-0.96,1.39-2.15,2.41-3.58,3.06
			C93.79,259.86,92.2,260.18,90.44,260.18z"/>
		<path class="st1" d="M122.76,258.66c-0.88,0.37-1.88,0.72-3,1.04s-2.27,0.48-3.44,0.48c-0.8,0-1.55-0.1-2.26-0.3
			c-0.71-0.2-1.33-0.52-1.86-0.96c-0.53-0.44-0.95-1.02-1.26-1.74c-0.31-0.72-0.46-1.59-0.46-2.6v-10.96h-2.68v-4.84h2.68v-6.68h6.4
			v6.68h4.28v4.84h-4.28v8.76c0,0.69,0.18,1.19,0.54,1.5c0.36,0.31,0.81,0.46,1.34,0.46c0.45,0,0.93-0.08,1.44-0.24
			c0.51-0.16,0.96-0.33,1.36-0.52L122.76,258.66z"/>
		<path class="st1" d="M135.28,260.18c-1.76,0-3.34-0.29-4.74-0.86s-2.59-1.35-3.56-2.34c-0.97-0.99-1.71-2.13-2.22-3.42
			c-0.51-1.29-0.76-2.65-0.76-4.06c0-1.52,0.25-2.95,0.76-4.3c0.51-1.35,1.24-2.53,2.2-3.54c0.96-1.01,2.14-1.81,3.54-2.4
			c1.4-0.59,2.99-0.88,4.78-0.88c1.79,0,3.37,0.29,4.76,0.88c1.39,0.59,2.56,1.38,3.52,2.38c0.96,1,1.69,2.15,2.18,3.46
			c0.49,1.31,0.74,2.68,0.74,4.12c0,0.37-0.01,0.74-0.04,1.1c-0.03,0.36-0.07,0.67-0.12,0.94H130.8c0.11,1.41,0.62,2.49,1.54,3.22
			s1.97,1.1,3.14,1.1c0.93,0,1.83-0.23,2.7-0.68c0.87-0.45,1.45-1.07,1.74-1.84l5.44,1.52c-0.83,1.65-2.11,3-3.84,4.04
			C139.79,259.66,137.71,260.18,135.28,260.18z M139.72,247.3c-0.13-1.33-0.61-2.39-1.44-3.16c-0.83-0.77-1.85-1.16-3.08-1.16
			c-1.25,0-2.29,0.39-3.1,1.18c-0.81,0.79-1.29,1.83-1.42,3.14H139.72z"/>
		<path class="st1" d="M169.64,259.78h-6.4v-11.8c0-1.39-0.26-2.39-0.78-3.02c-0.52-0.63-1.21-0.94-2.06-0.94
			c-0.45,0-0.91,0.09-1.38,0.28c-0.47,0.19-0.91,0.45-1.32,0.78c-0.41,0.33-0.79,0.73-1.14,1.18c-0.35,0.45-0.61,0.95-0.8,1.48
			v12.04h-6.4v-21h5.76v3.52c0.77-1.25,1.87-2.22,3.28-2.9c1.41-0.68,3.04-1.02,4.88-1.02c1.36,0,2.46,0.25,3.3,0.74
			c0.84,0.49,1.49,1.13,1.94,1.92c0.45,0.79,0.75,1.65,0.9,2.58c0.15,0.93,0.22,1.84,0.22,2.72V259.78z"/>
		<path class="st1" d="M183.88,260.18c-1.76,0-3.34-0.29-4.74-0.86s-2.59-1.35-3.56-2.34c-0.97-0.99-1.71-2.13-2.22-3.42
			c-0.51-1.29-0.76-2.65-0.76-4.06c0-1.52,0.25-2.95,0.76-4.3c0.51-1.35,1.24-2.53,2.2-3.54c0.96-1.01,2.14-1.81,3.54-2.4
			c1.4-0.59,2.99-0.88,4.78-0.88c1.79,0,3.37,0.29,4.76,0.88c1.39,0.59,2.56,1.38,3.52,2.38c0.96,1,1.69,2.15,2.18,3.46
			c0.49,1.31,0.74,2.68,0.74,4.12c0,0.37-0.01,0.74-0.04,1.1c-0.03,0.36-0.07,0.67-0.12,0.94H179.4c0.11,1.41,0.62,2.49,1.54,3.22
			s1.97,1.1,3.14,1.1c0.93,0,1.83-0.23,2.7-0.68c0.87-0.45,1.45-1.07,1.74-1.84l5.44,1.52c-0.83,1.65-2.11,3-3.84,4.04
			C188.39,259.66,186.31,260.18,183.88,260.18z M188.32,247.3c-0.13-1.33-0.61-2.39-1.44-3.16c-0.83-0.77-1.85-1.16-3.08-1.16
			c-1.25,0-2.29,0.39-3.1,1.18c-0.81,0.79-1.29,1.83-1.42,3.14H188.32z"/>
		<path class="st1" d="M196.44,255.94l10.72-12.72H197v-4.44h16.88v3.84l-10.68,12.72h10.92v4.44h-17.68V255.94z"/>
		<path class="st1" d="M217.08,251.66v-5.76h12.32v5.76H217.08z"/>
		<path class="st1" d="M253.96,259.78h-6.4v-11.8c0-1.39-0.26-2.39-0.78-3.02c-0.52-0.63-1.21-0.94-2.06-0.94
			c-0.45,0-0.91,0.09-1.38,0.28c-0.47,0.19-0.91,0.45-1.32,0.78c-0.41,0.33-0.79,0.73-1.14,1.18c-0.35,0.45-0.61,0.95-0.8,1.48
			v12.04h-6.4v-21h5.76v3.52c0.77-1.25,1.87-2.22,3.28-2.9c1.41-0.68,3.04-1.02,4.88-1.02c1.36,0,2.46,0.25,3.3,0.74
			c0.84,0.49,1.49,1.13,1.94,1.92c0.45,0.79,0.75,1.65,0.9,2.58c0.15,0.93,0.22,1.84,0.22,2.72V259.78z"/>
		<path class="st1" d="M268.16,260.18c-1.79,0-3.38-0.29-4.78-0.88c-1.4-0.59-2.58-1.38-3.54-2.38s-1.69-2.16-2.18-3.48
			c-0.49-1.32-0.74-2.7-0.74-4.14c0-1.44,0.25-2.82,0.74-4.14c0.49-1.32,1.22-2.48,2.18-3.48s2.14-1.8,3.54-2.4s2.99-0.9,4.78-0.9
			c1.79,0,3.37,0.3,4.76,0.9s2.56,1.4,3.52,2.4c0.96,1,1.69,2.16,2.2,3.48s0.76,2.7,0.76,4.14c0,1.44-0.25,2.82-0.74,4.14
			c-0.49,1.32-1.22,2.48-2.18,3.48c-0.96,1-2.14,1.79-3.54,2.38C271.54,259.89,269.95,260.18,268.16,260.18z M263.48,249.3
			c0,1.65,0.44,2.98,1.32,3.98s2,1.5,3.36,1.5c0.67,0,1.28-0.13,1.84-0.4c0.56-0.27,1.05-0.64,1.46-1.12
			c0.41-0.48,0.74-1.06,0.98-1.74c0.24-0.68,0.36-1.42,0.36-2.22c0-1.65-0.44-2.98-1.32-3.98c-0.88-1-1.99-1.5-3.32-1.5
			c-0.67,0-1.29,0.13-1.86,0.4s-1.07,0.64-1.48,1.12c-0.41,0.48-0.74,1.06-0.98,1.74C263.6,247.76,263.48,248.5,263.48,249.3z"/>
		<path class="st1" d="M288.88,260.18c-2.13,0-3.76-0.67-4.88-2.02c-1.12-1.35-1.68-3.33-1.68-5.94v-13.44h6.4v12.04
			c0,1.28,0.25,2.26,0.76,2.94c0.51,0.68,1.23,1.02,2.16,1.02c0.85,0,1.68-0.23,2.48-0.68s1.51-1.24,2.12-2.36v-12.96h6.4v13.8
			c0,0.64,0.12,1.09,0.36,1.34c0.24,0.25,0.67,0.41,1.28,0.46v5.4c-0.67,0.13-1.25,0.22-1.74,0.26s-0.93,0.06-1.3,0.06
			c-2.24-0.03-3.53-0.92-3.88-2.68l-0.12-1.28c-0.96,1.39-2.15,2.41-3.58,3.06S290.64,260.18,288.88,260.18z"/>
		<path class="st1" d="M316.6,260.18c-0.88,0-1.79-0.07-2.74-0.2c-0.95-0.13-1.89-0.31-2.82-0.54c-0.93-0.23-1.83-0.51-2.68-0.84
			s-1.6-0.7-2.24-1.1l2.52-4.32c1.39,0.8,2.73,1.41,4.04,1.84s2.56,0.64,3.76,0.64c0.93,0,1.65-0.15,2.14-0.44
			c0.49-0.29,0.74-0.72,0.74-1.28c0-0.56-0.33-0.99-1-1.3s-1.81-0.67-3.44-1.1c-1.41-0.37-2.61-0.75-3.6-1.12
			c-0.99-0.37-1.78-0.79-2.38-1.26c-0.6-0.47-1.03-0.99-1.3-1.58c-0.27-0.59-0.4-1.28-0.4-2.08c0-1.07,0.22-2.04,0.66-2.92
			c0.44-0.88,1.05-1.63,1.82-2.24c0.77-0.61,1.69-1.09,2.74-1.44c1.05-0.35,2.21-0.52,3.46-0.52c1.47,0,2.97,0.22,4.5,0.66
			c1.53,0.44,3.03,1.05,4.5,1.82l-2.52,4.04c-1.31-0.72-2.47-1.25-3.5-1.58c-1.03-0.33-2.02-0.5-2.98-0.5
			c-0.8,0-1.46,0.14-1.98,0.42c-0.52,0.28-0.78,0.73-0.78,1.34c0,0.29,0.07,0.54,0.2,0.74s0.35,0.39,0.66,0.56
			c0.31,0.17,0.71,0.33,1.22,0.48s1.13,0.31,1.88,0.5c1.55,0.4,2.85,0.8,3.92,1.2c1.07,0.4,1.93,0.85,2.6,1.34
			c0.67,0.49,1.15,1.06,1.44,1.7c0.29,0.64,0.44,1.4,0.44,2.28c0,1.04-0.21,1.98-0.62,2.82s-1.01,1.55-1.78,2.14
			c-0.77,0.59-1.71,1.04-2.8,1.36S317.96,260.18,316.6,260.18z"/>
		<path class="st1" d="M346.6,260.18c-0.88,0-1.79-0.07-2.74-0.2c-0.95-0.13-1.89-0.31-2.82-0.54c-0.93-0.23-1.83-0.51-2.68-0.84
			s-1.6-0.7-2.24-1.1l2.52-4.32c1.39,0.8,2.73,1.41,4.04,1.84s2.56,0.64,3.76,0.64c0.93,0,1.65-0.15,2.14-0.44
			c0.49-0.29,0.74-0.72,0.74-1.28c0-0.56-0.33-0.99-1-1.3s-1.81-0.67-3.44-1.1c-1.41-0.37-2.61-0.75-3.6-1.12
			c-0.99-0.37-1.78-0.79-2.38-1.26c-0.6-0.47-1.03-0.99-1.3-1.58c-0.27-0.59-0.4-1.28-0.4-2.08c0-1.07,0.22-2.04,0.66-2.92
			c0.44-0.88,1.05-1.63,1.82-2.24c0.77-0.61,1.69-1.09,2.74-1.44c1.05-0.35,2.21-0.52,3.46-0.52c1.47,0,2.97,0.22,4.5,0.66
			c1.53,0.44,3.03,1.05,4.5,1.82l-2.52,4.04c-1.31-0.72-2.47-1.25-3.5-1.58c-1.03-0.33-2.02-0.5-2.98-0.5
			c-0.8,0-1.46,0.14-1.98,0.42c-0.52,0.28-0.78,0.73-0.78,1.34c0,0.29,0.07,0.54,0.2,0.74s0.35,0.39,0.66,0.56
			c0.31,0.17,0.71,0.33,1.22,0.48s1.13,0.31,1.88,0.5c1.55,0.4,2.85,0.8,3.92,1.2c1.07,0.4,1.93,0.85,2.6,1.34
			c0.67,0.49,1.15,1.06,1.44,1.7c0.29,0.64,0.44,1.4,0.44,2.28c0,1.04-0.21,1.98-0.62,2.82s-1.01,1.55-1.78,2.14
			c-0.77,0.59-1.71,1.04-2.8,1.36S347.96,260.18,346.6,260.18z"/>
		<path class="st1" d="M364.88,260.18c-2.13,0-3.76-0.67-4.88-2.02c-1.12-1.35-1.68-3.33-1.68-5.94v-13.44h6.4v12.04
			c0,1.28,0.25,2.26,0.76,2.94c0.51,0.68,1.23,1.02,2.16,1.02c0.85,0,1.68-0.23,2.48-0.68s1.51-1.24,2.12-2.36v-12.96h6.4v13.8
			c0,0.64,0.12,1.09,0.36,1.34c0.24,0.25,0.67,0.41,1.28,0.46v5.4c-0.67,0.13-1.25,0.22-1.74,0.26s-0.93,0.06-1.3,0.06
			c-2.24-0.03-3.53-0.92-3.88-2.68l-0.12-1.28c-0.96,1.39-2.15,2.41-3.58,3.06S366.64,260.18,364.88,260.18z"/>
		<path class="st1" d="M397.12,244.26c-1.55,0.03-2.94,0.28-4.18,0.76c-1.24,0.48-2.15,1.2-2.74,2.16v12.6h-6.4v-21h5.88v4.24
			c0.75-1.41,1.69-2.51,2.82-3.3c1.13-0.79,2.34-1.21,3.62-1.26c0.53,0,0.87,0.01,1,0.04V244.26z"/>
	</g>
	<g id="Calque_5_20_">
		<g>
			<path class="st2" d="M295.43,143.02l-144.07,28.11c-8.51,1.65-16.73-3.89-18.41-12.4l-13.82-70.92
				c-1.65-8.51,3.89-16.73,12.4-18.41L275.6,41.31c8.51-1.65,16.73,3.89,18.41,12.4l13.84,70.92
				C309.49,133.11,303.94,141.34,295.43,143.02z"/>
			<g>
				<path class="st0" d="M149.38,99.62l-1.44-7.41l13.91-7.64l2.38,12.17l7.67-1.49l2.05,10.49l-7.67,1.49l2.8,14.36
					c0.54,2.75,0.7,6.55,3.85,5.94c1.05-0.21,3.4-1.42,4.82-2.35l2,10.32c-2.24,1.44-7.6,3.08-9.46,3.43
					c-12.1,2.35-13.8-4.17-16.03-14.45l-2.8-14.36l-4.36,0.84l-2.05-10.49L149.38,99.62z"/>
				<path class="st0" d="M186.43,134.25l-2.05-10.56l3.38-0.65l-3.75-19.27l-3.38,0.65l-2.05-10.49l18.69-3.66l5.8,29.74l3.87-0.75
					l2.05,10.56L186.43,134.25z M185.64,71.82c5.57-1.1,9.74,2.8,10.46,6.5c0.86,4.43-1.56,8.76-7.27,9.86
					c-5.08,0.98-9.53-2.56-10.3-6.43C177.81,78.02,180,72.91,185.64,71.82z"/>
				<path class="st0" d="M215.87,134.6l-6.92-35.47l-3.38,0.65l-2.1-10.72l18.46-3.59l1.91,2.54c1.31-1.42,4.24-4.43,9.09-5.36
					c12.58-2.45,20.91,5.97,23.14,17.41c2.49,12.82-3.94,22.28-14.33,24.31c-6.69,1.31-10.44-0.72-11.09-1.1l1.58,8.13l4.36-0.84
					l2.05,10.56l-24.1,4.71l-2.05-10.56L215.87,134.6z M231.02,94.84c-3.15,0.61-5.27,5.13-3.71,11.44
					c1.07,5.48,4.64,9.14,7.69,8.53c3.38-0.65,4.96-5.06,3.75-11.19C237.82,98.78,234.58,94.14,231.02,94.84z"/>
				<path class="st0" d="M268.93,100.74c5.73-1.12,10.37,2.07,11.26,6.67c0.89,4.52-2.1,9.02-7.97,10.18
					c-5.24,1.03-10-2.33-10.81-6.5C260.64,107.06,263.13,101.88,268.93,100.74z M252.36,62.89l19.27-3.75l2.98,15.31l-0.3,21.14
					l-10.65,2.07l-8.32-19.46L252.36,62.89z"/>
			</g>
			<g>
				<path id="path4109_22_" class="st0" d="M256.33,127.84c0.28,0.93,0.58,1.86,0.86,2.8l0.12,0.4l-0.4,0.14
					c-0.91,0.33-1.84,0.63-2.77,0.96c2.98,9.44,6.06,18.88,9.09,28.29l0.14,0.4l-0.4,0.14c-0.77,0.26-1.56,0.51-2.35,0.79
					l-0.42,0.14l-0.14-0.42c-0.28-0.93-0.58-1.84-0.91-2.75c-3.22,1-6.41,2.03-9.6,3.1c1.03,3.19,2.05,6.39,3.08,9.56
					c0.93-0.28,1.89-0.54,2.8-0.91l0.51-0.21l0.09,0.54c0.16,0.96,0.56,1.86,0.86,2.8c0.91-0.23,1.79-0.51,2.68-0.79l0.37-0.12
					l0.16,0.37c0.79,1.93,1.35,3.92,2.03,5.9c0.93-0.26,1.86-0.54,2.8-0.84l0.4-0.12l0.14,0.4c0.65,1.98,1.28,3.94,1.96,5.92
					c0.93-0.28,1.89-0.54,2.8-0.89l0.47-0.19l0.12,0.49c0.49,2.03,1.26,3.99,1.89,5.97c0.91-0.28,1.82-0.56,2.73-0.84l0.4-0.14
					l0.14,0.4c1.03,3.03,1.98,6.11,3.01,9.14c5.29-1.63,10.58-3.31,15.85-5.01c5.38-1.75,10.81-3.43,16.15-5.31
					c-1.07-3.01-1.77-6.15-2.87-9.16l-0.16-0.44l0.44-0.14c0.91-0.26,1.82-0.58,2.7-0.89c-0.93-3.03-1.91-6.08-2.89-9.11l-0.12-0.37
					l0.35-0.16c0.89-0.37,1.82-0.7,2.75-0.98c-1.07-3.4-2.21-6.76-3.22-10.18l0,0l0,0c-1.42-4.03-2.66-8.13-4.01-12.21
					c-0.91,0.3-1.82,0.58-2.73,0.86l-0.4,0.12l-0.14-0.4c-0.3-0.89-0.61-1.79-0.89-2.7c-0.96,0.28-1.86,0.61-2.82,0.84l-0.37,0.09
					l-0.14-0.35c-0.37-0.91-0.63-1.86-0.96-2.82c-1.98,0.63-3.96,1.28-5.97,1.89l-0.4,0.12l-0.14-0.4c-0.3-0.89-0.61-1.79-0.89-2.7
					c-3.1,0.82-6.13,1.91-9.18,2.87l-0.4,0.12l-0.14-0.37c-0.35-0.91-0.65-1.84-0.96-2.77c-1.98,0.63-3.96,1.28-5.97,1.89l-0.4,0.12
					l-0.14-0.4c-1.35-4.1-2.66-8.2-3.99-12.31c-0.54,0.16-1.07,0.33-1.58,0.49c-0.4,0.12-0.79,0.26-1.19,0.4l-0.42,0.14l-0.14-0.42
					c-0.28-0.96-0.58-1.89-0.98-2.8C260.52,126.52,258.42,127.19,256.33,127.84L256.33,127.84z"/>
				<path id="path3016_22_" class="st3" d="M256.33,127.84c2.1-0.65,4.19-1.35,6.29-2.03c0.44,1.03,0.77,2.07,1.1,3.15
					c-2.12,0.7-4.26,1.38-6.39,2.07C256.98,129.99,256.65,128.92,256.33,127.84z"/>
				<path id="path3018_22_" class="st3" d="M254.16,132.13c1.05-0.35,2.12-0.68,3.17-1.07c3.78,11.72,7.57,23.47,11.33,35.19
					c-1.07,0.37-2.12,0.72-3.22,1.03c-0.35-1.05-0.7-2.1-1.03-3.15c-1.07,0.3-2.14,0.65-3.19,1c-0.37-1.07-0.75-2.14-1.05-3.22
					c1.05-0.37,2.12-0.7,3.17-1.07C260.29,151.27,257.19,141.71,254.16,132.13L254.16,132.13z"/>
				<path id="path3020_22_" class="st3" d="M263.74,129.03c1.05-0.35,2.12-0.7,3.17-1.03c1.38,4.24,2.73,8.48,4.13,12.72
					c2.14-0.63,4.24-1.33,6.36-2c0.35,1.05,0.68,2.12,1.07,3.15c3.19-0.98,6.36-2.12,9.6-2.98c0.33,1.05,0.65,2.07,1.03,3.1
					c2.14-0.65,4.24-1.35,6.39-2.03c0.35,1.05,0.63,2.14,1.1,3.17c1.1-0.26,2.12-0.65,3.19-0.96c0.33,1.05,0.65,2.07,1.03,3.1
					c1.05-0.33,2.1-0.65,3.15-1c1.35,4.06,2.59,8.18,4.01,12.21c0.98,3.43,2.14,6.81,3.22,10.21c-1.05,0.33-2.1,0.68-3.1,1.14
					c1,3.15,2.03,6.32,3.01,9.49c-1.05,0.37-2.07,0.75-3.15,1.03c-1.14-3.17-2.12-6.41-3.12-9.63c1.05-0.33,2.12-0.68,3.17-1.03
					c-2.4-7.46-4.8-14.92-7.18-22.37c-1.05,0.33-2.12,0.68-3.17,1.03c-0.4-1.03-0.65-2.07-1.07-3.1c-1.12,0.14-2.14,0.61-3.19,0.93
					c1,3.22,2.1,6.39,3.05,9.6c-1.05,0.35-2.1,0.68-3.12,1c-1.44-4.24-2.75-8.53-4.15-12.79c-2.14,0.68-4.29,1.38-6.41,2.07
					c1.03,3.19,2.1,6.39,3.08,9.6c-1.05,0.37-2.12,0.7-3.17,1.03c-1.4-4.26-2.77-8.53-4.1-12.79c-2.14,0.68-4.29,1.38-6.41,2.07
					c1.35,4.26,2.75,8.51,4.1,12.77c-1.07,0.37-2.14,0.72-3.22,1.03C269.89,148.21,266.81,138.63,263.74,129.03L263.74,129.03z"/>
				<path id="path3026_22_" class="st3" d="M249.57,161.82c3.19-1.07,6.39-2.1,9.6-3.1c0.37,1.05,0.72,2.1,1.03,3.17
					c-2.1,0.72-4.24,1.38-6.36,2.07c0.61,2.14,1.47,4.19,2,6.36c-1.03,0.47-2.12,0.72-3.22,1.05
					C251.6,168.21,250.59,165.02,249.57,161.82z"/>
				<path id="path3030_22_" class="st3" d="M255.95,170.38c0.98-0.49,2.05-0.77,3.08-1.07c0.37,1.05,0.72,2.12,1.05,3.19
					c1.07-0.33,2.14-0.68,3.22-1c0.7,2.12,1.38,4.26,2.07,6.39c1.05-0.35,2.12-0.68,3.17-1c0.68,2.14,1.51,4.24,1.98,6.43
					c-1,0.42-2.07,0.7-3.12,1c-0.72-2.1-1.38-4.22-2.07-6.32c-1.05,0.33-2.12,0.65-3.19,0.96c-0.72-2.1-1.28-4.22-2.14-6.27
					c-1.03,0.33-2.05,0.65-3.08,0.91C256.54,172.54,256.05,171.5,255.95,170.38L255.95,170.38z"/>
				<path id="path3038_22_" class="st3" d="M270.66,183.26c1.03-0.42,2.07-0.7,3.12-1.05c0.72,2.12,1.38,4.24,2.05,6.36
					c1.07-0.35,2.12-0.7,3.22-1c0.7,2.12,1.35,4.26,2.07,6.36c8.51-2.73,17.04-5.45,25.54-8.2c-0.65-2.14-1.38-4.24-2.03-6.39
					c1.1-0.37,2.17-0.72,3.29-1.03c1.19,3.12,1.91,6.41,3.03,9.58c-5.36,1.86-10.77,3.57-16.15,5.29c-5.27,1.7-10.53,3.4-15.85,5.01
					c-1.07-3.17-2.07-6.36-3.15-9.53c-1.05,0.33-2.07,0.65-3.12,0.96C271.99,187.53,271.13,185.46,270.66,183.26L270.66,183.26z"/>
			</g>
		</g>
	</g>
	<g>
		<path class="st2" d="M147.87,347.59h-4.17v-42.82c0-0.73-0.59-1.32-1.31-1.32l-22.14,6.65c-1.01,0.25-1.31,1.2-1.31,1.93v12.71
			c0,0.73,0.59,1.32,1.31,1.32l3.96-1.19v22.72h-4.17c-0.73,0-1.31,0.59-1.31,1.32v13.31c0,0.73,0.59,1.32,1.31,1.32h27.85
			c0.73,0,1.31-0.59,1.31-1.32v-13.31C149.18,348.18,148.59,347.59,147.87,347.59z"/>
		<path class="st2" d="M290.02,363.68c5.15,0.51,10.66-1.06,15.48-2.7c11.36-3.87,22.13-10,31.7-17.19
			c4.18-3.13,8.26-6.5,11.67-10.47c2.53-2.94,5-6.41,5.19-10.43c0.21-4.44-6.68-4.42-6.89,0c0,0.04,0,0.07,0,0.1
			c-0.01,0.02-0.01,0.05-0.02,0.08c-0.07,0.34-0.18,0.67-0.29,1c-0.01,0.03-0.02,0.06-0.03,0.09c-0.05,0.11-0.1,0.21-0.15,0.32
			c-0.22,0.44-0.47,0.87-0.72,1.3c-0.24,0.39-0.5,0.78-0.77,1.15c-0.14,0.2-0.28,0.39-0.43,0.59c-0.02,0.03-0.05,0.06-0.09,0.11
			c-0.75,0.94-1.55,1.83-2.38,2.69c-4.05,4.24-8.15,7.36-12.81,10.56c-5.33,3.66-10.96,6.91-16.79,9.72
			c-4.98,2.39-10.23,4.47-15.97,5.67c-0.59,0.12-1.18,0.23-1.77,0.32c-0.06,0.01-0.28,0.04-0.43,0.06
			c-0.21,0.02-0.42,0.05-0.63,0.07c-1.19,0.12-2.38,0.15-3.57,0.08c-0.08,0-0.41-0.04-0.55-0.06c-0.17-0.03-0.34-0.07-0.51-0.1
			c-0.45-0.09-0.88-0.23-1.31-0.38c0.43,0.14-0.68-0.34-0.9-0.47c-0.09-0.05-0.18-0.11-0.26-0.17c0.07,0.04-0.41-0.32-0.53-0.43
			c-0.14-0.13-0.65-0.72-0.73-0.78c-0.15-0.21-0.29-0.43-0.42-0.66c4.81-3.37,9.28-7.29,13.33-11.5c4.69-4.87,9.03-10.35,12.1-16.4
			c2.99-5.9,5.25-14.04,0.38-19.6c-5.03-5.74-13.35-1.62-17.96,2.26c-4.62,3.89-7.93,9.17-10.43,14.6
			c-2.41,5.24-4.27,10.77-5.2,16.47c-0.59,3.61-0.94,7.53-0.35,11.23c-2.06,1.22-4.18,2.34-6.37,3.31c-2.48,1.1-5.7,2.06-8.64,2.52
			c0.18-0.03-0.69,0.07-0.69,0.07c-0.35,0.03-0.71,0.05-1.06,0.07c-0.67,0.04-1.35,0.03-2.02,0.01c-0.19-0.01-0.38-0.02-0.57-0.04
			c0.19,0.01-0.41-0.06-0.52-0.08c-0.52-0.1-1.03-0.25-1.54-0.42c0.32,0.1-0.73-0.36-0.94-0.48c-0.1-0.06-0.19-0.12-0.29-0.18
			c-0.09-0.07-0.26-0.19-0.33-0.25c-0.29-0.25-0.55-0.54-0.81-0.83c-0.07-0.08-0.14-0.17-0.17-0.22c-0.17-0.24-0.32-0.5-0.46-0.75
			c5.38-3.67,10.33-7.97,14.69-12.8c5.36-5.95,10.2-12.88,13.16-20.35c2.42-6.09,1.73-13.88-5.07-16.52
			c-3.05-1.18-6.49-0.22-9.33,1.01c-3.86,1.67-7.12,4.89-9.75,8.08c-3.43,4.16-5.81,9.04-7.8,14.01c-2.14,5.34-3.57,10.97-4.07,16.7
			c-0.19,2.2-0.2,4.55,0.12,6.84c-2.59,1.53-5.27,2.91-8.03,4.12c-0.17,0.07-0.9,0.37-1.12,0.46c-0.35,0.14-0.7,0.27-1.05,0.4
			c-0.31,0.11-0.62,0.22-0.94,0.32c-0.66,0.2-1.32,0.37-1.98,0.53c-0.31,0.07-0.62,0.13-0.94,0.19c-0.06,0.01-0.42,0.07-0.56,0.09
			c-1.05,0.12-2.11,0.13-3.16,0.04c-0.03,0-0.05-0.01-0.09-0.02c-0.23-0.04-0.45-0.09-0.68-0.15c-0.3-0.07-0.6-0.17-0.89-0.27
			c0.09,0.02-0.68-0.33-0.87-0.44c-0.17-0.1-0.34-0.21-0.5-0.32c-0.03-0.03-0.07-0.06-0.12-0.11c-0.31-0.27-0.59-0.57-0.86-0.87
			c-0.02-0.02-0.04-0.05-0.06-0.07c-0.09-0.13-0.18-0.26-0.27-0.39c-0.23-0.36-0.44-0.73-0.63-1.11c-0.04-0.07-0.07-0.15-0.11-0.23
			c-0.05-0.13-0.2-0.47-0.24-0.58c-0.02-0.07-0.04-0.13-0.07-0.2c8.87-5.58,16.4-13.13,21.91-22.17c3.76-6.17,8.24-14.6,4.51-21.78
			c-3.37-6.49-11.66-4.99-16.71-1.71c-9.33,6.07-13.99,17-16.29,27.48c-0.96,4.37-1.76,9.76-1.26,14.81
			c-1.58,0.85-3.22,1.59-4.87,2.3c-1.72,0.75-2.1,3.24-1.24,4.71c1.03,1.76,2.99,1.99,4.71,1.24c1.04-0.46,2.07-0.94,3.09-1.44
			c0.82,1.83,1.96,3.5,3.5,4.89c4.54,4.13,10.95,3.88,16.49,2.23c3.99-1.24,7.87-3.09,11.54-5.22c0.15,0.25,0.31,0.49,0.47,0.73
			c3.24,4.68,8.62,6.11,14.07,5.65c6.42-0.54,12.52-3.04,18.09-6.21C281.69,361.12,285.39,363.21,290.02,363.68z M220.68,339.45
			c0.03-0.23,0.07-0.47,0.11-0.7c0.09-0.58,0.2-1.16,0.3-1.74c0.24-1.26,0.53-2.51,0.84-3.75c0.6-2.34,1.34-4.64,2.2-6.89
			c0.17-0.44,0.35-0.88,0.53-1.32c0.01-0.01,0.42-0.94,0.5-1.12c0.46-1,0.95-1.97,1.49-2.93c0.44-0.8,0.92-1.58,1.44-2.34
			c0.14-0.21,0.28-0.41,0.43-0.61c-0.03,0.05,0.55-0.69,0.53-0.66c0.5-0.61,1.03-1.19,1.57-1.77c2.38-2.55,5.18-4.7,8.29-5.34
			c0.03-0.01,0.05-0.01,0.07-0.02c0.05,0,0.13,0,0.25-0.01c0.29-0.02,0.58-0.01,0.87,0.01c0,0,0,0,0.01,0
			c0.04,0.01,0.09,0.02,0.17,0.04c0.15,0.03,0.29,0.08,0.43,0.12c-0.21-0.06,0.28,0.14,0.41,0.22c0.02,0.01,0.04,0.02,0.06,0.03
			c0.02,0.01,0.03,0.02,0.05,0.04c0.06,0.06,0.24,0.26,0.32,0.34c0.07,0.11,0.15,0.23,0.21,0.35c0.02,0.05,0.19,0.42,0.23,0.52
			c0.09,0.29,0.15,0.58,0.21,0.88c0.01,0.03,0.01,0.05,0.02,0.07c0,0.06,0,0.15,0.01,0.29c0.02,0.35,0.02,0.69,0.01,1.04
			c-0.03,1.47-0.52,3.09-1.15,4.78c-1.48,3.96-3.94,7.75-6.35,11.19c-2.23,3.18-4.84,6.08-7.65,8.74c-2.1,1.99-4.38,3.8-6.77,5.46
			c0.02-1.51,0.14-3.03,0.32-4.53C220.63,339.79,220.66,339.6,220.68,339.45z M222.44,354.18
			C222.4,354.13,222.39,354.11,222.44,354.18L222.44,354.18z M251.3,343.07c0.02-0.24,0.05-0.48,0.08-0.72
			c0,0.07,0.11-0.81,0.13-0.91c0.43-2.76,1.13-5.48,1.97-8.15c1.57-5,3.41-9.22,6.47-13.83c0.29-0.44,0.6-0.88,0.92-1.31
			c0.03-0.04,0.06-0.08,0.08-0.11c0.3-0.38,0.62-0.75,0.93-1.12c1.38-1.63,2.93-3.18,4.68-4.41c1.33-0.94,2.54-1.56,3.79-1.95
			c0.32-0.1,0.65-0.17,0.98-0.24c0.04-0.01,0.07-0.02,0.1-0.02c0.05,0,0.12-0.01,0.22-0.01c0.29-0.02,0.59-0.01,0.88,0
			c0.05,0,0.09,0,0.12,0c0.06,0.02,0.16,0.05,0.32,0.09c0.08,0.02,0.31,0.1,0.43,0.15c0.13,0.07,0.26,0.15,0.38,0.22
			c0.03,0.03,0.06,0.06,0.1,0.1c0.06,0.06,0.21,0.24,0.29,0.33c0.09,0.14,0.17,0.28,0.25,0.42c0.02,0.03,0.03,0.06,0.05,0.08
			c0.01,0.03,0.02,0.07,0.04,0.12c0.1,0.28,0.16,0.56,0.23,0.85c0.01,0.08,0.02,0.14,0.03,0.19c0.01,0.16,0.03,0.31,0.03,0.47
			c0.17,3.07-1.48,6.37-3.13,9.38c-5.11,9.35-12.24,17.26-20.56,23.43c0.01-0.39,0.02-0.78,0.03-1.18
			C251.19,344.31,251.24,343.69,251.3,343.07z M283.62,344.63c0.03-0.62,0.09-1.25,0.16-1.87c0.01-0.05,0.06-0.49,0.07-0.61
			c0.03-0.24,0.07-0.47,0.11-0.71c0.22-1.42,0.52-2.83,0.86-4.23c0.67-2.74,1.55-5.44,2.57-8.07c0.12-0.31,0.25-0.62,0.37-0.93
			c0.04-0.09,0.06-0.15,0.08-0.2c0.02-0.05,0.05-0.11,0.09-0.2c0.26-0.6,0.53-1.19,0.81-1.79c0.57-1.23,1.2-2.43,1.86-3.62
			c0.56-1.01,1.17-1.99,1.8-2.95c0.29-0.44,0.6-0.88,0.92-1.31c0.03-0.04,0.06-0.08,0.08-0.11c0.43-0.54,0.88-1.06,1.33-1.58
			c2.31-2.64,5.31-5.18,8.31-5.97c0.06-0.02,0.52-0.09,0.62-0.12c0.2-0.01,0.4-0.02,0.6-0.02c0.08,0,0.34,0.03,0.48,0.04
			c0.16,0.04,0.32,0.08,0.48,0.13c0.01,0,0.02,0.01,0.04,0.01c0.03,0.01,0.05,0.03,0.08,0.04c0.08,0.04,0.3,0.19,0.4,0.25
			c0.1,0.1,0.2,0.2,0.3,0.3c0.01,0.01,0.01,0.01,0.02,0.02c0.08,0.12,0.15,0.23,0.22,0.35c0.04,0.07,0.17,0.35,0.22,0.46
			c0.06,0.19,0.12,0.39,0.18,0.59c0.07,0.26,0.12,0.53,0.17,0.8c-0.09-0.47,0.02,0.5,0.02,0.56c0.08,1.72-0.21,2.92-0.74,4.7
			c-0.87,2.91-2.43,5.61-4.06,8.16c-3.69,5.8-8.45,10.92-13.64,15.58c-1.56,1.4-3.19,2.74-4.86,4.02
			C283.57,345.79,283.59,345.21,283.62,344.63z"/>
		<path class="st2" d="M133.94,301.53c5.39,0,9.76-4.37,9.76-9.76c0-5.39-4.37-9.76-9.76-9.76c-5.39,0-9.76,4.37-9.76,9.76
			C124.19,297.16,128.55,301.53,133.94,301.53z"/>
		<path class="st2" d="M110.95,303.45h-10.19c0-0.34,0-0.68,0-1.03v-13.21c0,0,0.33-3.71-3.62-2.33
			c-3.95,1.38-13.04,4.02-13.04,4.02s-2.11,0.3-2.11,3.04c0,2.31,0.03,3.65,0.07,9.5h-4.82c-0.73,0-1.31,0.59-1.31,1.32v13.31
			c0,0.73,0.59,1.32,1.31,1.32h4.88c0.01,7.08,0.02,16.45,0.02,29c0,0-1.19,23.5,28.5,11.93c0,0,1.49-0.81,1.61-2.11v-12.89
			c0,0,0.02-1.97-1.83-1.09c0,0-9.66,4.41-9.66-1.91c0-5.06,0-5.31,0-22.95h10.19c0.73,0,1.31-0.59,1.31-1.32v-13.31
			C112.27,304.04,111.68,303.45,110.95,303.45z"/>
		<path class="st2" d="M184.1,303.45c-3.18,0-6.23,0.65-9.05,1.83v-0.56c0-0.73-0.59-1.32-1.31-1.32h-22.46
			c-0.73,0-1.31,0.59-1.31,1.32v13.31c0,0.73,0.59,1.32,1.31,1.32h4.27v51.69h-4.27c-0.73,0-1.31,0.59-1.31,1.32v13.31
			c0,0.73,0.59,1.32,1.31,1.32h27.94c0.73,0,1.31-0.59,1.31-1.32v-13.31c0-0.73-0.59-1.32-1.31-1.32h-4.17v-9.33
			c2.82,1.18,5.87,1.83,9.05,1.83c14.5,0,26.26-13.45,26.26-30.04S198.6,303.45,184.1,303.45z M184.4,347.96
			c-5.2-0.02-9.38-6.52-9.35-14.51c0.04-7.99,4.28-14.45,9.48-14.42c5.2,0.02,9.38,6.52,9.35,14.51
			C193.84,341.52,189.6,347.98,184.4,347.96z"/>
		<path class="st2" d="M289.41,379.92c-2.18,0-3.37,1.88-3.37,3.4c0,1.58,1.4,3.22,3.37,3.22c2.24,0,3.43-1.43,3.43-3.22
			C292.84,381.8,291.59,379.92,289.41,379.92z"/>
		<path class="st2" d="M302.59,382.45c-1.91-0.03-3.07-1.58-3.07-3.52c0-1.94,0.87-3.82,2.62-3.82c1.37,0,1.82,1.7,1.88,3.13h4.39
			v-6.74h-3.52l-0.51,1.43c-0.51-0.6-1.7-1.7-3.73-1.7c-3.82,0-7.34,2.36-7.34,7.64c0,5.31,3.82,7.97,8.2,7.97
			c3.22,0,5.91-1.52,7.31-3.04l-2.63-3.04C305.22,381.83,304.17,382.48,302.59,382.45z"/>
		<path class="st2" d="M317.63,371.14c-4.12,0-8.14,2.77-8.17,7.76c-0.06,5.28,4.06,7.91,8.32,7.91c4.54,0,8.2-2.83,8.14-7.79
			C325.83,374.04,322.34,371.2,317.63,371.14z M317.78,382.99c-1.25,0-2.21-1.61-2.21-4.06c0-2.18,0.89-3.91,2.06-3.91
			c1.4,0.03,2.18,1.76,2.18,4C319.81,381.26,319.06,382.99,317.78,382.99z"/>
		<path class="st2" d="M351.43,378.27c0-3.64-0.75-7.16-5.58-7.16c-2.06,0-3.46,1.1-4.38,2.15c-0.48-0.72-1.43-2.15-4.45-2.15
			c-1.88,0-3.25,1.61-3.73,2.18l-0.66-1.76h-5.64v3.94h1.25v7.04h-1.25v3.91h8.86v-3.91h-1.79v-5.31c0-1.22,0.39-1.79,1.34-1.79
			c1.19,0,1.25,0.98,1.25,3.4v7.61h7.73v-4h-1.79v-4.83c0-1.28,0.3-2.18,1.58-2.18c1.4,0,1.13,2.27,1.13,3.7v7.31h7.58v-4.03h-1.46
			V378.27z"/>
	</g>
</g>
</svg>
