<?xml version="1.0" encoding="utf-8"?>
<!-- Generator: Adobe Illustrator 24.1.0, SVG Export Plug-In . SVG Version: 6.00 Build 0)  -->
<svg version="1.1" id="VECTO" xmlns="http://www.w3.org/2000/svg" xmlns:xlink="http://www.w3.org/1999/xlink" x="0px" y="0px"
	 viewBox="0 0 851.5 138" style="enable-background:new 0 0 851.5 138;" xml:space="preserve">
<style type="text/css">
	.st0{fill:#FFFFFF;}
	.st1{fill:#1B1B1B;}
	.st2{fill:#D84759;}
	.st3{fill:#1C1C1C;}
	.st4{fill:#FDD51E;}
	.st5{fill:#F9AF03;}
	.st6{clip-path:url(#SVGID_2_);fill:#F9AF03;}
	.st7{clip-path:url(#SVGID_4_);fill:#F9AF03;}
	.st8{clip-path:url(#SVGID_6_);fill:#F9AF03;}
	.st9{clip-path:url(#SVGID_18_);fill:#F9AF03;}
	.st10{clip-path:url(#SVGID_20_);fill:#F9AF03;}
	.st11{clip-path:url(#SVGID_22_);fill:#F9AF03;}
	.st12{clip-path:url(#SVGID_24_);fill:#F9AF03;}
	.st13{clip-path:url(#SVGID_26_);fill:#F9AF03;}
	.st14{fill:none;stroke:#D3D9EE;stroke-width:2;stroke-miterlimit:10;}
	.st15{clip-path:url(#SVGID_28_);fill:#F9AF03;}
	.st16{clip-path:url(#SVGID_30_);fill:#F9AF03;}
	.st17{fill:#F3F7FB;}
	.st18{fill:#D3D9EE;}
	.st19{fill:none;stroke:#FFFFFF;stroke-linecap:round;stroke-linejoin:round;stroke-miterlimit:10;}
	.st20{fill:none;}
	.st21{opacity:0.5;}
	.st22{clip-path:url(#SVGID_32_);fill:#F9AF03;}
</style>
<g>
	<path class="st0" d="M835.03,138H16.47C7.37,138,0,130.63,0,121.53V16.47C0,7.37,7.37,0,16.47,0h818.57
		c9.09,0,16.47,7.37,16.47,16.47v105.07C851.5,130.63,844.13,138,835.03,138z"/>
	<g>
		<path class="st2" d="M667.07,78.32h-3.14V46.15c0-0.55-0.44-0.99-0.99-0.99l-16.64,5c-0.76,0.19-0.99,0.9-0.99,1.45v9.55
			c0,0.55,0.44,0.99,0.99,0.99l2.97-0.89v17.07h-3.14c-0.55,0-0.99,0.44-0.99,0.99v10c0,0.55,0.44,0.99,0.99,0.99h20.92
			c0.55,0,0.99-0.44,0.99-0.99v-10C668.06,78.76,667.61,78.32,667.07,78.32z"/>
		<path class="st2" d="M773.87,90.41c3.87,0.39,8.01-0.8,11.63-2.03c8.53-2.9,16.63-7.52,23.82-12.91c3.14-2.35,6.2-4.89,8.77-7.87
			c1.9-2.21,3.76-4.82,3.9-7.83c0.16-3.34-5.02-3.32-5.18,0c0,0.03,0,0.05,0,0.08c0,0.02-0.01,0.03-0.01,0.06
			c-0.05,0.26-0.13,0.51-0.22,0.75c-0.01,0.02-0.02,0.04-0.03,0.07c-0.04,0.08-0.07,0.16-0.11,0.24c-0.16,0.33-0.35,0.66-0.54,0.97
			c-0.18,0.3-0.38,0.58-0.57,0.87c-0.1,0.15-0.21,0.29-0.32,0.44c-0.02,0.02-0.04,0.05-0.07,0.08c-0.56,0.7-1.17,1.37-1.79,2.02
			c-3.04,3.19-6.13,5.53-9.63,7.93c-4.01,2.75-8.24,5.2-12.62,7.3c-3.74,1.8-7.69,3.36-12,4.26c-0.44,0.09-0.88,0.17-1.33,0.24
			c-0.04,0.01-0.21,0.03-0.33,0.05c-0.16,0.02-0.32,0.04-0.47,0.05c-0.89,0.09-1.79,0.12-2.68,0.06c-0.06,0-0.31-0.03-0.41-0.04
			c-0.13-0.02-0.26-0.05-0.38-0.08c-0.34-0.07-0.66-0.17-0.99-0.29c0.32,0.11-0.51-0.25-0.68-0.35c-0.07-0.04-0.13-0.08-0.2-0.13
			c0.05,0.03-0.31-0.24-0.4-0.32c-0.11-0.1-0.49-0.54-0.55-0.59c-0.11-0.16-0.22-0.32-0.32-0.49c3.62-2.53,6.97-5.47,10.02-8.64
			c3.52-3.66,6.79-7.78,9.09-12.33c2.25-4.43,3.95-10.55,0.28-14.72c-3.78-4.31-10.03-1.22-13.5,1.7
			c-3.47,2.92-5.96,6.89-7.84,10.97c-1.81,3.94-3.21,8.09-3.91,12.38c-0.44,2.71-0.71,5.66-0.26,8.44
			c-1.55,0.92-3.14,1.75-4.79,2.49c-1.86,0.83-4.28,1.54-6.49,1.89c0.14-0.03-0.52,0.06-0.52,0.06c-0.27,0.03-0.53,0.04-0.8,0.06
			c-0.51,0.03-1.01,0.03-1.52,0.01c-0.14-0.01-0.28-0.02-0.43-0.03c0.14,0.01-0.31-0.04-0.39-0.06c-0.39-0.07-0.78-0.19-1.15-0.32
			c0.24,0.08-0.55-0.27-0.71-0.36c-0.07-0.04-0.15-0.09-0.22-0.14c-0.07-0.05-0.2-0.14-0.25-0.19c-0.22-0.19-0.42-0.4-0.61-0.62
			c-0.05-0.06-0.1-0.13-0.13-0.17c-0.13-0.18-0.24-0.37-0.35-0.57c4.04-2.76,7.76-5.98,11.04-9.62c4.03-4.47,7.66-9.68,9.89-15.29
			c1.81-4.57,1.3-10.42-3.81-12.41c-2.29-0.89-4.88-0.16-7.01,0.76c-2.9,1.26-5.35,3.67-7.33,6.07c-2.57,3.12-4.36,6.79-5.86,10.53
			c-1.61,4.01-2.68,8.24-3.06,12.55c-0.15,1.65-0.15,3.42,0.09,5.14c-1.95,1.15-3.96,2.19-6.04,3.09c-0.13,0.05-0.67,0.28-0.84,0.34
			c-0.26,0.1-0.53,0.2-0.79,0.3c-0.23,0.08-0.47,0.17-0.7,0.24c-0.49,0.15-0.99,0.28-1.49,0.4c-0.23,0.05-0.47,0.1-0.71,0.14
			c-0.05,0.01-0.32,0.05-0.42,0.07c-0.79,0.09-1.58,0.1-2.37,0.03c-0.02,0-0.04-0.01-0.06-0.01c-0.17-0.03-0.34-0.07-0.51-0.11
			c-0.23-0.05-0.45-0.13-0.67-0.2c0.07,0.01-0.51-0.25-0.66-0.33c-0.13-0.08-0.25-0.16-0.38-0.24c-0.03-0.02-0.05-0.05-0.09-0.08
			c-0.23-0.2-0.44-0.43-0.65-0.66c-0.01-0.01-0.03-0.03-0.05-0.06c-0.07-0.1-0.14-0.19-0.2-0.29c-0.18-0.27-0.33-0.55-0.48-0.83
			c-0.03-0.06-0.05-0.11-0.08-0.17c-0.04-0.09-0.15-0.35-0.18-0.44c-0.02-0.05-0.03-0.1-0.05-0.15c6.67-4.19,12.32-9.86,16.46-16.66
			c2.83-4.64,6.19-10.97,3.39-16.36c-2.53-4.88-8.76-3.75-12.55-1.29c-7.01,4.56-10.51,12.77-12.24,20.64
			c-0.72,3.28-1.32,7.33-0.95,11.13c-1.19,0.64-2.42,1.19-3.66,1.73c-1.29,0.56-1.58,2.43-0.93,3.54c0.77,1.32,2.25,1.49,3.54,0.93
			c0.78-0.34,1.56-0.71,2.32-1.08c0.62,1.38,1.47,2.63,2.63,3.68c3.41,3.1,8.23,2.91,12.39,1.67c3-0.93,5.91-2.32,8.67-3.92
			c0.11,0.19,0.23,0.37,0.35,0.55c2.43,3.52,6.48,4.59,10.57,4.25c4.82-0.41,9.41-2.28,13.59-4.67
			C767.61,88.49,770.39,90.06,773.87,90.41z M721.77,72.21c0.03-0.18,0.05-0.35,0.08-0.53c0.07-0.44,0.15-0.87,0.23-1.3
			c0.18-0.95,0.39-1.88,0.63-2.82c0.45-1.76,1.01-3.49,1.65-5.18c0.13-0.33,0.26-0.66,0.4-0.99c0.01-0.01,0.31-0.71,0.38-0.84
			c0.34-0.75,0.72-1.48,1.12-2.2c0.33-0.6,0.69-1.19,1.08-1.76c0.1-0.15,0.21-0.31,0.32-0.46c-0.02,0.04,0.41-0.52,0.4-0.5
			c0.38-0.46,0.78-0.89,1.18-1.33c1.79-1.91,3.89-3.53,6.23-4.01c0.02,0,0.04-0.01,0.06-0.01c0.04,0,0.1,0,0.19-0.01
			c0.22-0.01,0.44-0.01,0.66,0c0,0,0,0,0.01,0c0.03,0.01,0.07,0.02,0.12,0.03c0.11,0.02,0.22,0.06,0.33,0.09
			c-0.16-0.05,0.21,0.11,0.31,0.16c0.02,0.01,0.03,0.02,0.04,0.03c0.01,0.01,0.02,0.02,0.03,0.03c0.05,0.04,0.18,0.19,0.24,0.26
			c0.06,0.09,0.11,0.17,0.16,0.26c0.01,0.04,0.14,0.32,0.17,0.39c0.07,0.22,0.12,0.44,0.16,0.66c0,0.02,0.01,0.04,0.01,0.05
			c0,0.04,0,0.11,0.01,0.22c0.02,0.26,0.01,0.52,0.01,0.78c-0.02,1.1-0.39,2.32-0.87,3.59c-1.11,2.97-2.96,5.82-4.77,8.41
			c-1.67,2.39-3.64,4.57-5.75,6.57c-1.58,1.5-3.29,2.86-5.08,4.1c0.02-1.14,0.11-2.27,0.24-3.4
			C721.74,72.47,721.76,72.32,721.77,72.21z M723.1,83.27C723.07,83.24,723.06,83.22,723.1,83.27L723.1,83.27z M744.78,74.93
			c0.02-0.18,0.04-0.36,0.06-0.54c0,0.05,0.09-0.61,0.1-0.69c0.33-2.08,0.85-4.12,1.48-6.12c1.18-3.76,2.56-6.92,4.86-10.39
			c0.22-0.33,0.45-0.66,0.69-0.98c0.02-0.03,0.04-0.06,0.06-0.08c0.23-0.29,0.46-0.56,0.7-0.84c1.04-1.22,2.2-2.39,3.51-3.32
			c1-0.71,1.91-1.18,2.85-1.46c0.24-0.07,0.49-0.13,0.74-0.18c0.03-0.01,0.05-0.01,0.08-0.02c0.04,0,0.09,0,0.17-0.01
			c0.22-0.02,0.44-0.01,0.66,0c0.04,0,0.07,0,0.09,0c0.05,0.01,0.12,0.04,0.24,0.07c0.06,0.01,0.23,0.08,0.32,0.11
			c0.1,0.05,0.19,0.11,0.29,0.17c0.02,0.02,0.04,0.04,0.08,0.07c0.05,0.04,0.16,0.18,0.22,0.25c0.07,0.1,0.13,0.21,0.19,0.32
			c0.01,0.02,0.02,0.04,0.03,0.06c0.01,0.03,0.02,0.05,0.03,0.09c0.07,0.21,0.12,0.42,0.17,0.64c0.01,0.06,0.02,0.1,0.03,0.14
			c0.01,0.12,0.02,0.23,0.03,0.35c0.13,2.31-1.11,4.79-2.35,7.05c-3.84,7.02-9.2,12.97-15.45,17.61c0-0.29,0.01-0.59,0.03-0.88
			C744.7,75.86,744.74,75.39,744.78,74.93z M769.06,76.1c0.03-0.47,0.07-0.94,0.12-1.41c0-0.04,0.04-0.37,0.05-0.46
			c0.03-0.18,0.05-0.36,0.08-0.53c0.17-1.07,0.39-2.13,0.65-3.18c0.5-2.06,1.16-4.08,1.93-6.06c0.09-0.23,0.19-0.47,0.28-0.7
			c0.03-0.06,0.05-0.11,0.06-0.15c0.02-0.04,0.04-0.08,0.07-0.15c0.19-0.45,0.4-0.9,0.61-1.34c0.43-0.92,0.9-1.83,1.39-2.72
			c0.42-0.76,0.88-1.5,1.35-2.22c0.22-0.33,0.45-0.66,0.69-0.98c0.02-0.03,0.04-0.06,0.06-0.08c0.32-0.41,0.66-0.8,1-1.19
			c1.74-1.98,3.99-3.89,6.25-4.48c0.05-0.01,0.39-0.07,0.46-0.09c0.15-0.01,0.3-0.01,0.45-0.02c0.06,0,0.26,0.02,0.36,0.03
			c0.12,0.03,0.24,0.06,0.36,0.1c0.01,0,0.02,0.01,0.03,0.01c0.02,0.01,0.04,0.02,0.06,0.03c0.06,0.03,0.22,0.14,0.3,0.19
			c0.08,0.07,0.15,0.15,0.23,0.23c0,0.01,0.01,0.01,0.01,0.01c0.06,0.09,0.11,0.17,0.17,0.26c0.03,0.05,0.13,0.26,0.17,0.34
			c0.05,0.15,0.09,0.29,0.13,0.44c0.05,0.2,0.09,0.4,0.12,0.6c-0.07-0.35,0.01,0.37,0.02,0.42c0.06,1.29-0.16,2.19-0.56,3.53
			c-0.65,2.19-1.83,4.21-3.05,6.13c-2.77,4.36-6.35,8.21-10.25,11.71c-1.17,1.05-2.39,2.06-3.65,3.02
			C769.03,76.97,769.04,76.54,769.06,76.1z"/>
		<path class="st2" d="M656.61,43.71c4.05,0,7.33-3.28,7.33-7.33c0-4.05-3.28-7.33-7.33-7.33c-4.05,0-7.33,3.28-7.33,7.33
			C649.28,40.43,652.56,43.71,656.61,43.71z"/>
		<path class="st2" d="M639.33,45.16h-7.65c0-0.26,0-0.51,0-0.77v-9.92c0,0,0.25-2.79-2.72-1.75c-2.97,1.03-9.8,3.02-9.8,3.02
			s-1.59,0.23-1.59,2.29c0,1.74,0.02,2.75,0.05,7.14H614c-0.55,0-0.99,0.44-0.99,0.99v10c0,0.55,0.44,0.99,0.99,0.99h3.67
			c0.01,5.32,0.02,12.36,0.02,21.79c0,0-0.89,17.66,21.41,8.96c0,0,1.12-0.61,1.21-1.58v-9.68c0,0,0.01-1.48-1.37-0.82
			c0,0-7.26,3.31-7.26-1.43c0-3.8,0-3.99,0-17.24h7.65c0.55,0,0.99-0.44,0.99-0.99v-10C640.32,45.6,639.88,45.16,639.33,45.16z"/>
		<path class="st2" d="M694.29,45.16c-2.39,0-4.68,0.49-6.8,1.38v-0.42c0-0.55-0.44-0.99-0.99-0.99h-16.87
			c-0.55,0-0.99,0.44-0.99,0.99v10c0,0.55,0.44,0.99,0.99,0.99h3.21v38.83h-3.21c-0.55,0-0.99,0.44-0.99,0.99v10
			c0,0.55,0.44,0.99,0.99,0.99h21c0.55,0,0.99-0.44,0.99-0.99v-10c0-0.55-0.44-0.99-0.99-0.99h-3.14v-7.01
			c2.12,0.89,4.41,1.38,6.8,1.38c10.9,0,19.73-10.11,19.73-22.57S705.19,45.16,694.29,45.16z M694.51,78.6
			c-3.91-0.02-7.05-4.9-7.02-10.9c0.03-6,3.21-10.85,7.12-10.84c3.91,0.02,7.05,4.9,7.02,10.9
			C701.61,73.76,698.42,78.62,694.51,78.6z"/>
		<path class="st2" d="M773.41,102.61c-1.64,0-2.53,1.41-2.53,2.56c0,1.19,1.05,2.42,2.53,2.42c1.68,0,2.58-1.08,2.58-2.42
			C775.99,104.02,775.05,102.61,773.41,102.61z"/>
		<path class="st2" d="M783.32,104.52c-1.43-0.02-2.31-1.19-2.31-2.64c0-1.46,0.65-2.87,1.97-2.87c1.03,0,1.37,1.28,1.41,2.35h3.3
			v-5.07h-2.65l-0.38,1.08c-0.38-0.45-1.28-1.28-2.8-1.28c-2.87,0-5.51,1.77-5.51,5.74c0,3.99,2.87,5.98,6.16,5.98
			c2.42,0,4.44-1.14,5.49-2.29l-1.97-2.29C785.29,104.04,784.51,104.54,783.32,104.52z"/>
		<path class="st2" d="M794.61,96.02c-3.09,0-6.12,2.08-6.14,5.83c-0.05,3.97,3.05,5.94,6.25,5.94c3.41,0,6.16-2.13,6.12-5.85
			C800.78,98.19,798.16,96.06,794.61,96.02z M794.73,104.92c-0.94,0-1.66-1.21-1.66-3.05c0-1.64,0.67-2.94,1.55-2.94
			c1.05,0.02,1.64,1.32,1.64,3C796.25,103.62,795.69,104.92,794.73,104.92z"/>
		<path class="st2" d="M820.01,101.38c0-2.73-0.56-5.38-4.19-5.38c-1.55,0-2.6,0.83-3.29,1.61c-0.36-0.54-1.08-1.61-3.34-1.61
			c-1.41,0-2.44,1.21-2.8,1.64l-0.49-1.32h-4.24v2.96h0.94v5.29h-0.94v2.94h6.66v-2.94h-1.34v-3.99c0-0.92,0.29-1.34,1.01-1.34
			c0.9,0,0.94,0.74,0.94,2.56v5.72h5.81v-3h-1.34v-3.63c0-0.96,0.22-1.64,1.19-1.64c1.05,0,0.85,1.7,0.85,2.78v5.49h5.69v-3.03h-1.1
			V101.38z"/>
	</g>
	<g>
		<path class="st1" d="M202.96,62.8c-0.1-0.1-0.38-0.29-0.83-0.56c-0.45-0.28-1.01-0.56-1.69-0.86c-0.68-0.3-1.42-0.56-2.22-0.79
			c-0.8-0.23-1.6-0.34-2.4-0.34c-1.05,0-1.86,0.19-2.42,0.56c-0.56,0.38-0.84,0.93-0.84,1.65c0,0.45,0.12,0.83,0.38,1.13
			c0.25,0.3,0.61,0.57,1.07,0.81c0.46,0.24,1.04,0.46,1.73,0.66c0.69,0.2,1.48,0.43,2.38,0.68c1.28,0.35,2.43,0.73,3.46,1.15
			c1.03,0.41,1.9,0.93,2.63,1.54c0.73,0.61,1.28,1.36,1.67,2.24c0.39,0.88,0.58,1.93,0.58,3.16c0,1.5-0.28,2.77-0.85,3.81
			c-0.56,1.04-1.31,1.88-2.23,2.52c-0.93,0.64-2,1.1-3.21,1.39s-2.46,0.43-3.74,0.43c-0.98,0-1.97-0.07-2.99-0.23
			s-2.01-0.37-2.99-0.66c-0.98-0.29-1.93-0.63-2.86-1.03c-0.93-0.4-1.78-0.86-2.55-1.39l2.7-5.37c0.12,0.13,0.46,0.36,1.01,0.71
			c0.55,0.35,1.23,0.7,2.03,1.05c0.8,0.35,1.7,0.66,2.7,0.94c1,0.28,2.02,0.41,3.04,0.41c2.18,0,3.27-0.66,3.27-1.99
			c0-0.5-0.16-0.91-0.49-1.24c-0.33-0.33-0.78-0.62-1.35-0.88c-0.58-0.26-1.25-0.51-2.03-0.73c-0.78-0.23-1.63-0.48-2.55-0.75
			c-1.23-0.38-2.29-0.78-3.19-1.22c-0.9-0.44-1.65-0.94-2.25-1.52c-0.6-0.58-1.05-1.24-1.33-1.99c-0.29-0.75-0.43-1.63-0.43-2.63
			c0-1.4,0.26-2.64,0.79-3.72c0.53-1.08,1.24-1.98,2.14-2.72c0.9-0.74,1.95-1.3,3.14-1.67s2.45-0.56,3.78-0.56
			c0.95,0,1.88,0.09,2.78,0.26c0.9,0.18,1.76,0.4,2.57,0.68c0.81,0.28,1.58,0.59,2.31,0.94c0.73,0.35,1.38,0.7,1.95,1.05
			L202.96,62.8z"/>
		<path class="st1" d="M218.96,82.03c-1.68,0-3.17-0.28-4.49-0.83c-1.32-0.55-2.42-1.3-3.33-2.24c-0.9-0.94-1.58-2.03-2.05-3.27
			c-0.46-1.24-0.7-2.54-0.7-3.89s0.23-2.65,0.7-3.89c0.46-1.24,1.15-2.33,2.05-3.27c0.9-0.94,2.01-1.69,3.33-2.25
			c1.31-0.56,2.81-0.85,4.49-0.85s3.17,0.28,4.47,0.85c1.3,0.56,2.4,1.31,3.3,2.25c0.9,0.94,1.59,2.03,2.07,3.27
			s0.71,2.54,0.71,3.89s-0.23,2.65-0.69,3.89c-0.46,1.24-1.15,2.33-2.05,3.27s-2.01,1.68-3.33,2.24
			C222.14,81.76,220.64,82.03,218.96,82.03z M214.57,71.81c0,1.55,0.41,2.8,1.24,3.74s1.88,1.41,3.16,1.41
			c0.62,0,1.2-0.12,1.73-0.38c0.53-0.25,0.98-0.6,1.37-1.05c0.39-0.45,0.69-1,0.92-1.63c0.22-0.64,0.34-1.33,0.34-2.08
			c0-1.55-0.41-2.8-1.24-3.74c-0.83-0.94-1.87-1.41-3.12-1.41c-0.63,0-1.21,0.13-1.75,0.38c-0.54,0.25-1,0.6-1.39,1.05
			c-0.39,0.45-0.7,1-0.92,1.63S214.57,71.06,214.57,71.81z"/>
		<path class="st1" d="M238.42,82.03c-2,0-3.53-0.63-4.58-1.9c-1.05-1.26-1.58-3.12-1.58-5.58V61.93h6.01v11.31
			c0,1.2,0.24,2.12,0.71,2.76s1.15,0.96,2.03,0.96c0.8,0,1.58-0.21,2.33-0.64c0.75-0.43,1.41-1.16,1.99-2.22V61.93h6.01v12.96
			c0,0.6,0.11,1.02,0.34,1.26c0.22,0.24,0.62,0.38,1.2,0.43v5.07c-0.63,0.12-1.17,0.21-1.63,0.24c-0.46,0.04-0.87,0.06-1.22,0.06
			c-2.1-0.02-3.32-0.86-3.64-2.52l-0.11-1.2c-0.9,1.3-2.02,2.26-3.36,2.87C241.57,81.73,240.08,82.03,238.42,82.03z"/>
		<path class="st1" d="M268.78,80.6c-0.83,0.35-1.77,0.68-2.82,0.98c-1.05,0.3-2.13,0.45-3.23,0.45c-0.75,0-1.46-0.09-2.12-0.28
			c-0.66-0.19-1.25-0.49-1.75-0.9s-0.9-0.96-1.18-1.63s-0.43-1.49-0.43-2.44V66.48h-2.52v-4.55h2.52v-6.27h6.01v6.27h4.02v4.55
			h-4.02v8.23c0,0.65,0.17,1.12,0.51,1.41c0.34,0.29,0.76,0.43,1.26,0.43c0.43,0,0.88-0.08,1.35-0.23c0.48-0.15,0.9-0.31,1.28-0.49
			L268.78,80.6z"/>
		<path class="st1" d="M280.54,82.03c-1.65,0-3.14-0.27-4.45-0.81c-1.31-0.54-2.43-1.27-3.34-2.2c-0.91-0.93-1.61-2-2.08-3.21
			c-0.48-1.21-0.71-2.48-0.71-3.81c0-1.43,0.24-2.77,0.71-4.04c0.48-1.26,1.17-2.37,2.07-3.32c0.9-0.95,2.01-1.7,3.33-2.25
			c1.31-0.55,2.81-0.83,4.49-0.83s3.17,0.28,4.47,0.83c1.3,0.55,2.4,1.3,3.31,2.24c0.9,0.94,1.58,2.02,2.05,3.25
			c0.46,1.23,0.69,2.52,0.69,3.87c0,0.35-0.01,0.69-0.04,1.03c-0.02,0.34-0.06,0.63-0.11,0.88h-14.58c0.1,1.33,0.58,2.34,1.45,3.02
			c0.86,0.69,1.85,1.03,2.95,1.03c0.88,0,1.72-0.21,2.54-0.64c0.81-0.43,1.36-1,1.63-1.73l5.11,1.43c-0.78,1.55-1.98,2.82-3.61,3.79
			S282.81,82.03,280.54,82.03z M284.71,69.94c-0.12-1.25-0.58-2.24-1.35-2.97c-0.78-0.73-1.74-1.09-2.89-1.09
			c-1.18,0-2.15,0.37-2.91,1.11s-1.21,1.72-1.33,2.95H284.71z"/>
		<path class="st1" d="M312.8,81.66h-6.01V70.57c0-1.3-0.24-2.25-0.73-2.84c-0.49-0.59-1.13-0.88-1.93-0.88
			c-0.43,0-0.86,0.09-1.3,0.26c-0.44,0.18-0.85,0.42-1.24,0.73c-0.39,0.31-0.75,0.68-1.07,1.11c-0.33,0.43-0.58,0.89-0.75,1.39
			v11.31h-6.01V61.93h5.41v3.31c0.73-1.18,1.75-2.08,3.08-2.72c1.33-0.64,2.86-0.96,4.58-0.96c1.28,0,2.31,0.23,3.1,0.7
			c0.79,0.46,1.4,1.06,1.82,1.8s0.71,1.55,0.85,2.42c0.14,0.88,0.21,1.73,0.21,2.55V81.66z"/>
		<path class="st1" d="M326.18,82.03c-1.65,0-3.14-0.27-4.45-0.81c-1.31-0.54-2.43-1.27-3.34-2.2c-0.92-0.93-1.61-2-2.09-3.21
			c-0.48-1.21-0.71-2.48-0.71-3.81c0-1.43,0.24-2.77,0.71-4.04c0.48-1.26,1.17-2.37,2.07-3.32c0.9-0.95,2.01-1.7,3.33-2.25
			c1.31-0.55,2.81-0.83,4.49-0.83c1.68,0,3.17,0.28,4.47,0.83c1.3,0.55,2.4,1.3,3.3,2.24c0.9,0.94,1.58,2.02,2.05,3.25
			s0.69,2.52,0.69,3.87c0,0.35-0.01,0.69-0.04,1.03c-0.03,0.34-0.06,0.63-0.11,0.88h-14.58c0.1,1.33,0.58,2.34,1.45,3.02
			c0.86,0.69,1.85,1.03,2.95,1.03c0.88,0,1.72-0.21,2.54-0.64c0.81-0.43,1.36-1,1.63-1.73l5.11,1.43c-0.78,1.55-1.98,2.82-3.61,3.79
			C330.41,81.54,328.46,82.03,326.18,82.03z M330.35,69.94c-0.13-1.25-0.58-2.24-1.35-2.97c-0.78-0.73-1.74-1.09-2.89-1.09
			c-1.18,0-2.15,0.37-2.91,1.11c-0.76,0.74-1.21,1.72-1.33,2.95H330.35z"/>
		<path class="st1" d="M337.97,78.05l10.07-11.95h-9.54v-4.17h15.85v3.61l-10.03,11.95h10.26v4.17h-16.6V78.05z"/>
		<path class="st1" d="M366.33,54.23h6.01v20.06c0,1.5,0.65,2.25,1.95,2.25c0.28,0,0.59-0.05,0.96-0.15c0.36-0.1,0.69-0.23,1-0.38
			l0.79,4.85c-0.75,0.35-1.62,0.63-2.59,0.83s-1.88,0.3-2.71,0.3c-1.73,0-3.06-0.45-4-1.35c-0.94-0.9-1.41-2.2-1.41-3.91V54.23z"/>
		<path class="st1" d="M384.74,82.03c-0.98,0-1.88-0.16-2.72-0.47c-0.84-0.31-1.56-0.75-2.16-1.31s-1.08-1.23-1.43-1.99
			c-0.35-0.76-0.53-1.6-0.53-2.5c0-0.98,0.21-1.87,0.62-2.67c0.41-0.8,1-1.49,1.75-2.07c0.75-0.58,1.64-1.03,2.67-1.35
			c1.03-0.32,2.17-0.49,3.42-0.49c0.83,0,1.63,0.07,2.4,0.21c0.78,0.14,1.45,0.34,2.03,0.62v-0.9c0-2.28-1.32-3.42-3.95-3.42
			c-1.08,0-2.1,0.18-3.08,0.54c-0.98,0.36-2,0.91-3.08,1.63l-1.77-3.76c1.3-0.85,2.65-1.49,4.06-1.92c1.4-0.43,2.89-0.64,4.47-0.64
			c2.98,0,5.28,0.7,6.91,2.1c1.63,1.4,2.44,3.46,2.44,6.16v5.07c0,0.6,0.11,1.02,0.34,1.26c0.23,0.24,0.63,0.38,1.2,0.43v5.07
			c-0.58,0.12-1.11,0.21-1.6,0.24s-0.92,0.06-1.29,0.06c-1.1-0.02-1.94-0.25-2.52-0.68c-0.58-0.43-0.94-1.04-1.09-1.84l-0.11-0.9
			c-0.88,1.13-1.92,1.99-3.14,2.59C387.38,81.73,386.09,82.03,384.74,82.03z M386.51,77.71c0.65,0,1.28-0.11,1.9-0.34
			c0.61-0.23,1.12-0.53,1.52-0.9c0.58-0.45,0.87-0.93,0.87-1.43v-1.88c-0.53-0.2-1.1-0.36-1.71-0.47c-0.61-0.11-1.18-0.17-1.71-0.17
			c-1.1,0-2.01,0.25-2.72,0.75c-0.71,0.5-1.07,1.15-1.07,1.95c0,0.73,0.28,1.32,0.83,1.78C384.96,77.48,385.66,77.71,386.51,77.71z"
			/>
		<path class="st1" d="M408.9,71.78c0-1.35,0.24-2.65,0.71-3.89s1.17-2.33,2.07-3.27c0.9-0.94,2.01-1.68,3.33-2.24
			c1.31-0.55,2.81-0.83,4.49-0.83c2.28,0,4.2,0.48,5.75,1.45c1.55,0.96,2.72,2.22,3.49,3.78l-5.86,1.77
			c-0.78-1.25-1.92-1.88-3.42-1.88c-1.25,0-2.3,0.46-3.14,1.39c-0.84,0.93-1.26,2.17-1.26,3.72c0,0.78,0.11,1.48,0.34,2.12
			s0.54,1.18,0.94,1.63c0.4,0.45,0.87,0.8,1.41,1.05c0.54,0.25,1.11,0.38,1.71,0.38c0.75,0,1.44-0.18,2.07-0.54
			c0.62-0.36,1.09-0.83,1.39-1.41l5.86,1.8c-0.73,1.53-1.88,2.78-3.47,3.76c-1.59,0.98-3.53,1.46-5.8,1.46
			c-1.65,0-3.14-0.28-4.45-0.85s-2.43-1.31-3.34-2.25c-0.91-0.94-1.61-2.03-2.08-3.27S408.9,73.13,408.9,71.78z"/>
		<path class="st1" d="M450.48,81.66h-6.01V70.57c0-1.28-0.26-2.22-0.77-2.82s-1.21-0.9-2.08-0.9c-0.35,0-0.73,0.08-1.15,0.24
			c-0.41,0.16-0.81,0.4-1.2,0.71c-0.39,0.31-0.75,0.68-1.07,1.11c-0.33,0.43-0.58,0.9-0.75,1.43v11.31h-6.01V54.23h6.01v11.01
			c0.73-1.18,1.68-2.08,2.87-2.72s2.51-0.96,3.96-0.96c1.33,0,2.4,0.23,3.21,0.7c0.81,0.46,1.44,1.05,1.88,1.77
			c0.44,0.71,0.73,1.52,0.88,2.4c0.15,0.89,0.23,1.76,0.23,2.61V81.66z"/>
		<path class="st1" d="M460.02,82.03c-0.98,0-1.88-0.16-2.72-0.47c-0.84-0.31-1.56-0.75-2.16-1.31c-0.6-0.56-1.08-1.23-1.43-1.99
			c-0.35-0.76-0.53-1.6-0.53-2.5c0-0.98,0.21-1.87,0.62-2.67c0.41-0.8,1-1.49,1.75-2.07c0.75-0.58,1.64-1.03,2.67-1.35
			c1.03-0.32,2.17-0.49,3.42-0.49c0.83,0,1.63,0.07,2.4,0.21c0.78,0.14,1.45,0.34,2.03,0.62v-0.9c0-2.28-1.32-3.42-3.94-3.42
			c-1.08,0-2.1,0.18-3.08,0.54c-0.98,0.36-2,0.91-3.08,1.63l-1.77-3.76c1.3-0.85,2.65-1.49,4.06-1.92c1.4-0.43,2.89-0.64,4.47-0.64
			c2.98,0,5.28,0.7,6.91,2.1c1.63,1.4,2.44,3.46,2.44,6.16v5.07c0,0.6,0.11,1.02,0.34,1.26c0.23,0.24,0.63,0.38,1.2,0.43v5.07
			c-0.58,0.12-1.11,0.21-1.6,0.24s-0.92,0.06-1.3,0.06c-1.1-0.02-1.94-0.25-2.52-0.68c-0.58-0.43-0.94-1.04-1.09-1.84l-0.11-0.9
			c-0.88,1.13-1.92,1.99-3.14,2.59S461.38,82.03,460.02,82.03z M461.79,77.71c0.65,0,1.28-0.11,1.9-0.34
			c0.61-0.23,1.12-0.53,1.52-0.9c0.58-0.45,0.86-0.93,0.86-1.43v-1.88c-0.53-0.2-1.1-0.36-1.71-0.47c-0.61-0.11-1.18-0.17-1.71-0.17
			c-1.1,0-2.01,0.25-2.72,0.75c-0.71,0.5-1.07,1.15-1.07,1.95c0,0.73,0.28,1.32,0.83,1.78C460.24,77.48,460.94,77.71,461.79,77.71z"
			/>
		<path class="st1" d="M473.29,58.29l4.13-4.06h4.32l4.09,4.06l-3.08,1.35l-3.19-2.37l-3.19,2.37L473.29,58.29z M476.55,81.66V61.93
			h6.01v19.72H476.55z"/>
		<path class="st1" d="M505.67,81.66h-6.01V70.57c0-1.3-0.24-2.25-0.73-2.84c-0.49-0.59-1.13-0.88-1.93-0.88
			c-0.43,0-0.86,0.09-1.3,0.26c-0.44,0.18-0.85,0.42-1.24,0.73c-0.39,0.31-0.75,0.68-1.07,1.11s-0.58,0.89-0.75,1.39v11.31h-6.01
			V61.93h5.41v3.31c0.73-1.18,1.75-2.08,3.08-2.72c1.33-0.64,2.86-0.96,4.58-0.96c1.28,0,2.31,0.23,3.1,0.7s1.4,1.06,1.82,1.8
			s0.71,1.55,0.85,2.42c0.14,0.88,0.21,1.73,0.21,2.55V81.66z"/>
		<path class="st1" d="M519.04,82.03c-1.65,0-3.14-0.27-4.45-0.81c-1.32-0.54-2.43-1.27-3.34-2.2c-0.91-0.93-1.61-2-2.08-3.21
			c-0.48-1.21-0.71-2.48-0.71-3.81c0-1.43,0.24-2.77,0.71-4.04c0.48-1.26,1.17-2.37,2.07-3.32c0.9-0.95,2.01-1.7,3.32-2.25
			c1.32-0.55,2.81-0.83,4.49-0.83s3.17,0.28,4.47,0.83c1.3,0.55,2.4,1.3,3.31,2.24c0.9,0.94,1.58,2.02,2.05,3.25
			c0.46,1.23,0.69,2.52,0.69,3.87c0,0.35-0.01,0.69-0.04,1.03c-0.03,0.34-0.06,0.63-0.11,0.88h-14.58c0.1,1.33,0.58,2.34,1.45,3.02
			c0.86,0.69,1.85,1.03,2.95,1.03c0.88,0,1.72-0.21,2.54-0.64c0.81-0.43,1.36-1,1.63-1.73l5.11,1.43c-0.78,1.55-1.98,2.82-3.61,3.79
			S521.32,82.03,519.04,82.03z M523.21,69.94c-0.13-1.25-0.58-2.24-1.35-2.97c-0.78-0.73-1.74-1.09-2.89-1.09
			c-1.18,0-2.15,0.37-2.91,1.11c-0.76,0.74-1.21,1.72-1.33,2.95H523.21z"/>
		<path class="st1" d="M549.28,82.03c-0.83,0-1.68-0.06-2.57-0.19c-0.89-0.13-1.77-0.29-2.65-0.51c-0.88-0.21-1.72-0.48-2.52-0.79
			c-0.8-0.31-1.5-0.66-2.1-1.03l2.37-4.06c1.3,0.75,2.57,1.33,3.79,1.73c1.23,0.4,2.4,0.6,3.53,0.6c0.88,0,1.55-0.14,2.01-0.41
			c0.46-0.27,0.7-0.68,0.7-1.2s-0.31-0.93-0.94-1.22c-0.63-0.29-1.7-0.63-3.23-1.03c-1.33-0.35-2.46-0.7-3.38-1.05
			c-0.93-0.35-1.67-0.74-2.24-1.18c-0.56-0.44-0.97-0.93-1.22-1.48c-0.25-0.55-0.38-1.2-0.38-1.95c0-1,0.21-1.92,0.62-2.74
			c0.41-0.83,0.98-1.53,1.71-2.1c0.73-0.58,1.58-1.03,2.57-1.35c0.99-0.33,2.07-0.49,3.25-0.49c1.38,0,2.79,0.21,4.23,0.62
			s2.85,0.98,4.23,1.71l-2.37,3.79c-1.23-0.68-2.32-1.17-3.29-1.48c-0.96-0.31-1.9-0.47-2.8-0.47c-0.75,0-1.37,0.13-1.86,0.39
			c-0.49,0.26-0.73,0.68-0.73,1.26c0,0.28,0.06,0.51,0.19,0.7c0.12,0.19,0.33,0.36,0.62,0.53c0.29,0.16,0.67,0.31,1.15,0.45
			c0.48,0.14,1.06,0.29,1.77,0.47c1.45,0.38,2.68,0.75,3.68,1.13c1,0.38,1.82,0.8,2.44,1.26c0.63,0.46,1.08,1,1.35,1.6
			c0.28,0.6,0.41,1.31,0.41,2.14c0,0.98-0.19,1.86-0.58,2.65c-0.39,0.79-0.95,1.46-1.67,2.01c-0.73,0.55-1.6,0.98-2.63,1.28
			C551.71,81.88,550.56,82.03,549.28,82.03z"/>
		<path class="st1" d="M566.45,82.03c-2,0-3.53-0.63-4.58-1.9c-1.05-1.26-1.58-3.12-1.58-5.58V61.93h6.01v11.31
			c0,1.2,0.24,2.12,0.71,2.76s1.15,0.96,2.03,0.96c0.8,0,1.58-0.21,2.33-0.64c0.75-0.43,1.42-1.16,1.99-2.22V61.93h6.01v12.96
			c0,0.6,0.11,1.02,0.34,1.26c0.23,0.24,0.63,0.38,1.2,0.43v5.07c-0.63,0.12-1.17,0.21-1.63,0.24c-0.46,0.04-0.87,0.06-1.22,0.06
			c-2.1-0.02-3.32-0.86-3.64-2.52l-0.11-1.2c-0.9,1.3-2.02,2.26-3.36,2.87C569.6,81.73,568.1,82.03,566.45,82.03z"/>
		<path class="st1" d="M596.73,67.08c-1.45,0.03-2.76,0.26-3.93,0.71c-1.16,0.45-2.02,1.13-2.57,2.03v11.83h-6.01V61.93h5.52v3.98
			c0.7-1.33,1.58-2.36,2.65-3.1s2.2-1.13,3.4-1.18c0.5,0,0.81,0.01,0.94,0.04V67.08z"/>
	</g>
	<g id="Calque_5_7_">
		<g>
			<path class="st2" d="M140.13,85.59l-96.08,18.74c-5.67,1.1-11.16-2.6-12.28-8.27l-9.22-47.29c-1.1-5.67,2.6-11.16,8.27-12.28
				l96.08-18.73c5.67-1.1,11.16,2.6,12.28,8.27l9.23,47.29C149.5,78.99,145.8,84.48,140.13,85.59z"/>
			<g>
				<path class="st0" d="M42.73,56.66l-0.96-4.94l9.28-5.1l1.59,8.11l5.11-0.99l1.37,6.99L54,61.72l1.87,9.57
					c0.36,1.83,0.47,4.37,2.56,3.96c0.7-0.14,2.27-0.95,3.22-1.57l1.34,6.88c-1.49,0.96-5.07,2.05-6.31,2.28
					c-8.07,1.57-9.2-2.78-10.69-9.64l-1.87-9.57l-2.91,0.56l-1.37-6.99L42.73,56.66z"/>
				<path class="st0" d="M67.44,79.75l-1.37-7.04l2.25-0.44l-2.5-12.85l-2.25,0.44l-1.37-6.99l12.46-2.44l3.87,19.83l2.58-0.5
					l1.37,7.04L67.44,79.75z M66.91,38.11c3.71-0.73,6.5,1.87,6.98,4.34c0.58,2.95-1.04,5.84-4.85,6.57
					c-3.39,0.65-6.36-1.71-6.87-4.29C61.69,42.25,63.15,38.84,66.91,38.11z"/>
				<path class="st0" d="M87.07,79.98l-4.62-23.65l-2.25,0.44l-1.4-7.15l12.31-2.39l1.27,1.69c0.87-0.95,2.83-2.95,6.06-3.57
					c8.39-1.63,13.94,3.98,15.43,11.61c1.66,8.55-2.63,14.86-9.56,16.21c-4.46,0.87-6.96-0.48-7.4-0.73l1.06,5.42l2.91-0.56
					l1.37,7.04l-16.07,3.14l-1.37-7.04L87.07,79.98z M97.17,53.47c-2.1,0.4-3.51,3.42-2.47,7.63c0.71,3.65,3.09,6.09,5.13,5.69
					c2.25-0.44,3.31-3.37,2.5-7.46C101.71,56.1,99.55,53,97.17,53.47z"/>
				<path class="st0" d="M122.46,57.4c3.82-0.75,6.92,1.38,7.51,4.44c0.59,3.02-1.4,6.01-5.32,6.79c-3.5,0.68-6.67-1.55-7.21-4.34
					C116.92,61.61,118.59,58.16,122.46,57.4z M111.41,32.16l12.85-2.5l1.99,10.21l-0.2,14.1l-7.1,1.38l-5.55-12.98L111.41,32.16z"/>
			</g>
			<g>
				<path id="path4109_8_" class="st0" d="M114.05,75.48c0.19,0.62,0.39,1.24,0.58,1.87l0.08,0.26l-0.26,0.09
					c-0.61,0.22-1.23,0.42-1.85,0.64c1.99,6.29,4.04,12.59,6.06,18.87l0.09,0.26l-0.26,0.09c-0.51,0.17-1.04,0.34-1.57,0.53
					l-0.28,0.09l-0.09-0.28c-0.19-0.62-0.39-1.23-0.61-1.83c-2.14,0.67-4.27,1.35-6.4,2.07c0.68,2.13,1.37,4.26,2.05,6.37
					c0.62-0.19,1.26-0.36,1.87-0.61l0.34-0.14l0.06,0.36c0.11,0.64,0.37,1.24,0.58,1.87c0.61-0.16,1.2-0.34,1.79-0.53l0.25-0.08
					l0.11,0.25c0.53,1.29,0.9,2.61,1.35,3.93c0.62-0.17,1.24-0.36,1.87-0.56l0.26-0.08l0.09,0.26c0.44,1.32,0.85,2.63,1.31,3.95
					c0.62-0.19,1.26-0.36,1.86-0.59l0.31-0.12l0.08,0.33c0.33,1.35,0.84,2.66,1.26,3.98c0.61-0.19,1.21-0.37,1.82-0.56l0.26-0.09
					l0.09,0.26c0.68,2.02,1.32,4.07,2,6.09c3.53-1.09,7.06-2.21,10.57-3.34c3.59-1.17,7.21-2.28,10.77-3.54
					c-0.71-2-1.18-4.1-1.91-6.11l-0.11-0.3l0.3-0.09c0.61-0.17,1.21-0.39,1.8-0.59c-0.62-2.02-1.27-4.06-1.93-6.08l-0.08-0.25
					l0.23-0.11c0.59-0.25,1.21-0.47,1.83-0.65c-0.71-2.27-1.48-4.51-2.14-6.79l0,0l0,0c-0.95-2.69-1.77-5.42-2.67-8.14
					c-0.61,0.2-1.21,0.39-1.82,0.58l-0.26,0.08l-0.09-0.26c-0.2-0.59-0.4-1.2-0.59-1.8c-0.64,0.19-1.24,0.4-1.88,0.56l-0.25,0.06
					l-0.09-0.23c-0.25-0.61-0.42-1.24-0.64-1.88c-1.32,0.42-2.64,0.85-3.98,1.26l-0.26,0.08l-0.09-0.26c-0.2-0.59-0.4-1.2-0.59-1.8
					c-2.07,0.54-4.09,1.27-6.12,1.91l-0.26,0.08l-0.09-0.25c-0.23-0.61-0.44-1.23-0.64-1.85c-1.32,0.42-2.64,0.85-3.98,1.26
					l-0.26,0.08l-0.09-0.26c-0.9-2.74-1.77-5.47-2.66-8.21c-0.36,0.11-0.71,0.22-1.06,0.33c-0.26,0.08-0.53,0.17-0.79,0.26
					l-0.28,0.09l-0.09-0.28c-0.19-0.64-0.39-1.26-0.65-1.87C116.85,74.59,115.45,75.04,114.05,75.48L114.05,75.48z"/>
				<path id="path3016_8_" class="st3" d="M114.05,75.48c1.4-0.44,2.8-0.9,4.2-1.35c0.3,0.68,0.51,1.38,0.73,2.1
					c-1.41,0.47-2.84,0.92-4.26,1.38C114.48,76.91,114.27,76.19,114.05,75.48z"/>
				<path id="path3018_8_" class="st3" d="M112.6,78.34c0.7-0.23,1.41-0.45,2.11-0.71c2.52,7.82,5.05,15.65,7.55,23.47
					c-0.71,0.25-1.41,0.48-2.14,0.68c-0.23-0.7-0.47-1.4-0.68-2.1c-0.71,0.2-1.43,0.44-2.13,0.67c-0.25-0.71-0.5-1.43-0.7-2.14
					c0.7-0.25,1.41-0.47,2.11-0.71C116.69,91.1,114.62,84.72,112.6,78.34L112.6,78.34z"/>
				<path id="path3020_8_" class="st3" d="M118.99,76.27c0.7-0.23,1.41-0.47,2.11-0.68c0.92,2.83,1.82,5.66,2.75,8.49
					c1.43-0.42,2.83-0.89,4.24-1.34c0.23,0.7,0.45,1.41,0.71,2.1c2.13-0.65,4.24-1.41,6.4-1.99c0.22,0.7,0.44,1.38,0.68,2.07
					c1.43-0.44,2.83-0.9,4.26-1.35c0.23,0.7,0.42,1.43,0.73,2.11c0.73-0.17,1.41-0.44,2.13-0.64c0.22,0.7,0.44,1.38,0.68,2.07
					c0.7-0.22,1.4-0.44,2.1-0.67c0.9,2.7,1.73,5.46,2.67,8.14c0.65,2.28,1.43,4.54,2.14,6.81c-0.7,0.22-1.4,0.45-2.07,0.76
					c0.67,2.1,1.35,4.21,2,6.33c-0.7,0.25-1.38,0.5-2.1,0.68c-0.76-2.11-1.41-4.27-2.08-6.42c0.7-0.22,1.41-0.45,2.11-0.68
					c-1.6-4.97-3.2-9.95-4.79-14.92c-0.7,0.22-1.41,0.45-2.11,0.68c-0.26-0.68-0.44-1.38-0.71-2.07c-0.75,0.09-1.43,0.4-2.13,0.62
					c0.67,2.14,1.4,4.26,2.04,6.4c-0.7,0.23-1.4,0.45-2.08,0.67c-0.96-2.83-1.83-5.69-2.77-8.53c-1.43,0.45-2.86,0.92-4.27,1.38
					c0.68,2.13,1.4,4.26,2.05,6.4c-0.7,0.25-1.41,0.47-2.11,0.68c-0.93-2.84-1.85-5.69-2.74-8.53c-1.43,0.45-2.86,0.92-4.27,1.38
					c0.9,2.84,1.83,5.67,2.74,8.52c-0.71,0.25-1.43,0.48-2.14,0.68C123.1,89.06,121.04,82.67,118.99,76.27L118.99,76.27z"/>
				<path id="path3026_8_" class="st3" d="M109.54,98.14c2.13-0.71,4.26-1.4,6.4-2.07c0.25,0.7,0.48,1.4,0.68,2.11
					c-1.4,0.48-2.83,0.92-4.24,1.38c0.4,1.43,0.98,2.8,1.34,4.24c-0.68,0.31-1.41,0.48-2.14,0.7
					C110.89,102.39,110.23,100.27,109.54,98.14z"/>
				<path id="path3030_8_" class="st3" d="M113.8,103.84c0.65-0.33,1.37-0.51,2.05-0.71c0.25,0.7,0.48,1.41,0.7,2.13
					c0.71-0.22,1.43-0.45,2.14-0.67c0.47,1.41,0.92,2.84,1.38,4.26c0.7-0.23,1.41-0.45,2.11-0.67c0.45,1.43,1.01,2.83,1.32,4.29
					c-0.67,0.28-1.38,0.47-2.08,0.67c-0.48-1.4-0.92-2.81-1.38-4.21c-0.7,0.22-1.41,0.44-2.13,0.64c-0.48-1.4-0.85-2.81-1.43-4.18
					c-0.68,0.22-1.37,0.44-2.05,0.61C114.19,105.29,113.86,104.59,113.8,103.84L113.8,103.84z"/>
				<path id="path3038_8_" class="st3" d="M123.61,112.43c0.68-0.28,1.38-0.47,2.08-0.7c0.48,1.41,0.92,2.83,1.37,4.24
					c0.71-0.23,1.41-0.47,2.14-0.67c0.47,1.41,0.9,2.84,1.38,4.24c5.67-1.82,11.36-3.64,17.03-5.47c-0.44-1.43-0.92-2.83-1.35-4.26
					c0.73-0.25,1.45-0.48,2.19-0.68c0.79,2.08,1.27,4.27,2.02,6.39c-3.57,1.24-7.18,2.38-10.77,3.53
					c-3.51,1.13-7.02,2.27-10.57,3.34c-0.71-2.11-1.38-4.24-2.1-6.36c-0.7,0.22-1.38,0.44-2.08,0.64
					C124.49,115.28,123.92,113.9,123.61,112.43L123.61,112.43z"/>
			</g>
		</g>
	</g>
</g>
</svg>
