<?xml version="1.0" encoding="utf-8"?>
<!-- Generator: Adobe Illustrator 24.1.0, SVG Export Plug-In . SVG Version: 6.00 Build 0)  -->
<svg version="1.1" id="VECTO" xmlns="http://www.w3.org/2000/svg" xmlns:xlink="http://www.w3.org/1999/xlink" x="0px" y="0px"
	 viewBox="0 0 1542 917.17" style="enable-background:new 0 0 1542 917.17;" xml:space="preserve">
<style type="text/css">
	.st0{fill:#FFFFFF;}
	.st1{fill:#1B1B1B;}
	.st2{fill:#D84759;}
	.st3{fill:#1C1C1C;}
	.st4{fill:#FDD51E;}
	.st5{fill:#F9AF03;}
	.st6{clip-path:url(#SVGID_2_);fill:#F9AF03;}
	.st7{clip-path:url(#SVGID_4_);fill:#F9AF03;}
	.st8{clip-path:url(#SVGID_6_);fill:#F9AF03;}
	.st9{clip-path:url(#SVGID_18_);fill:#F9AF03;}
	.st10{clip-path:url(#SVGID_20_);fill:#F9AF03;}
	.st11{clip-path:url(#SVGID_22_);fill:#F9AF03;}
	.st12{clip-path:url(#SVGID_24_);fill:#F9AF03;}
	.st13{clip-path:url(#SVGID_26_);fill:#F9AF03;}
	.st14{fill:none;stroke:#D3D9EE;stroke-width:2;stroke-miterlimit:10;}
	.st15{clip-path:url(#SVGID_28_);fill:#F9AF03;}
	.st16{clip-path:url(#SVGID_30_);fill:#F9AF03;}
	.st17{fill:#F3F7FB;}
	.st18{fill:#D3D9EE;}
	.st19{fill:none;stroke:#FFFFFF;stroke-linecap:round;stroke-linejoin:round;stroke-miterlimit:10;}
	.st20{fill:none;}
	.st21{opacity:0.5;}
	.st22{clip-path:url(#SVGID_32_);fill:#F9AF03;}
</style>
<g>
	<path class="st0" d="M1525.53,917.17H16.47C7.37,917.17,0,909.8,0,900.71V79.64c0-9.09,7.37-16.47,16.47-16.47h1509.07
		c9.09,0,16.47,7.37,16.47,16.47v821.07C1542,909.8,1534.63,917.17,1525.53,917.17z"/>
	<g>
		<path class="st2" d="M707.76,822.9h-3.93v-40.33c0-0.69-0.55-1.24-1.24-1.24l-20.86,6.27c-0.96,0.24-1.24,1.13-1.24,1.81v11.97
			c0,0.69,0.55,1.24,1.24,1.24l3.73-1.12v21.4h-3.93c-0.68,0-1.24,0.56-1.24,1.24v12.54c0,0.69,0.55,1.24,1.24,1.24h26.23
			c0.68,0,1.24-0.56,1.24-1.24v-12.54C709,823.46,708.45,822.9,707.76,822.9z"/>
		<path class="st2" d="M841.66,838.06c4.85,0.48,10.04-1,14.59-2.54c10.7-3.64,20.84-9.42,29.86-16.19c3.93-2.95,7.78-6.13,11-9.86
			c2.38-2.77,4.71-6.04,4.89-9.82c0.2-4.19-6.29-4.17-6.49,0c0,0.04,0,0.07,0,0.1c-0.01,0.02-0.01,0.04-0.02,0.07
			c-0.07,0.32-0.17,0.63-0.28,0.94c-0.01,0.03-0.02,0.06-0.03,0.09c-0.05,0.1-0.09,0.2-0.14,0.3c-0.2,0.42-0.44,0.82-0.68,1.22
			c-0.23,0.37-0.47,0.73-0.72,1.09c-0.13,0.19-0.27,0.37-0.4,0.55c-0.02,0.03-0.05,0.06-0.08,0.1c-0.7,0.88-1.46,1.72-2.24,2.54
			c-3.81,4-7.68,6.93-12.07,9.95c-5.02,3.45-10.33,6.51-15.82,9.15c-4.69,2.25-9.64,4.21-15.05,5.34c-0.55,0.12-1.11,0.21-1.67,0.3
			c-0.06,0.01-0.26,0.04-0.41,0.06c-0.2,0.02-0.4,0.05-0.59,0.07c-1.12,0.11-2.24,0.15-3.36,0.08c-0.07,0-0.39-0.04-0.52-0.05
			c-0.16-0.03-0.32-0.06-0.48-0.1c-0.42-0.09-0.83-0.22-1.24-0.36c0.4,0.14-0.64-0.32-0.85-0.44c-0.08-0.05-0.17-0.1-0.25-0.16
			c0.07,0.04-0.39-0.3-0.5-0.4c-0.13-0.12-0.61-0.68-0.68-0.74c-0.14-0.2-0.27-0.41-0.4-0.62c4.54-3.17,8.74-6.86,12.56-10.83
			c4.42-4.59,8.51-9.75,11.4-15.45c2.82-5.56,4.95-13.22,0.36-18.46c-4.73-5.4-12.57-1.52-16.92,2.13
			c-4.35,3.66-7.47,8.64-9.83,13.76c-2.27,4.94-4.02,10.15-4.9,15.52c-0.56,3.4-0.89,7.09-0.33,10.58c-1.94,1.15-3.94,2.2-6,3.12
			c-2.33,1.04-5.37,1.94-8.14,2.37c0.17-0.03-0.65,0.07-0.65,0.07c-0.33,0.03-0.67,0.05-1,0.07c-0.63,0.04-1.27,0.03-1.9,0.01
			c-0.18-0.01-0.36-0.02-0.53-0.04c0.18,0.01-0.38-0.05-0.49-0.07c-0.49-0.09-0.97-0.23-1.45-0.4c0.3,0.09-0.69-0.34-0.89-0.45
			c-0.09-0.05-0.18-0.11-0.27-0.17c-0.09-0.06-0.25-0.18-0.31-0.24c-0.28-0.24-0.52-0.51-0.76-0.78c-0.06-0.08-0.13-0.16-0.16-0.21
			c-0.16-0.23-0.3-0.47-0.43-0.71c5.06-3.46,9.73-7.5,13.84-12.06c5.05-5.6,9.6-12.13,12.39-19.17c2.27-5.74,1.63-13.07-4.78-15.56
			c-2.87-1.11-6.11-0.2-8.79,0.96c-3.64,1.58-6.7,4.6-9.19,7.61c-3.23,3.92-5.47,8.51-7.35,13.2c-2.01,5.03-3.36,10.33-3.84,15.73
			c-0.18,2.07-0.19,4.28,0.11,6.44c-2.44,1.45-4.97,2.75-7.57,3.88c-0.16,0.06-0.85,0.35-1.05,0.43c-0.33,0.13-0.66,0.25-0.99,0.37
			c-0.29,0.11-0.59,0.21-0.88,0.3c-0.62,0.18-1.24,0.35-1.87,0.5c-0.29,0.07-0.59,0.12-0.88,0.18c-0.06,0.01-0.4,0.06-0.53,0.09
			c-0.99,0.11-1.98,0.13-2.97,0.04c-0.03,0-0.05-0.01-0.08-0.01c-0.21-0.04-0.43-0.09-0.64-0.14c-0.28-0.07-0.56-0.16-0.84-0.26
			c0.09,0.01-0.64-0.31-0.82-0.42c-0.16-0.09-0.32-0.2-0.47-0.31c-0.03-0.03-0.07-0.06-0.11-0.1c-0.29-0.25-0.56-0.53-0.81-0.82
			c-0.02-0.02-0.04-0.04-0.06-0.07c-0.09-0.12-0.17-0.24-0.25-0.37c-0.22-0.34-0.41-0.69-0.6-1.05c-0.04-0.07-0.07-0.14-0.1-0.21
			c-0.05-0.12-0.19-0.44-0.23-0.55c-0.02-0.06-0.04-0.12-0.06-0.19c8.36-5.26,15.45-12.37,20.64-20.88
			c3.54-5.81,7.76-13.75,4.25-20.51c-3.18-6.11-10.98-4.7-15.74-1.61c-8.78,5.71-13.18,16.01-15.35,25.88
			c-0.9,4.11-1.65,9.19-1.18,13.95c-1.49,0.8-3.03,1.49-4.58,2.17c-1.62,0.71-1.98,3.05-1.16,4.44c0.97,1.66,2.82,1.87,4.44,1.16
			c0.98-0.43,1.95-0.88,2.91-1.36c0.78,1.73,1.85,3.29,3.29,4.61c4.28,3.89,10.31,3.65,15.53,2.1c3.76-1.17,7.41-2.91,10.87-4.92
			c0.14,0.23,0.29,0.47,0.44,0.69c3.05,4.41,8.12,5.76,13.26,5.33c6.05-0.51,11.8-2.86,17.03-5.85
			C833.82,835.65,837.3,837.62,841.66,838.06z M776.35,815.24c0.03-0.22,0.07-0.44,0.1-0.66c0.09-0.55,0.18-1.09,0.29-1.64
			c0.22-1.19,0.5-2.36,0.79-3.53c0.56-2.2,1.26-4.37,2.07-6.49c0.16-0.42,0.33-0.83,0.5-1.24c0.01-0.01,0.39-0.89,0.47-1.06
			c0.43-0.94,0.9-1.86,1.4-2.76c0.42-0.76,0.87-1.49,1.35-2.21c0.13-0.19,0.27-0.38,0.4-0.57c-0.03,0.05,0.52-0.65,0.5-0.62
			c0.47-0.57,0.97-1.12,1.48-1.66c2.24-2.4,4.88-4.42,7.81-5.03c0.03-0.01,0.05-0.01,0.07-0.01c0.05,0,0.12,0,0.23-0.01
			c0.27-0.02,0.55-0.01,0.82,0.01c0,0,0,0,0.01,0c0.04,0.01,0.09,0.02,0.16,0.04c0.14,0.03,0.27,0.07,0.41,0.12
			c-0.2-0.06,0.26,0.13,0.39,0.21c0.02,0.01,0.04,0.02,0.06,0.03c0.01,0.01,0.03,0.02,0.04,0.04c0.06,0.05,0.23,0.24,0.31,0.32
			c0.07,0.11,0.14,0.22,0.2,0.33c0.02,0.05,0.18,0.4,0.21,0.49c0.09,0.27,0.14,0.55,0.2,0.83c0.01,0.03,0.01,0.04,0.01,0.07
			c0,0.05,0,0.14,0.01,0.28c0.02,0.33,0.01,0.65,0.01,0.98c-0.03,1.38-0.49,2.91-1.09,4.5c-1.39,3.73-3.71,7.3-5.98,10.54
			c-2.1,2.99-4.56,5.72-7.21,8.24c-1.98,1.88-4.13,3.58-6.37,5.14c0.02-1.42,0.13-2.85,0.3-4.26
			C776.3,815.56,776.33,815.38,776.35,815.24z M778.01,829.11C777.97,829.07,777.96,829.05,778.01,829.11L778.01,829.11z
			 M805.2,818.65c0.02-0.23,0.05-0.45,0.08-0.68c0,0.06,0.11-0.76,0.12-0.86c0.41-2.6,1.06-5.16,1.85-7.67
			c1.48-4.71,3.21-8.68,6.1-13.03c0.28-0.42,0.57-0.83,0.86-1.23c0.03-0.04,0.05-0.07,0.07-0.1c0.28-0.36,0.58-0.71,0.88-1.06
			c1.3-1.53,2.76-2.99,4.4-4.16c1.25-0.89,2.39-1.47,3.57-1.84c0.3-0.09,0.61-0.16,0.92-0.23c0.04-0.01,0.07-0.01,0.1-0.02
			c0.05,0,0.11,0,0.21-0.01c0.28-0.02,0.55-0.01,0.83,0c0.05,0,0.08,0,0.11,0c0.06,0.02,0.15,0.04,0.31,0.08
			c0.08,0.02,0.29,0.1,0.41,0.14c0.12,0.07,0.24,0.14,0.36,0.21c0.02,0.02,0.05,0.05,0.09,0.09c0.06,0.05,0.2,0.22,0.28,0.31
			c0.08,0.13,0.16,0.26,0.23,0.4c0.02,0.03,0.03,0.05,0.04,0.08c0.01,0.03,0.02,0.07,0.04,0.11c0.09,0.26,0.15,0.53,0.22,0.8
			c0.01,0.07,0.02,0.13,0.03,0.17c0.01,0.15,0.03,0.29,0.03,0.44c0.16,2.9-1.39,6-2.94,8.84c-4.81,8.8-11.53,16.26-19.37,22.07
			c0.01-0.37,0.02-0.74,0.03-1.11C805.09,819.82,805.14,819.23,805.2,818.65z M835.64,820.12c0.03-0.59,0.09-1.18,0.15-1.76
			c0-0.05,0.06-0.46,0.07-0.57c0.03-0.22,0.07-0.45,0.1-0.67c0.21-1.34,0.49-2.67,0.81-3.98c0.63-2.59,1.46-5.12,2.42-7.6
			c0.11-0.29,0.23-0.59,0.35-0.88c0.03-0.08,0.06-0.14,0.08-0.19c0.02-0.05,0.05-0.11,0.08-0.19c0.24-0.57,0.5-1.12,0.76-1.68
			c0.54-1.16,1.13-2.29,1.75-3.41c0.53-0.95,1.1-1.87,1.7-2.78c0.28-0.42,0.57-0.83,0.86-1.23c0.03-0.04,0.05-0.07,0.07-0.1
			c0.4-0.51,0.83-1,1.25-1.49c2.18-2.49,5-4.88,7.83-5.62c0.06-0.02,0.49-0.09,0.58-0.11c0.19-0.01,0.38-0.02,0.57-0.02
			c0.08,0,0.32,0.03,0.45,0.04c0.15,0.04,0.3,0.08,0.45,0.12c0.01,0,0.02,0.01,0.04,0.01c0.02,0.01,0.05,0.03,0.08,0.04
			c0.07,0.04,0.28,0.18,0.37,0.24c0.1,0.09,0.19,0.19,0.28,0.29c0.01,0.01,0.01,0.01,0.02,0.02c0.07,0.11,0.14,0.22,0.21,0.33
			c0.04,0.06,0.16,0.33,0.21,0.43c0.06,0.18,0.12,0.37,0.17,0.55c0.07,0.25,0.11,0.5,0.16,0.75c-0.08-0.44,0.02,0.47,0.02,0.52
			c0.07,1.62-0.2,2.75-0.7,4.43c-0.82,2.74-2.29,5.28-3.82,7.69c-3.48,5.46-7.96,10.29-12.85,14.68c-1.47,1.32-3,2.59-4.58,3.79
			C835.59,821.21,835.61,820.67,835.64,820.12z"/>
		<path class="st2" d="M694.65,779.52c5.08,0,9.19-4.11,9.19-9.19c0-5.08-4.11-9.19-9.19-9.19c-5.08,0-9.19,4.11-9.19,9.19
			C685.46,775.4,689.57,779.52,694.65,779.52z"/>
		<path class="st2" d="M673,781.33h-9.59c0-0.32,0-0.64,0-0.97v-12.44c0,0,0.31-3.49-3.41-2.2c-3.72,1.3-12.28,3.79-12.28,3.79
			s-1.99,0.29-1.99,2.87c0,2.18,0.03,3.44,0.06,8.95h-4.54c-0.68,0-1.24,0.56-1.24,1.24v12.54c0,0.69,0.55,1.24,1.24,1.24h4.6
			c0.01,6.67,0.02,15.49,0.02,27.32c0,0-1.12,22.14,26.85,11.24c0,0,1.41-0.76,1.52-1.98v-12.14c0,0,0.02-1.86-1.72-1.02
			c0,0-9.1,4.15-9.1-1.8c0-4.77,0-5,0-21.61H673c0.68,0,1.24-0.56,1.24-1.24v-12.54C674.23,781.88,673.68,781.33,673,781.33z"/>
		<path class="st2" d="M741.89,781.33c-3,0-5.87,0.61-8.52,1.73v-0.53c0-0.69-0.55-1.24-1.24-1.24h-21.15
			c-0.68,0-1.24,0.56-1.24,1.24v12.54c0,0.69,0.55,1.24,1.24,1.24H715v48.69h-4.02c-0.68,0-1.24,0.56-1.24,1.24v12.54
			c0,0.69,0.55,1.24,1.24,1.24h26.32c0.68,0,1.24-0.56,1.24-1.24v-12.54c0-0.69-0.55-1.24-1.24-1.24h-3.93v-8.79
			c2.66,1.12,5.53,1.73,8.52,1.73c13.66,0,24.73-12.67,24.73-28.3C766.62,794,755.55,781.33,741.89,781.33z M742.17,823.25
			c-4.9-0.02-8.84-6.14-8.81-13.66c0.03-7.53,4.03-13.61,8.93-13.59c4.9,0.02,8.84,6.14,8.8,13.66
			C751.07,817.19,747.07,823.27,742.17,823.25z"/>
		<path class="st2" d="M841.09,853.35c-2.05,0-3.18,1.77-3.18,3.2c0,1.49,1.32,3.04,3.18,3.04c2.11,0,3.23-1.35,3.23-3.04
			C844.32,855.12,843.14,853.35,841.09,853.35z"/>
		<path class="st2" d="M853.51,855.74c-1.8-0.03-2.89-1.49-2.89-3.32c0-1.83,0.81-3.6,2.47-3.6c1.29,0,1.71,1.6,1.77,2.95h4.13
			v-6.35h-3.32l-0.48,1.35c-0.48-0.56-1.6-1.6-3.51-1.6c-3.6,0-6.91,2.22-6.91,7.19c0,5,3.6,7.5,7.73,7.5
			c3.04,0,5.56-1.43,6.88-2.87l-2.47-2.87C855.98,855.15,855,855.77,853.51,855.74z"/>
		<path class="st2" d="M867.67,845.09c-3.88,0-7.67,2.61-7.7,7.31c-0.06,4.97,3.82,7.45,7.84,7.45c4.27,0,7.73-2.67,7.67-7.33
			C875.4,847.82,872.11,845.15,867.67,845.09z M867.81,856.25c-1.18,0-2.08-1.52-2.08-3.82c0-2.05,0.84-3.68,1.94-3.68
			c1.32,0.03,2.05,1.66,2.05,3.77C869.72,854.62,869.02,856.25,867.81,856.25z"/>
		<path class="st2" d="M899.5,851.81c0-3.43-0.7-6.74-5.26-6.74c-1.94,0-3.26,1.04-4.13,2.02c-0.45-0.67-1.35-2.02-4.19-2.02
			c-1.77,0-3.06,1.52-3.51,2.05l-0.62-1.66h-5.31v3.71h1.18v6.63h-1.18v3.68h8.35v-3.68h-1.69v-5c0-1.15,0.37-1.69,1.26-1.69
			c1.12,0,1.18,0.93,1.18,3.2v7.17h7.28v-3.77h-1.69v-4.55c0-1.21,0.28-2.05,1.49-2.05c1.32,0,1.07,2.14,1.07,3.48v6.88h7.14v-3.79
			h-1.38V851.81z"/>
	</g>
	<g>
		<path class="st2" d="M562.44,243.11v-21.25l-7.7,15.45h-4.4l-7.7-15.45v21.25h-8.2v-35.5h8.9l9.2,18.55l9.25-18.55h8.85v35.5
			H562.44z"/>
		<path class="st2" d="M589.34,243.61c-2.2,0-4.18-0.36-5.93-1.08c-1.75-0.72-3.23-1.69-4.45-2.92c-1.22-1.23-2.14-2.66-2.78-4.28
			c-0.63-1.62-0.95-3.31-0.95-5.07c0-1.9,0.32-3.69,0.95-5.38s1.55-3.16,2.75-4.43c1.2-1.27,2.68-2.27,4.43-3
			c1.75-0.73,3.74-1.1,5.97-1.1c2.23,0,4.22,0.37,5.95,1.1c1.73,0.73,3.2,1.73,4.4,2.98c1.2,1.25,2.11,2.69,2.72,4.33
			s0.93,3.35,0.93,5.15c0,0.47-0.02,0.92-0.05,1.38s-0.08,0.84-0.15,1.17h-19.4c0.13,1.77,0.77,3.11,1.92,4.03
			c1.15,0.92,2.46,1.38,3.93,1.38c1.17,0,2.29-0.28,3.38-0.85c1.08-0.57,1.81-1.33,2.17-2.3l6.8,1.9c-1.03,2.07-2.63,3.75-4.8,5.05
			S592.37,243.61,589.34,243.61z M594.89,227.51c-0.17-1.67-0.77-2.98-1.8-3.95s-2.32-1.45-3.85-1.45c-1.57,0-2.86,0.49-3.88,1.47
			c-1.02,0.98-1.61,2.29-1.78,3.93H594.89z"/>
		<path class="st2" d="M623.58,223.71c-1.93,0.03-3.67,0.35-5.23,0.95c-1.55,0.6-2.69,1.5-3.42,2.7v15.75h-8v-26.25h7.35v5.3
			c0.93-1.77,2.11-3.14,3.53-4.12c1.42-0.98,2.92-1.51,4.52-1.58c0.67,0,1.08,0.02,1.25,0.05V223.71z"/>
		<path class="st2" d="M625.48,229.96c0-1.8,0.32-3.52,0.95-5.17c0.63-1.65,1.55-3.1,2.75-4.35c1.2-1.25,2.68-2.24,4.43-2.98
			c1.75-0.73,3.74-1.1,5.97-1.1c3.03,0,5.58,0.64,7.65,1.92c2.07,1.28,3.62,2.96,4.65,5.03l-7.8,2.35c-1.03-1.67-2.55-2.5-4.55-2.5
			c-1.67,0-3.06,0.62-4.17,1.85c-1.12,1.23-1.68,2.88-1.68,4.95c0,1.03,0.15,1.98,0.45,2.83c0.3,0.85,0.72,1.58,1.25,2.17
			c0.53,0.6,1.16,1.07,1.88,1.4c0.72,0.33,1.47,0.5,2.27,0.5c1,0,1.92-0.24,2.75-0.72s1.45-1.11,1.85-1.88l7.8,2.4
			c-0.97,2.03-2.51,3.7-4.62,5s-4.69,1.95-7.72,1.95c-2.2,0-4.17-0.38-5.92-1.12s-3.23-1.75-4.45-3s-2.14-2.7-2.78-4.35
			C625.8,233.48,625.48,231.76,625.48,229.96z"/>
		<path class="st2" d="M655.48,213.86v-7.25h8v7.25H655.48z M655.48,243.11v-26.25h8v26.25H655.48z"/>
		<path class="st2" d="M688.03,243.61c-1.3,0-2.51-0.21-3.62-0.62c-1.12-0.42-2.08-1-2.88-1.75c-0.8-0.75-1.43-1.63-1.9-2.65
			c-0.47-1.02-0.7-2.12-0.7-3.32c0-1.3,0.28-2.48,0.83-3.55c0.55-1.07,1.32-1.98,2.32-2.75c1-0.77,2.18-1.37,3.55-1.8
			c1.37-0.43,2.88-0.65,4.55-0.65c1.1,0,2.17,0.09,3.2,0.27c1.03,0.18,1.93,0.46,2.7,0.83v-1.2c0-3.03-1.75-4.55-5.25-4.55
			c-1.43,0-2.8,0.24-4.1,0.72c-1.3,0.48-2.67,1.21-4.1,2.18l-2.35-5c1.73-1.13,3.53-1.98,5.4-2.55c1.87-0.57,3.85-0.85,5.95-0.85
			c3.97,0,7.03,0.93,9.2,2.8c2.17,1.87,3.25,4.6,3.25,8.2v6.75c0,0.8,0.15,1.36,0.45,1.67c0.3,0.32,0.83,0.51,1.6,0.58v6.75
			c-0.77,0.17-1.47,0.28-2.12,0.33s-1.22,0.08-1.72,0.08c-1.47-0.03-2.58-0.33-3.35-0.9c-0.77-0.57-1.25-1.38-1.45-2.45l-0.15-1.2
			c-1.17,1.5-2.56,2.65-4.17,3.45C691.54,243.21,689.83,243.61,688.03,243.61z M690.38,237.86c0.87,0,1.71-0.15,2.53-0.45
			c0.82-0.3,1.49-0.7,2.02-1.2c0.77-0.6,1.15-1.23,1.15-1.9v-2.5c-0.7-0.27-1.46-0.48-2.28-0.62c-0.82-0.15-1.57-0.23-2.27-0.23
			c-1.47,0-2.68,0.33-3.62,1c-0.95,0.67-1.43,1.53-1.43,2.6c0,0.97,0.37,1.76,1.1,2.38C688.31,237.55,689.25,237.86,690.38,237.86z"
			/>
		<path class="st2" d="M718.03,243.61c-2.67,0-4.7-0.84-6.1-2.53c-1.4-1.68-2.1-4.16-2.1-7.42v-16.8h8v15.05
			c0,1.6,0.32,2.83,0.95,3.67c0.63,0.85,1.53,1.28,2.7,1.28c1.07,0,2.1-0.28,3.1-0.85s1.88-1.55,2.65-2.95v-16.2h8v17.25
			c0,0.8,0.15,1.36,0.45,1.67c0.3,0.32,0.83,0.51,1.6,0.58v6.75c-0.83,0.17-1.56,0.28-2.18,0.33s-1.16,0.08-1.62,0.08
			c-2.8-0.03-4.42-1.15-4.85-3.35l-0.15-1.6c-1.2,1.73-2.69,3.01-4.47,3.83S720.23,243.61,718.03,243.61z"/>
		<path class="st2" d="M747.23,216.86l4.75,7.4l0.5,0.95l0.45-0.95l4.75-7.4h8.2l-9.1,13.15l9.25,13.1h-8.15l-4.95-7.35l-0.45-0.95
			l-0.45,0.95l-4.95,7.35h-8.2l9.25-13.1l-9.05-13.15H747.23z"/>
		<path class="st2" d="M814.62,219.4h-7.94v-6.91h-4.54v23.44h4.48v7.18h-20.09v-7.18h4.43v-23.44h-4.64v6.91h-7.94v-14.04h36.23
			V219.4z"/>
		<path class="st2" d="M816.78,243.11v-7.07h2.27v-12.91h-2.27v-7.02h12.53v19.93h2.59v7.07H816.78z M824.13,202.72
			c3.72,0,5.94,3.02,5.94,5.51c0,2.97-2.11,5.45-5.94,5.45c-3.4,0-5.83-2.86-5.83-5.45C818.3,205.74,820.35,202.72,824.13,202.72z"
			/>
		<path class="st2" d="M836.87,247.05v-23.76h-2.27v-7.18h12.37l0.92,1.89c1.03-0.76,3.29-2.32,6.54-2.32
			c8.42,0,12.74,6.48,12.74,14.15c0,8.59-5.35,13.88-12.31,13.88c-4.48,0-6.64-1.78-7.02-2.11v5.45h2.92v7.07H834.6v-7.07H836.87z
			 M851.67,223.29c-2.11,0-4.05,2.65-3.83,6.91c0,3.67,1.84,6.48,3.89,6.48c2.27,0,3.83-2.65,3.83-6.75
			C855.56,226.69,854.04,223.29,851.67,223.29z"/>
		<path class="st2" d="M896.16,239.38c-4,3.46-8.31,4.7-13.93,4.7c-6.7,0-14.26-4.27-14.26-14.63c0-8.86,6.37-14.09,14.53-14.09
			c6.43,0,11.34,3.29,12.91,7.83c0.65,1.89,1.24,6.05,0.11,9.13H878.5c0.32,1.46,1.03,4.43,5.56,4.43c1.84,0,4.64-0.16,7.56-2.59
			L896.16,239.38z M886.82,226.96c-0.05-2.05-0.54-4.32-4-4.32c-3.29,0-4.05,2.97-4.16,4.32H886.82z"/>
		<path class="st2" d="M910.85,216.11v13.01c0,4.64,0.7,6.8,2.92,6.8c1.89,0,3.4-1.67,3.4-4.1v-8.59h-3.56v-7.13h13.99v19.82h2.65
			v7.18h-10.21l-1.46-3.4c-1.19,1.35-3.08,4.16-7.67,4.16c-8.15,0-10.85-4.21-10.85-13.18v-7.45h-2.27v-7.13H910.85z"/>
		<path class="st2" d="M932.4,243.11v-7.07h2.38v-12.91h-2.32v-7.02h10.15l1.62,3.46c1.4-2.59,2.81-4.81,8.37-4.81v9.72
			c-4.86,0-7.61,1.24-7.61,5.99v5.56h2.7v7.07H932.4z"/>
		<path class="st2" d="M954.21,233.39h7.24c0,2.86,4.1,3.62,5.72,3.62c1.08,0,2.38-0.32,2.38-1.84c0-1.62-4.05-1.89-7.94-3.24
			c-3.67-1.3-7.18-3.56-7.18-8.64c0-5.51,5.67-7.83,9.5-7.83c3.67,0,6.91,1.89,8.04,4.21l0.43-3.56h6.64v9.72h-7.02
			c0-2.27-2.81-4.1-5.51-4.1c-1.13,0-2.11,0.59-2.11,1.94c0,1.51,3.19,2.16,6.64,3.35c4.11,1.4,8.7,2.97,8.7,8.64
			c0,5.08-4.81,8.1-10.04,8.1c-3.89,0-6.97-1.89-8.26-3.94l-0.49,3.29h-6.75V233.39z"/>
		<path class="st2" d="M1002,231.88c3.83,0,6.43,2.65,6.43,5.72c0,3.02-2.48,5.56-6.43,5.56c-3.51,0-6.16-2.75-6.16-5.56
			C995.85,234.9,998.11,231.88,1002,231.88z M996.06,205.36h12.91v10.26l-2.86,13.61h-7.13l-2.92-13.61V205.36z"/>
	</g>
	<g>
		<g>
			<g>
				<line class="st14" x1="120" y1="318" x2="406" y2="318"/>
				<line class="st14" x1="120" y1="393.2" x2="406" y2="393.2"/>
				<line class="st14" x1="120" y1="468.4" x2="406" y2="468.4"/>
				<line class="st14" x1="120" y1="543.6" x2="406" y2="543.6"/>
				<line class="st14" x1="120" y1="618.8" x2="406" y2="618.8"/>
				<line class="st14" x1="120" y1="694" x2="406" y2="694"/>
			</g>
			<g>
				<line class="st14" x1="460" y1="318" x2="746" y2="318"/>
				<line class="st14" x1="460" y1="393.2" x2="746" y2="393.2"/>
				<line class="st14" x1="460" y1="468.4" x2="746" y2="468.4"/>
				<line class="st14" x1="460" y1="543.6" x2="746" y2="543.6"/>
				<line class="st14" x1="460" y1="618.8" x2="746" y2="618.8"/>
				<line class="st14" x1="460" y1="694" x2="746" y2="694"/>
			</g>
		</g>
		<g>
			<g>
				<line class="st14" x1="796" y1="318" x2="1082" y2="318"/>
				<line class="st14" x1="796" y1="393.2" x2="1082" y2="393.2"/>
				<line class="st14" x1="796" y1="468.4" x2="1082" y2="468.4"/>
				<line class="st14" x1="796" y1="543.6" x2="1082" y2="543.6"/>
				<line class="st14" x1="796" y1="618.8" x2="1082" y2="618.8"/>
				<line class="st14" x1="796" y1="694" x2="1082" y2="694"/>
			</g>
			<g>
				<line class="st14" x1="1136" y1="318" x2="1422" y2="318"/>
				<line class="st14" x1="1136" y1="393.2" x2="1422" y2="393.2"/>
				<line class="st14" x1="1136" y1="468.4" x2="1422" y2="468.4"/>
				<line class="st14" x1="1136" y1="543.6" x2="1422" y2="543.6"/>
				<line class="st14" x1="1136" y1="618.8" x2="1422" y2="618.8"/>
				<line class="st14" x1="1136" y1="694" x2="1422" y2="694"/>
			</g>
		</g>
	</g>
	<g id="Calque_5_5_">
		<g>
			<path class="st2" d="M855.54,107.2l-151.42,29.54c-8.94,1.74-17.59-4.09-19.35-13.03l-14.53-74.54
				c-1.74-8.94,4.09-17.59,13.03-19.35L834.69,0.31c8.94-1.74,17.59,4.09,19.35,13.03l14.55,74.54
				C870.31,96.79,864.48,105.44,855.54,107.2z"/>
			<g>
				<path class="st0" d="M702.03,61.59l-1.52-7.79l14.62-8.03l2.5,12.79l8.06-1.57l2.16,11.02l-8.06,1.57l2.94,15.09
					c0.56,2.89,0.73,6.88,4.04,6.25c1.1-0.22,3.58-1.49,5.07-2.47l2.11,10.85c-2.35,1.52-7.99,3.23-9.94,3.6
					c-12.71,2.47-14.5-4.38-16.85-15.19l-2.94-15.09l-4.58,0.88l-2.16-11.02L702.03,61.59z"/>
				<path class="st0" d="M740.98,97.99l-2.16-11.1l3.55-0.69l-3.94-20.26l-3.55,0.69l-2.16-11.02l19.64-3.85l6.1,31.25l4.07-0.78
					l2.16,11.1L740.98,97.99z M740.14,32.37c5.85-1.15,10.24,2.94,11,6.83c0.91,4.65-1.64,9.21-7.64,10.36
					c-5.34,1.03-10.02-2.69-10.83-6.76C731.91,38.89,734.22,33.52,740.14,32.37z"/>
				<path class="st0" d="M771.91,98.36l-7.27-37.28l-3.55,0.69l-2.2-11.27l19.4-3.77l2.01,2.67c1.37-1.49,4.46-4.65,9.55-5.63
					c13.23-2.57,21.97,6.27,24.32,18.3c2.62,13.47-4.14,23.42-15.06,25.55c-7.03,1.37-10.97-0.76-11.66-1.15l1.67,8.55l4.58-0.88
					l2.16,11.1l-25.33,4.95l-2.16-11.1L771.91,98.36z M787.83,56.57c-3.31,0.64-5.54,5.39-3.89,12.03c1.13,5.76,4.87,9.6,8.08,8.96
					c3.55-0.69,5.22-5.32,3.94-11.76C794.99,60.71,791.58,55.83,787.83,56.57z"/>
				<path class="st0" d="M827.69,62.77c6.03-1.18,10.9,2.18,11.83,7.01c0.93,4.75-2.2,9.48-8.38,10.7
					c-5.51,1.08-10.51-2.45-11.37-6.83C818.97,69.4,821.59,63.97,827.69,62.77z M810.27,22.99l20.26-3.94l3.14,16.09l-0.32,22.22
					l-11.19,2.18l-8.74-20.45L810.27,22.99z"/>
			</g>
			<g>
				<path id="path4109_6_" class="st0" d="M814.43,91.25c0.29,0.98,0.61,1.96,0.91,2.94l0.12,0.42l-0.42,0.15
					c-0.96,0.34-1.94,0.66-2.91,1c3.14,9.92,6.37,19.84,9.55,29.74l0.15,0.42l-0.42,0.15c-0.81,0.27-1.64,0.54-2.47,0.83l-0.44,0.15
					l-0.15-0.44c-0.29-0.98-0.61-1.94-0.96-2.89c-3.38,1.05-6.74,2.13-10.09,3.26c1.08,3.36,2.16,6.71,3.23,10.04
					c0.98-0.29,1.98-0.56,2.94-0.96l0.54-0.22l0.1,0.56c0.17,1,0.59,1.96,0.91,2.94c0.96-0.24,1.89-0.54,2.82-0.83l0.39-0.12
					l0.17,0.39c0.83,2.03,1.42,4.12,2.13,6.2c0.98-0.27,1.96-0.56,2.94-0.88l0.42-0.12l0.15,0.42c0.69,2.08,1.35,4.14,2.06,6.22
					c0.98-0.29,1.98-0.56,2.94-0.93l0.49-0.2l0.12,0.51c0.51,2.13,1.32,4.19,1.98,6.27c0.96-0.29,1.91-0.59,2.87-0.88l0.42-0.15
					l0.15,0.42c1.08,3.18,2.08,6.42,3.16,9.6c5.56-1.71,11.12-3.48,16.66-5.27c5.66-1.84,11.37-3.6,16.97-5.58
					c-1.13-3.16-1.86-6.47-3.01-9.63l-0.17-0.47l0.47-0.15c0.96-0.27,1.91-0.61,2.84-0.93c-0.98-3.18-2.01-6.39-3.04-9.58
					l-0.12-0.39l0.37-0.17c0.93-0.39,1.91-0.73,2.89-1.03c-1.13-3.58-2.33-7.1-3.38-10.7l0,0l0,0c-1.49-4.24-2.79-8.55-4.21-12.83
					c-0.96,0.32-1.91,0.61-2.87,0.91l-0.42,0.12l-0.15-0.42c-0.32-0.93-0.64-1.89-0.93-2.84c-1,0.29-1.96,0.64-2.96,0.88l-0.39,0.1
					l-0.15-0.37c-0.39-0.96-0.66-1.96-1-2.96c-2.08,0.66-4.16,1.35-6.27,1.98l-0.42,0.12l-0.15-0.42c-0.32-0.93-0.64-1.89-0.93-2.84
					c-3.26,0.86-6.44,2.01-9.65,3.01l-0.42,0.12l-0.15-0.39c-0.37-0.96-0.69-1.94-1-2.91c-2.08,0.66-4.16,1.35-6.27,1.98l-0.42,0.12
					l-0.15-0.42c-1.42-4.31-2.79-8.62-4.19-12.93c-0.56,0.17-1.13,0.34-1.67,0.51c-0.42,0.12-0.83,0.27-1.25,0.42l-0.44,0.15
					l-0.15-0.44c-0.29-1-0.61-1.98-1.03-2.94C818.84,89.86,816.64,90.57,814.43,91.25L814.43,91.25z"/>
				<path id="path3016_6_" class="st3" d="M814.43,91.25c2.2-0.69,4.41-1.42,6.61-2.13c0.47,1.08,0.81,2.18,1.15,3.31
					c-2.23,0.73-4.48,1.45-6.71,2.18C815.12,93.51,814.78,92.38,814.43,91.25z"/>
				<path id="path3018_6_" class="st3" d="M812.16,95.76c1.1-0.37,2.23-0.71,3.33-1.13c3.97,12.32,7.96,24.67,11.9,36.99
					c-1.13,0.39-2.23,0.76-3.38,1.08c-0.37-1.1-0.73-2.2-1.08-3.31c-1.13,0.32-2.25,0.69-3.36,1.05c-0.39-1.13-0.78-2.25-1.1-3.38
					c1.1-0.39,2.23-0.73,3.33-1.13C818.6,115.87,815.34,105.83,812.16,95.76L812.16,95.76z"/>
				<path id="path3020_6_" class="st3" d="M822.22,92.5c1.1-0.37,2.23-0.73,3.33-1.08c1.45,4.46,2.87,8.92,4.34,13.37
					c2.25-0.66,4.46-1.4,6.69-2.11c0.37,1.1,0.71,2.23,1.13,3.31c3.36-1.03,6.69-2.23,10.09-3.14c0.34,1.1,0.69,2.18,1.08,3.26
					c2.25-0.69,4.46-1.42,6.71-2.13c0.37,1.1,0.66,2.25,1.15,3.33c1.15-0.27,2.23-0.69,3.36-1c0.34,1.1,0.69,2.18,1.08,3.26
					c1.1-0.34,2.2-0.69,3.31-1.05c1.42,4.26,2.72,8.6,4.21,12.83c1.03,3.6,2.25,7.15,3.38,10.73c-1.1,0.34-2.2,0.71-3.26,1.2
					c1.05,3.31,2.13,6.64,3.16,9.97c-1.1,0.39-2.18,0.78-3.31,1.08c-1.2-3.33-2.23-6.74-3.28-10.12c1.1-0.34,2.23-0.71,3.33-1.08
					c-2.52-7.84-5.05-15.68-7.54-23.51c-1.1,0.34-2.23,0.71-3.33,1.08c-0.42-1.08-0.69-2.18-1.13-3.26
					c-1.18,0.15-2.25,0.64-3.36,0.98c1.05,3.38,2.2,6.71,3.21,10.09c-1.1,0.37-2.2,0.71-3.28,1.05c-1.52-4.46-2.89-8.96-4.36-13.45
					c-2.25,0.71-4.51,1.45-6.74,2.18c1.08,3.36,2.2,6.71,3.23,10.09c-1.1,0.39-2.23,0.73-3.33,1.08c-1.47-4.48-2.91-8.96-4.31-13.45
					c-2.25,0.71-4.51,1.45-6.74,2.18c1.42,4.48,2.89,8.94,4.31,13.42c-1.13,0.39-2.25,0.76-3.38,1.08
					C828.69,112.66,825.46,102.59,822.22,92.5L822.22,92.5z"/>
				<path id="path3026_6_" class="st3" d="M807.33,126.97c3.36-1.13,6.71-2.2,10.09-3.26c0.39,1.1,0.76,2.2,1.08,3.33
					c-2.2,0.76-4.46,1.45-6.69,2.18c0.64,2.25,1.54,4.41,2.11,6.69c-1.08,0.49-2.23,0.76-3.38,1.1
					C809.46,133.68,808.41,130.32,807.33,126.97z"/>
				<path id="path3030_6_" class="st3" d="M814.04,135.96c1.03-0.51,2.16-0.81,3.23-1.13c0.39,1.1,0.76,2.23,1.1,3.36
					c1.13-0.34,2.25-0.71,3.38-1.05c0.73,2.23,1.45,4.48,2.18,6.71c1.1-0.37,2.23-0.71,3.33-1.05c0.71,2.25,1.59,4.46,2.08,6.76
					c-1.05,0.44-2.18,0.73-3.28,1.05c-0.76-2.2-1.45-4.43-2.18-6.64c-1.1,0.34-2.23,0.69-3.36,1c-0.76-2.2-1.35-4.43-2.25-6.59
					c-1.08,0.34-2.16,0.69-3.23,0.96C814.65,138.23,814.14,137.13,814.04,135.96L814.04,135.96z"/>
				<path id="path3038_6_" class="st3" d="M829.5,149.5c1.08-0.44,2.18-0.73,3.28-1.1c0.76,2.23,1.45,4.46,2.16,6.69
					c1.13-0.37,2.23-0.73,3.38-1.05c0.73,2.23,1.42,4.48,2.18,6.69c8.94-2.87,17.91-5.73,26.85-8.62c-0.69-2.25-1.45-4.46-2.13-6.71
					c1.15-0.39,2.28-0.76,3.45-1.08c1.25,3.28,2.01,6.74,3.18,10.07c-5.63,1.96-11.32,3.75-16.97,5.56
					c-5.54,1.79-11.07,3.58-16.66,5.27c-1.13-3.33-2.18-6.69-3.31-10.02c-1.1,0.34-2.18,0.69-3.28,1
					C830.89,153.98,829.99,151.8,829.5,149.5L829.5,149.5z"/>
			</g>
		</g>
	</g>
</g>
</svg>
