<?xml version="1.0" encoding="utf-8"?>
<!-- Generator: Adobe Illustrator 24.1.0, SVG Export Plug-In . SVG Version: 6.00 Build 0)  -->
<svg version="1.1" id="VECTO" xmlns="http://www.w3.org/2000/svg" xmlns:xlink="http://www.w3.org/1999/xlink" x="0px" y="0px"
	 viewBox="0 0 430 448.25" style="enable-background:new 0 0 430 448.25;" xml:space="preserve">
<style type="text/css">
	.st0{fill:#FFFFFF;}
	.st1{fill:#1B1B1B;}
	.st2{fill:#D84759;}
	.st3{fill:#1C1C1C;}
	.st4{fill:#FDD51E;}
	.st5{fill:#F9AF03;}
	.st6{clip-path:url(#SVGID_2_);fill:#F9AF03;}
	.st7{clip-path:url(#SVGID_4_);fill:#F9AF03;}
	.st8{clip-path:url(#SVGID_6_);fill:#F9AF03;}
	.st9{clip-path:url(#SVGID_18_);fill:#F9AF03;}
	.st10{clip-path:url(#SVGID_20_);fill:#F9AF03;}
	.st11{clip-path:url(#SVGID_22_);fill:#F9AF03;}
	.st12{clip-path:url(#SVGID_24_);fill:#F9AF03;}
	.st13{clip-path:url(#SVGID_26_);fill:#F9AF03;}
	.st14{fill:none;stroke:#D3D9EE;stroke-width:2;stroke-miterlimit:10;}
	.st15{clip-path:url(#SVGID_28_);fill:#F9AF03;}
	.st16{clip-path:url(#SVGID_30_);fill:#F9AF03;}
	.st17{fill:#F3F7FB;}
	.st18{fill:#D3D9EE;}
	.st19{fill:none;stroke:#FFFFFF;stroke-linecap:round;stroke-linejoin:round;stroke-miterlimit:10;}
	.st20{fill:none;}
	.st21{opacity:0.5;}
	.st22{clip-path:url(#SVGID_32_);fill:#F9AF03;}
</style>
<g>
	<path class="st0" d="M413.53,448.25H16.47C7.37,448.25,0,440.88,0,431.78V78.22c0-9.09,7.37-16.47,16.47-16.47h397.07
		c9.09,0,16.47,7.37,16.47,16.47v353.57C430,440.88,422.63,448.25,413.53,448.25z"/>
	<g>
		<path class="st1" d="M143.52,200.95c-0.11-0.11-0.4-0.31-0.88-0.6c-0.48-0.29-1.08-0.6-1.8-0.92c-0.72-0.32-1.51-0.6-2.36-0.84
			c-0.85-0.24-1.71-0.36-2.56-0.36c-1.12,0-1.98,0.2-2.58,0.6c-0.6,0.4-0.9,0.99-0.9,1.76c0,0.48,0.13,0.88,0.4,1.2
			c0.27,0.32,0.65,0.61,1.14,0.86c0.49,0.25,1.11,0.49,1.84,0.7c0.73,0.21,1.58,0.45,2.54,0.72c1.36,0.37,2.59,0.78,3.68,1.22
			c1.09,0.44,2.03,0.99,2.8,1.64s1.37,1.45,1.78,2.38s0.62,2.05,0.62,3.36c0,1.6-0.3,2.95-0.9,4.06c-0.6,1.11-1.39,2-2.38,2.68
			s-2.13,1.17-3.42,1.48c-1.29,0.31-2.62,0.46-3.98,0.46c-1.04,0-2.1-0.08-3.18-0.24s-2.14-0.39-3.18-0.7
			c-1.04-0.31-2.05-0.67-3.04-1.1c-0.99-0.43-1.89-0.92-2.72-1.48l2.88-5.72c0.13,0.13,0.49,0.39,1.08,0.76
			c0.59,0.37,1.31,0.75,2.16,1.12c0.85,0.37,1.81,0.71,2.88,1c1.07,0.29,2.15,0.44,3.24,0.44c2.32,0,3.48-0.71,3.48-2.12
			c0-0.53-0.17-0.97-0.52-1.32c-0.35-0.35-0.83-0.66-1.44-0.94c-0.61-0.28-1.33-0.54-2.16-0.78s-1.73-0.51-2.72-0.8
			c-1.31-0.4-2.44-0.83-3.4-1.3c-0.96-0.47-1.76-1.01-2.4-1.62c-0.64-0.61-1.11-1.32-1.42-2.12c-0.31-0.8-0.46-1.73-0.46-2.8
			c0-1.49,0.28-2.81,0.84-3.96c0.56-1.15,1.32-2.11,2.28-2.9c0.96-0.79,2.07-1.38,3.34-1.78c1.27-0.4,2.61-0.6,4.02-0.6
			c1.01,0,2,0.09,2.96,0.28c0.96,0.19,1.87,0.43,2.74,0.72c0.87,0.29,1.69,0.63,2.46,1s1.47,0.75,2.08,1.12L143.52,200.95z"/>
		<path class="st1" d="M160.56,221.43c-1.79,0-3.38-0.29-4.78-0.88c-1.4-0.59-2.58-1.38-3.54-2.38c-0.96-1-1.69-2.16-2.18-3.48
			s-0.74-2.7-0.74-4.14c0-1.44,0.25-2.82,0.74-4.14s1.22-2.48,2.18-3.48c0.96-1,2.14-1.8,3.54-2.4s2.99-0.9,4.78-0.9
			s3.37,0.3,4.76,0.9s2.56,1.4,3.52,2.4c0.96,1,1.69,2.16,2.2,3.48c0.51,1.32,0.76,2.7,0.76,4.14c0,1.44-0.25,2.82-0.74,4.14
			s-1.22,2.48-2.18,3.48s-2.14,1.79-3.54,2.38C163.94,221.14,162.35,221.43,160.56,221.43z M155.88,210.55
			c0,1.65,0.44,2.98,1.32,3.98c0.88,1,2,1.5,3.36,1.5c0.67,0,1.28-0.13,1.84-0.4c0.56-0.27,1.05-0.64,1.46-1.12
			c0.41-0.48,0.74-1.06,0.98-1.74c0.24-0.68,0.36-1.42,0.36-2.22c0-1.65-0.44-2.98-1.32-3.98s-1.99-1.5-3.32-1.5
			c-0.67,0-1.29,0.13-1.86,0.4c-0.57,0.27-1.07,0.64-1.48,1.12c-0.41,0.48-0.74,1.06-0.98,1.74
			C156,209.01,155.88,209.75,155.88,210.55z"/>
		<path class="st1" d="M181.28,221.43c-2.13,0-3.76-0.67-4.88-2.02c-1.12-1.35-1.68-3.33-1.68-5.94v-13.44h6.4v12.04
			c0,1.28,0.25,2.26,0.76,2.94c0.51,0.68,1.23,1.02,2.16,1.02c0.85,0,1.68-0.23,2.48-0.68c0.8-0.45,1.51-1.24,2.12-2.36v-12.96h6.4
			v13.8c0,0.64,0.12,1.09,0.36,1.34c0.24,0.25,0.67,0.41,1.28,0.46v5.4c-0.67,0.13-1.25,0.22-1.74,0.26
			c-0.49,0.04-0.93,0.06-1.3,0.06c-2.24-0.03-3.53-0.92-3.88-2.68l-0.12-1.28c-0.96,1.39-2.15,2.41-3.58,3.06
			C184.63,221.11,183.04,221.43,181.28,221.43z"/>
		<path class="st1" d="M213.6,219.91c-0.88,0.37-1.88,0.72-3,1.04c-1.12,0.32-2.27,0.48-3.44,0.48c-0.8,0-1.55-0.1-2.26-0.3
			c-0.71-0.2-1.33-0.52-1.86-0.96c-0.53-0.44-0.95-1.02-1.26-1.74c-0.31-0.72-0.46-1.59-0.46-2.6v-10.96h-2.68v-4.84h2.68v-6.68h6.4
			v6.68H212v4.84h-4.28v8.76c0,0.69,0.18,1.19,0.54,1.5c0.36,0.31,0.81,0.46,1.34,0.46c0.45,0,0.93-0.08,1.44-0.24
			s0.96-0.33,1.36-0.52L213.6,219.91z"/>
		<path class="st1" d="M226.12,221.43c-1.76,0-3.34-0.29-4.74-0.86s-2.59-1.35-3.56-2.34c-0.97-0.99-1.71-2.13-2.22-3.42
			c-0.51-1.29-0.76-2.65-0.76-4.06c0-1.52,0.25-2.95,0.76-4.3c0.51-1.35,1.24-2.53,2.2-3.54c0.96-1.01,2.14-1.81,3.54-2.4
			c1.4-0.59,2.99-0.88,4.78-0.88c1.79,0,3.37,0.29,4.76,0.88c1.39,0.59,2.56,1.38,3.52,2.38s1.69,2.15,2.18,3.46
			s0.74,2.68,0.74,4.12c0,0.37-0.01,0.74-0.04,1.1c-0.03,0.36-0.07,0.67-0.12,0.94h-15.52c0.11,1.41,0.62,2.49,1.54,3.22
			s1.97,1.1,3.14,1.1c0.93,0,1.83-0.23,2.7-0.68c0.87-0.45,1.45-1.07,1.74-1.84l5.44,1.52c-0.83,1.65-2.11,3-3.84,4.04
			C230.63,220.91,228.55,221.43,226.12,221.43z M230.56,208.55c-0.13-1.33-0.61-2.39-1.44-3.16c-0.83-0.77-1.85-1.16-3.08-1.16
			c-1.25,0-2.29,0.39-3.1,1.18c-0.81,0.79-1.29,1.83-1.42,3.14H230.56z"/>
		<path class="st1" d="M260.48,221.03h-6.4v-11.8c0-1.39-0.26-2.39-0.78-3.02c-0.52-0.63-1.21-0.94-2.06-0.94
			c-0.45,0-0.91,0.09-1.38,0.28c-0.47,0.19-0.91,0.45-1.32,0.78c-0.41,0.33-0.79,0.73-1.14,1.18c-0.35,0.45-0.61,0.95-0.8,1.48
			v12.04h-6.4v-21h5.76v3.52c0.77-1.25,1.87-2.22,3.28-2.9s3.04-1.02,4.88-1.02c1.36,0,2.46,0.25,3.3,0.74
			c0.84,0.49,1.49,1.13,1.94,1.92c0.45,0.79,0.75,1.65,0.9,2.58c0.15,0.93,0.22,1.84,0.22,2.72V221.03z"/>
		<path class="st1" d="M274.72,221.43c-1.76,0-3.34-0.29-4.74-0.86s-2.59-1.35-3.56-2.34c-0.97-0.99-1.71-2.13-2.22-3.42
			c-0.51-1.29-0.76-2.65-0.76-4.06c0-1.52,0.25-2.95,0.76-4.3c0.51-1.35,1.24-2.53,2.2-3.54c0.96-1.01,2.14-1.81,3.54-2.4
			c1.4-0.59,2.99-0.88,4.78-0.88c1.79,0,3.37,0.29,4.76,0.88c1.39,0.59,2.56,1.38,3.52,2.38s1.69,2.15,2.18,3.46
			s0.74,2.68,0.74,4.12c0,0.37-0.01,0.74-0.04,1.1c-0.03,0.36-0.07,0.67-0.12,0.94h-15.52c0.11,1.41,0.62,2.49,1.54,3.22
			s1.97,1.1,3.14,1.1c0.93,0,1.83-0.23,2.7-0.68c0.87-0.45,1.45-1.07,1.74-1.84l5.44,1.52c-0.83,1.65-2.11,3-3.84,4.04
			C279.23,220.91,277.15,221.43,274.72,221.43z M279.16,208.55c-0.13-1.33-0.61-2.39-1.44-3.16c-0.83-0.77-1.85-1.16-3.08-1.16
			c-1.25,0-2.29,0.39-3.1,1.18c-0.81,0.79-1.29,1.83-1.42,3.14H279.16z"/>
		<path class="st1" d="M287.28,217.19L298,204.47h-10.16v-4.44h16.88v3.84l-10.68,12.72h10.92v4.44h-17.68V217.19z"/>
		<path class="st1" d="M128.68,239.83h6.4v21.36c0,1.6,0.69,2.4,2.08,2.4c0.29,0,0.63-0.05,1.02-0.16s0.74-0.24,1.06-0.4l0.84,5.16
			c-0.8,0.37-1.72,0.67-2.76,0.88c-1.04,0.21-2,0.32-2.88,0.32c-1.84,0-3.26-0.48-4.26-1.44s-1.5-2.35-1.5-4.16V239.83z"/>
		<path class="st1" d="M148.28,269.43c-1.04,0-2.01-0.17-2.9-0.5c-0.89-0.33-1.66-0.8-2.3-1.4c-0.64-0.6-1.15-1.31-1.52-2.12
			c-0.38-0.81-0.56-1.7-0.56-2.66c0-1.04,0.22-1.99,0.66-2.84c0.44-0.85,1.06-1.59,1.86-2.2c0.8-0.61,1.75-1.09,2.84-1.44
			s2.31-0.52,3.64-0.52c0.88,0,1.73,0.07,2.56,0.22c0.83,0.15,1.54,0.37,2.16,0.66v-0.96c0-2.43-1.4-3.64-4.2-3.64
			c-1.15,0-2.24,0.19-3.28,0.58c-1.04,0.39-2.13,0.97-3.28,1.74l-1.88-4c1.39-0.91,2.83-1.59,4.32-2.04
			c1.49-0.45,3.08-0.68,4.76-0.68c3.17,0,5.62,0.75,7.36,2.24c1.73,1.49,2.6,3.68,2.6,6.56v5.4c0,0.64,0.12,1.09,0.36,1.34
			c0.24,0.25,0.67,0.41,1.28,0.46v5.4c-0.61,0.13-1.18,0.22-1.7,0.26c-0.52,0.04-0.98,0.06-1.38,0.06
			c-1.17-0.03-2.07-0.27-2.68-0.72s-1-1.11-1.16-1.96l-0.12-0.96c-0.93,1.2-2.05,2.12-3.34,2.76
			C151.09,269.11,149.72,269.43,148.28,269.43z M150.16,264.83c0.69,0,1.37-0.12,2.02-0.36c0.65-0.24,1.19-0.56,1.62-0.96
			c0.61-0.48,0.92-0.99,0.92-1.52v-2c-0.56-0.21-1.17-0.38-1.82-0.5c-0.65-0.12-1.26-0.18-1.82-0.18c-1.17,0-2.14,0.27-2.9,0.8
			s-1.14,1.23-1.14,2.08c0,0.77,0.29,1.41,0.88,1.9C148.51,264.59,149.25,264.83,150.16,264.83z"/>
		<path class="st1" d="M174,258.51c0-1.44,0.25-2.82,0.76-4.14c0.51-1.32,1.24-2.48,2.2-3.48c0.96-1,2.14-1.79,3.54-2.38
			c1.4-0.59,2.99-0.88,4.78-0.88c2.43,0,4.46,0.51,6.12,1.54c1.65,1.03,2.89,2.37,3.72,4.02l-6.24,1.88c-0.83-1.33-2.04-2-3.64-2
			c-1.33,0-2.45,0.49-3.34,1.48c-0.89,0.99-1.34,2.31-1.34,3.96c0,0.83,0.12,1.58,0.36,2.26c0.24,0.68,0.57,1.26,1,1.74
			c0.43,0.48,0.93,0.85,1.5,1.12c0.57,0.27,1.18,0.4,1.82,0.4c0.8,0,1.53-0.19,2.2-0.58c0.67-0.39,1.16-0.89,1.48-1.5l6.24,1.92
			c-0.77,1.63-2.01,2.96-3.7,4s-3.75,1.56-6.18,1.56c-1.76,0-3.34-0.3-4.74-0.9s-2.59-1.4-3.56-2.4c-0.97-1-1.71-2.16-2.22-3.48
			C174.25,261.33,174,259.95,174,258.51z"/>
		<path class="st1" d="M218.28,269.03h-6.4v-11.8c0-1.36-0.27-2.36-0.82-3c-0.55-0.64-1.29-0.96-2.22-0.96
			c-0.37,0-0.78,0.09-1.22,0.26c-0.44,0.17-0.87,0.43-1.28,0.76c-0.41,0.33-0.79,0.73-1.14,1.18c-0.35,0.45-0.62,0.96-0.8,1.52
			v12.04H198v-29.2h6.4v11.72c0.77-1.25,1.79-2.22,3.06-2.9c1.27-0.68,2.67-1.02,4.22-1.02c1.41,0,2.55,0.25,3.42,0.74
			c0.87,0.49,1.53,1.12,2,1.88c0.47,0.76,0.78,1.61,0.94,2.56s0.24,1.87,0.24,2.78V269.03z"/>
		<path class="st1" d="M228.44,269.43c-1.04,0-2.01-0.17-2.9-0.5c-0.89-0.33-1.66-0.8-2.3-1.4c-0.64-0.6-1.15-1.31-1.52-2.12
			s-0.56-1.7-0.56-2.66c0-1.04,0.22-1.99,0.66-2.84c0.44-0.85,1.06-1.59,1.86-2.2c0.8-0.61,1.75-1.09,2.84-1.44
			c1.09-0.35,2.3-0.52,3.64-0.52c0.88,0,1.73,0.07,2.56,0.22s1.55,0.37,2.16,0.66v-0.96c0-2.43-1.4-3.64-4.2-3.64
			c-1.15,0-2.24,0.19-3.28,0.58c-1.04,0.39-2.13,0.97-3.28,1.74l-1.88-4c1.39-0.91,2.83-1.59,4.32-2.04s3.08-0.68,4.76-0.68
			c3.17,0,5.63,0.75,7.36,2.24c1.73,1.49,2.6,3.68,2.6,6.56v5.4c0,0.64,0.12,1.09,0.36,1.34c0.24,0.25,0.67,0.41,1.28,0.46v5.4
			c-0.61,0.13-1.18,0.22-1.7,0.26s-0.98,0.06-1.38,0.06c-1.17-0.03-2.07-0.27-2.68-0.72s-1-1.11-1.16-1.96l-0.12-0.96
			c-0.93,1.2-2.05,2.12-3.34,2.76C231.25,269.11,229.88,269.43,228.44,269.43z M230.32,264.83c0.69,0,1.37-0.12,2.02-0.36
			c0.65-0.24,1.19-0.56,1.62-0.96c0.61-0.48,0.92-0.99,0.92-1.52v-2c-0.56-0.21-1.17-0.38-1.82-0.5s-1.26-0.18-1.82-0.18
			c-1.17,0-2.14,0.27-2.9,0.8c-0.76,0.53-1.14,1.23-1.14,2.08c0,0.77,0.29,1.41,0.88,1.9C228.67,264.59,229.41,264.83,230.32,264.83
			z"/>
		<path class="st1" d="M242.56,244.15l4.4-4.32h4.6l4.36,4.32l-3.28,1.44l-3.4-2.52l-3.4,2.52L242.56,244.15z M246.04,269.03v-21
			h6.4v21H246.04z"/>
		<path class="st1" d="M277.04,269.03h-6.4v-11.8c0-1.39-0.26-2.39-0.78-3.02c-0.52-0.63-1.21-0.94-2.06-0.94
			c-0.46,0-0.91,0.09-1.38,0.28c-0.47,0.19-0.91,0.45-1.32,0.78c-0.41,0.33-0.79,0.73-1.14,1.18c-0.35,0.45-0.62,0.95-0.8,1.48
			v12.04h-6.4v-21h5.76v3.52c0.77-1.25,1.87-2.22,3.28-2.9c1.41-0.68,3.04-1.02,4.88-1.02c1.36,0,2.46,0.25,3.3,0.74
			c0.84,0.49,1.49,1.13,1.94,1.92c0.45,0.79,0.75,1.65,0.9,2.58c0.15,0.93,0.22,1.84,0.22,2.72V269.03z"/>
		<path class="st1" d="M291.28,269.43c-1.76,0-3.34-0.29-4.74-0.86s-2.59-1.35-3.56-2.34c-0.97-0.99-1.71-2.13-2.22-3.42
			c-0.51-1.29-0.76-2.65-0.76-4.06c0-1.52,0.25-2.95,0.76-4.3c0.51-1.35,1.24-2.53,2.2-3.54c0.96-1.01,2.14-1.81,3.54-2.4
			c1.4-0.59,2.99-0.88,4.78-0.88s3.37,0.29,4.76,0.88c1.39,0.59,2.56,1.38,3.52,2.38c0.96,1,1.69,2.15,2.18,3.46
			c0.49,1.31,0.74,2.68,0.74,4.12c0,0.37-0.02,0.74-0.04,1.1c-0.03,0.36-0.07,0.67-0.12,0.94H286.8c0.11,1.41,0.62,2.49,1.54,3.22
			s1.97,1.1,3.14,1.1c0.93,0,1.83-0.23,2.7-0.68c0.87-0.45,1.45-1.07,1.74-1.84l5.44,1.52c-0.83,1.65-2.11,3-3.84,4.04
			C295.79,268.91,293.71,269.43,291.28,269.43z M295.72,256.55c-0.13-1.33-0.61-2.39-1.44-3.16s-1.85-1.16-3.08-1.16
			c-1.25,0-2.29,0.39-3.1,1.18c-0.81,0.79-1.29,1.83-1.42,3.14H295.72z"/>
	</g>
	<g>
		<g>
			<path class="st2" d="M184.73,376.59h-4.17v-42.82c0-0.73-0.59-1.32-1.31-1.32l-22.14,6.65c-1.01,0.25-1.31,1.2-1.31,1.93v12.71
				c0,0.73,0.59,1.32,1.31,1.32l3.96-1.19v22.72h-4.17c-0.73,0-1.31,0.59-1.31,1.32v13.31c0,0.73,0.59,1.32,1.31,1.32h27.85
				c0.73,0,1.31-0.59,1.31-1.32v-13.31C186.05,377.18,185.46,376.59,184.73,376.59z"/>
			<path class="st2" d="M326.88,392.68c5.15,0.51,10.66-1.06,15.48-2.7c11.36-3.87,22.13-10,31.7-17.19
				c4.18-3.13,8.26-6.5,11.67-10.47c2.53-2.94,5-6.41,5.19-10.43c0.21-4.44-6.68-4.42-6.89,0c0,0.04,0,0.07,0,0.1
				c-0.01,0.02-0.01,0.05-0.02,0.08c-0.07,0.34-0.18,0.67-0.29,1c-0.01,0.03-0.02,0.06-0.03,0.09c-0.05,0.11-0.1,0.21-0.15,0.32
				c-0.22,0.44-0.47,0.87-0.72,1.3c-0.24,0.39-0.5,0.78-0.77,1.15c-0.14,0.2-0.28,0.39-0.43,0.59c-0.02,0.03-0.05,0.06-0.09,0.11
				c-0.75,0.94-1.55,1.83-2.38,2.69c-4.05,4.24-8.15,7.36-12.81,10.56c-5.33,3.66-10.96,6.91-16.79,9.72
				c-4.98,2.39-10.23,4.47-15.97,5.67c-0.59,0.12-1.18,0.23-1.77,0.32c-0.06,0.01-0.28,0.04-0.43,0.06
				c-0.21,0.02-0.42,0.05-0.63,0.07c-1.19,0.12-2.38,0.15-3.57,0.08c-0.08,0-0.41-0.04-0.55-0.06c-0.17-0.03-0.34-0.07-0.51-0.1
				c-0.45-0.09-0.88-0.23-1.31-0.38c0.43,0.14-0.68-0.34-0.9-0.47c-0.09-0.05-0.18-0.11-0.26-0.17c0.07,0.04-0.41-0.32-0.53-0.43
				c-0.14-0.13-0.65-0.72-0.73-0.78c-0.15-0.21-0.29-0.43-0.42-0.66c4.81-3.37,9.28-7.29,13.33-11.5c4.69-4.87,9.03-10.35,12.1-16.4
				c2.99-5.9,5.25-14.04,0.38-19.6c-5.03-5.74-13.35-1.62-17.96,2.26c-4.62,3.89-7.93,9.17-10.43,14.6
				c-2.41,5.24-4.27,10.77-5.2,16.47c-0.59,3.61-0.94,7.53-0.35,11.23c-2.06,1.22-4.18,2.34-6.37,3.31c-2.48,1.1-5.7,2.06-8.64,2.52
				c0.18-0.03-0.69,0.07-0.69,0.07c-0.35,0.03-0.71,0.05-1.06,0.07c-0.67,0.04-1.35,0.03-2.02,0.01c-0.19-0.01-0.38-0.02-0.57-0.04
				c0.19,0.01-0.41-0.06-0.52-0.08c-0.52-0.1-1.03-0.25-1.54-0.42c0.32,0.1-0.73-0.36-0.94-0.48c-0.1-0.06-0.19-0.12-0.29-0.18
				c-0.09-0.07-0.26-0.19-0.33-0.25c-0.29-0.25-0.55-0.54-0.81-0.83c-0.07-0.08-0.14-0.17-0.17-0.22c-0.17-0.24-0.32-0.5-0.46-0.75
				c5.38-3.67,10.33-7.97,14.69-12.8c5.36-5.95,10.2-12.88,13.16-20.35c2.42-6.09,1.73-13.88-5.07-16.52
				c-3.05-1.18-6.49-0.22-9.33,1.01c-3.86,1.67-7.12,4.89-9.75,8.08c-3.43,4.16-5.81,9.04-7.8,14.01
				c-2.14,5.34-3.57,10.97-4.07,16.7c-0.19,2.2-0.2,4.55,0.12,6.84c-2.59,1.53-5.27,2.91-8.03,4.12c-0.17,0.07-0.9,0.37-1.12,0.46
				c-0.35,0.14-0.7,0.27-1.05,0.4c-0.31,0.11-0.62,0.22-0.94,0.32c-0.66,0.2-1.32,0.37-1.98,0.53c-0.31,0.07-0.62,0.13-0.94,0.19
				c-0.06,0.01-0.42,0.07-0.56,0.09c-1.05,0.12-2.11,0.13-3.16,0.04c-0.03,0-0.05-0.01-0.09-0.02c-0.23-0.04-0.45-0.09-0.68-0.15
				c-0.3-0.07-0.59-0.17-0.89-0.27c0.09,0.02-0.68-0.33-0.87-0.44c-0.17-0.1-0.34-0.21-0.5-0.32c-0.03-0.03-0.07-0.06-0.12-0.11
				c-0.31-0.27-0.59-0.57-0.86-0.87c-0.02-0.02-0.04-0.05-0.06-0.07c-0.09-0.13-0.18-0.26-0.27-0.39c-0.23-0.36-0.44-0.73-0.63-1.11
				c-0.04-0.07-0.07-0.15-0.11-0.23c-0.05-0.13-0.2-0.47-0.24-0.58c-0.02-0.07-0.04-0.13-0.07-0.2c8.87-5.58,16.4-13.13,21.91-22.17
				c3.76-6.17,8.24-14.6,4.51-21.78c-3.37-6.49-11.66-4.99-16.71-1.71c-9.33,6.07-13.99,17-16.29,27.48
				c-0.96,4.37-1.76,9.76-1.26,14.81c-1.58,0.85-3.22,1.59-4.87,2.3c-1.72,0.75-2.1,3.24-1.24,4.71c1.03,1.76,2.99,1.99,4.71,1.24
				c1.04-0.46,2.07-0.94,3.09-1.44c0.82,1.83,1.96,3.5,3.5,4.89c4.54,4.13,10.95,3.88,16.49,2.23c3.99-1.24,7.87-3.09,11.54-5.22
				c0.15,0.25,0.31,0.49,0.47,0.73c3.24,4.68,8.62,6.11,14.07,5.65c6.42-0.54,12.52-3.04,18.09-6.21
				C318.55,390.12,322.25,392.21,326.88,392.68z M257.54,368.45c0.03-0.23,0.07-0.47,0.11-0.7c0.09-0.58,0.2-1.16,0.3-1.74
				c0.24-1.26,0.53-2.51,0.84-3.75c0.6-2.34,1.34-4.64,2.2-6.89c0.17-0.44,0.35-0.88,0.53-1.32c0.01-0.01,0.42-0.94,0.5-1.12
				c0.46-1,0.95-1.97,1.49-2.93c0.44-0.8,0.92-1.58,1.44-2.34c0.14-0.21,0.28-0.41,0.43-0.61c-0.03,0.05,0.55-0.69,0.53-0.66
				c0.5-0.61,1.03-1.19,1.57-1.77c2.38-2.55,5.18-4.7,8.29-5.34c0.03-0.01,0.05-0.01,0.07-0.02c0.05,0,0.13,0,0.25-0.01
				c0.29-0.02,0.58-0.01,0.87,0.01c0,0,0,0,0.01,0c0.04,0.01,0.09,0.02,0.17,0.04c0.15,0.03,0.29,0.08,0.43,0.12
				c-0.21-0.06,0.28,0.14,0.41,0.22c0.02,0.01,0.04,0.02,0.06,0.03c0.02,0.01,0.03,0.02,0.05,0.04c0.06,0.06,0.24,0.26,0.32,0.34
				c0.07,0.11,0.15,0.23,0.21,0.35c0.02,0.05,0.19,0.42,0.23,0.52c0.09,0.29,0.15,0.58,0.21,0.88c0.01,0.03,0.01,0.05,0.02,0.07
				c0,0.06,0,0.15,0.01,0.29c0.02,0.35,0.02,0.69,0.01,1.04c-0.03,1.47-0.52,3.09-1.15,4.78c-1.48,3.96-3.94,7.75-6.35,11.19
				c-2.23,3.18-4.84,6.08-7.65,8.74c-2.1,1.99-4.38,3.8-6.77,5.46c0.02-1.51,0.14-3.03,0.32-4.53
				C257.5,368.79,257.52,368.6,257.54,368.45z M259.31,383.18C259.27,383.13,259.26,383.11,259.31,383.18L259.31,383.18z
				 M288.17,372.07c0.02-0.24,0.05-0.48,0.08-0.72c0,0.07,0.11-0.81,0.13-0.91c0.43-2.76,1.13-5.48,1.97-8.15
				c1.57-5,3.41-9.22,6.47-13.83c0.29-0.44,0.6-0.88,0.92-1.31c0.03-0.04,0.06-0.08,0.08-0.11c0.3-0.38,0.62-0.75,0.93-1.12
				c1.38-1.63,2.93-3.18,4.68-4.41c1.33-0.94,2.54-1.56,3.79-1.95c0.32-0.1,0.65-0.17,0.98-0.24c0.04-0.01,0.07-0.02,0.1-0.02
				c0.05,0,0.12-0.01,0.22-0.01c0.29-0.02,0.59-0.01,0.88,0c0.05,0,0.09,0,0.12,0c0.06,0.02,0.16,0.05,0.32,0.09
				c0.08,0.02,0.31,0.1,0.43,0.15c0.13,0.07,0.26,0.15,0.38,0.22c0.03,0.03,0.06,0.06,0.1,0.1c0.06,0.06,0.21,0.24,0.29,0.33
				c0.09,0.14,0.17,0.28,0.25,0.42c0.02,0.03,0.03,0.06,0.05,0.08c0.01,0.03,0.02,0.07,0.04,0.12c0.1,0.28,0.16,0.56,0.23,0.85
				c0.01,0.08,0.02,0.14,0.03,0.19c0.01,0.16,0.03,0.31,0.03,0.47c0.17,3.07-1.48,6.37-3.13,9.38
				c-5.11,9.35-12.24,17.26-20.56,23.43c0.01-0.39,0.02-0.78,0.03-1.18C288.06,373.31,288.11,372.69,288.17,372.07z M320.49,373.63
				c0.03-0.62,0.09-1.25,0.16-1.87c0.01-0.05,0.06-0.49,0.07-0.61c0.03-0.24,0.07-0.47,0.11-0.71c0.22-1.42,0.52-2.83,0.86-4.23
				c0.67-2.74,1.55-5.44,2.57-8.07c0.12-0.31,0.25-0.62,0.37-0.93c0.04-0.09,0.06-0.15,0.08-0.2c0.02-0.05,0.05-0.11,0.09-0.2
				c0.26-0.6,0.53-1.19,0.81-1.79c0.57-1.23,1.2-2.43,1.86-3.62c0.56-1.01,1.17-1.99,1.8-2.95c0.29-0.44,0.6-0.88,0.92-1.31
				c0.03-0.04,0.06-0.08,0.08-0.11c0.43-0.54,0.88-1.06,1.33-1.58c2.31-2.64,5.31-5.18,8.31-5.97c0.06-0.02,0.52-0.09,0.62-0.12
				c0.2-0.01,0.4-0.02,0.6-0.02c0.08,0,0.34,0.03,0.48,0.04c0.16,0.04,0.32,0.08,0.48,0.13c0.01,0,0.02,0.01,0.04,0.01
				c0.03,0.01,0.05,0.03,0.08,0.04c0.08,0.04,0.3,0.19,0.4,0.25c0.1,0.1,0.2,0.2,0.3,0.3c0.01,0.01,0.01,0.01,0.02,0.02
				c0.08,0.12,0.15,0.23,0.22,0.35c0.04,0.07,0.17,0.35,0.22,0.46c0.06,0.19,0.12,0.39,0.18,0.59c0.07,0.26,0.12,0.53,0.17,0.8
				c-0.09-0.47,0.02,0.5,0.02,0.56c0.08,1.72-0.21,2.92-0.74,4.7c-0.87,2.91-2.43,5.61-4.06,8.16c-3.69,5.8-8.45,10.92-13.64,15.58
				c-1.56,1.4-3.19,2.74-4.86,4.02C320.44,374.79,320.45,374.21,320.49,373.63z"/>
			<path class="st2" d="M170.81,330.53c5.39,0,9.76-4.37,9.76-9.76c0-5.39-4.37-9.76-9.76-9.76c-5.39,0-9.76,4.37-9.76,9.76
				C161.05,326.16,165.42,330.53,170.81,330.53z"/>
			<path class="st2" d="M147.82,332.45h-10.19c0-0.34,0-0.68,0-1.03v-13.21c0,0,0.33-3.71-3.62-2.33
				c-3.95,1.38-13.04,4.02-13.04,4.02s-2.11,0.3-2.11,3.04c0,2.31,0.03,3.65,0.07,9.5h-4.82c-0.73,0-1.31,0.59-1.31,1.32v13.31
				c0,0.73,0.59,1.32,1.31,1.32h4.88c0.01,7.08,0.02,16.45,0.02,29c0,0-1.19,23.5,28.5,11.93c0,0,1.49-0.81,1.61-2.11v-12.89
				c0,0,0.02-1.97-1.83-1.09c0,0-9.66,4.41-9.66-1.91c0-5.06,0-5.31,0-22.95h10.19c0.73,0,1.31-0.59,1.31-1.32v-13.31
				C149.13,333.04,148.54,332.45,147.82,332.45z"/>
			<path class="st2" d="M220.96,332.45c-3.18,0-6.23,0.65-9.05,1.83v-0.56c0-0.73-0.59-1.32-1.31-1.32h-22.46
				c-0.73,0-1.31,0.59-1.31,1.32v13.31c0,0.73,0.59,1.32,1.31,1.32h4.27v51.69h-4.27c-0.73,0-1.31,0.59-1.31,1.32v13.31
				c0,0.73,0.59,1.32,1.31,1.32h27.94c0.73,0,1.31-0.59,1.31-1.32v-13.31c0-0.73-0.59-1.32-1.31-1.32h-4.17v-9.33
				c2.82,1.18,5.87,1.83,9.05,1.83c14.5,0,26.26-13.45,26.26-30.04S235.46,332.45,220.96,332.45z M221.26,376.96
				c-5.2-0.02-9.38-6.52-9.35-14.51c0.04-7.99,4.28-14.45,9.48-14.42c5.2,0.02,9.38,6.52,9.35,14.51
				C230.7,370.52,226.46,376.98,221.26,376.96z"/>
			<path class="st2" d="M326.27,408.92c-2.18,0-3.37,1.88-3.37,3.4c0,1.58,1.4,3.22,3.37,3.22c2.24,0,3.43-1.43,3.43-3.22
				C329.7,410.8,328.45,408.92,326.27,408.92z"/>
			<path class="st2" d="M339.46,411.45c-1.91-0.03-3.07-1.58-3.07-3.52c0-1.94,0.87-3.82,2.63-3.82c1.37,0,1.82,1.7,1.88,3.13h4.39
				v-6.74h-3.52l-0.51,1.43c-0.51-0.6-1.7-1.7-3.73-1.7c-3.82,0-7.34,2.36-7.34,7.64c0,5.31,3.82,7.97,8.2,7.97
				c3.22,0,5.91-1.52,7.31-3.04l-2.63-3.04C342.08,410.83,341.04,411.48,339.46,411.45z"/>
			<path class="st2" d="M354.49,400.14c-4.12,0-8.14,2.77-8.17,7.76c-0.06,5.28,4.06,7.91,8.32,7.91c4.54,0,8.2-2.83,8.14-7.79
				C362.7,403.04,359.21,400.2,354.49,400.14z M354.64,411.99c-1.25,0-2.21-1.61-2.21-4.06c0-2.18,0.89-3.91,2.06-3.91
				c1.4,0.03,2.18,1.76,2.18,4C356.67,410.26,355.92,411.99,354.64,411.99z"/>
			<path class="st2" d="M388.29,407.27c0-3.64-0.75-7.16-5.58-7.16c-2.06,0-3.46,1.1-4.38,2.15c-0.48-0.72-1.43-2.15-4.45-2.15
				c-1.88,0-3.25,1.61-3.73,2.18l-0.66-1.76h-5.64v3.94h1.25v7.04h-1.25v3.91h8.86v-3.91h-1.79v-5.31c0-1.22,0.39-1.79,1.34-1.79
				c1.19,0,1.25,0.98,1.25,3.4v7.61h7.73v-4h-1.79v-4.83c0-1.28,0.3-2.18,1.58-2.18c1.4,0,1.13,2.27,1.13,3.7v7.31h7.58v-4.03h-1.46
				V407.27z"/>
		</g>
		<g>
			<path class="st2" d="M50.02,377.66c-0.88,0-1.79-0.07-2.74-0.2c-0.95-0.13-1.89-0.31-2.82-0.54c-0.93-0.23-1.83-0.51-2.68-0.84
				s-1.6-0.7-2.24-1.1l2.52-4.32c1.39,0.8,2.73,1.41,4.04,1.84s2.56,0.64,3.76,0.64c0.93,0,1.65-0.15,2.14-0.44
				c0.49-0.29,0.74-0.72,0.74-1.28c0-0.56-0.33-0.99-1-1.3s-1.81-0.67-3.44-1.1c-1.41-0.37-2.61-0.75-3.6-1.12
				c-0.99-0.37-1.78-0.79-2.38-1.26c-0.6-0.47-1.03-0.99-1.3-1.58c-0.27-0.59-0.4-1.28-0.4-2.08c0-1.07,0.22-2.04,0.66-2.92
				c0.44-0.88,1.05-1.63,1.82-2.24c0.77-0.61,1.69-1.09,2.74-1.44c1.05-0.35,2.21-0.52,3.46-0.52c1.47,0,2.97,0.22,4.5,0.66
				c1.53,0.44,3.03,1.05,4.5,1.82l-2.52,4.04c-1.31-0.72-2.47-1.25-3.5-1.58c-1.03-0.33-2.02-0.5-2.98-0.5
				c-0.8,0-1.46,0.14-1.98,0.42c-0.52,0.28-0.78,0.73-0.78,1.34c0,0.29,0.07,0.54,0.2,0.74s0.35,0.39,0.66,0.56
				c0.31,0.17,0.71,0.33,1.22,0.48s1.13,0.31,1.88,0.5c1.55,0.4,2.85,0.8,3.92,1.2c1.07,0.4,1.93,0.85,2.6,1.34
				c0.67,0.49,1.15,1.06,1.44,1.7c0.29,0.64,0.44,1.4,0.44,2.28c0,1.04-0.21,1.98-0.62,2.82s-1.01,1.55-1.78,2.14
				c-0.77,0.59-1.71,1.04-2.8,1.36S51.38,377.66,50.02,377.66z"/>
			<path class="st2" d="M68.3,377.66c-2.13,0-3.76-0.67-4.88-2.02c-1.12-1.35-1.68-3.33-1.68-5.94v-13.44h6.4v12.04
				c0,1.28,0.25,2.26,0.76,2.94c0.51,0.68,1.23,1.02,2.16,1.02c0.85,0,1.68-0.23,2.48-0.68s1.51-1.24,2.12-2.36v-12.96h6.4v13.8
				c0,0.64,0.12,1.09,0.36,1.34c0.24,0.25,0.67,0.41,1.28,0.46v5.4c-0.67,0.13-1.25,0.22-1.74,0.26s-0.93,0.06-1.3,0.06
				c-2.24-0.03-3.53-0.92-3.88-2.68l-0.12-1.28c-0.96,1.39-2.15,2.41-3.58,3.06S70.06,377.66,68.3,377.66z"/>
			<path class="st2" d="M100.54,361.73c-1.55,0.03-2.94,0.28-4.18,0.76c-1.24,0.48-2.15,1.2-2.74,2.16v12.6h-6.4v-21h5.88v4.24
				c0.75-1.41,1.69-2.51,2.82-3.3c1.13-0.79,2.34-1.21,3.62-1.26c0.53,0,0.87,0.01,1,0.04V361.73z"/>
		</g>
	</g>
	<g id="Calque_5_8_">
		<g>
			<path class="st2" d="M300.91,107.2l-151.42,29.54c-8.94,1.74-17.59-4.09-19.35-13.03l-14.52-74.54
				c-1.74-8.94,4.09-17.59,13.03-19.35L280.07,0.31c8.94-1.74,17.59,4.09,19.35,13.03l14.55,74.54
				C315.68,96.79,309.85,105.44,300.91,107.2z"/>
			<g>
				<path class="st0" d="M147.41,61.59l-1.52-7.79l14.62-8.03l2.5,12.79l8.06-1.57l2.16,11.02l-8.06,1.57l2.94,15.09
					c0.56,2.89,0.73,6.88,4.04,6.25c1.1-0.22,3.58-1.49,5.07-2.47l2.11,10.85c-2.35,1.52-7.99,3.23-9.94,3.6
					c-12.71,2.47-14.5-4.38-16.85-15.19l-2.94-15.09l-4.58,0.88l-2.16-11.02L147.41,61.59z"/>
				<path class="st0" d="M186.36,97.99l-2.16-11.1l3.55-0.69l-3.94-20.26l-3.55,0.69l-2.16-11.02l19.64-3.85l6.1,31.25l4.07-0.78
					l2.16,11.1L186.36,97.99z M185.52,32.37c5.85-1.15,10.24,2.94,11,6.83c0.91,4.65-1.64,9.21-7.64,10.36
					c-5.34,1.03-10.02-2.69-10.83-6.76C177.29,38.89,179.59,33.52,185.52,32.37z"/>
				<path class="st0" d="M217.29,98.36l-7.27-37.28l-3.55,0.69l-2.2-11.27l19.4-3.77l2.01,2.67c1.37-1.49,4.46-4.65,9.55-5.63
					c13.23-2.57,21.97,6.27,24.32,18.3c2.62,13.47-4.14,23.42-15.06,25.55c-7.03,1.37-10.97-0.76-11.66-1.15l1.67,8.55l4.58-0.88
					l2.16,11.1l-25.33,4.95l-2.16-11.1L217.29,98.36z M233.21,56.57c-3.31,0.64-5.54,5.39-3.89,12.03c1.13,5.76,4.87,9.6,8.08,8.96
					c3.55-0.69,5.22-5.32,3.94-11.76C240.36,60.71,236.96,55.83,233.21,56.57z"/>
				<path class="st0" d="M273.06,62.77c6.03-1.18,10.9,2.18,11.83,7.01c0.93,4.75-2.2,9.48-8.38,10.7
					c-5.51,1.08-10.51-2.45-11.37-6.83C264.34,69.4,266.97,63.97,273.06,62.77z M255.65,22.99l20.26-3.94l3.14,16.09l-0.32,22.22
					l-11.19,2.18l-8.74-20.45L255.65,22.99z"/>
			</g>
			<g>
				<path id="path4109_13_" class="st0" d="M259.81,91.25c0.29,0.98,0.61,1.96,0.91,2.94l0.12,0.42l-0.42,0.15
					c-0.96,0.34-1.94,0.66-2.91,1c3.14,9.92,6.37,19.84,9.55,29.74l0.15,0.42l-0.42,0.15c-0.81,0.27-1.64,0.54-2.47,0.83l-0.44,0.15
					l-0.15-0.44c-0.29-0.98-0.61-1.94-0.96-2.89c-3.38,1.05-6.74,2.13-10.09,3.26c1.08,3.36,2.16,6.71,3.23,10.04
					c0.98-0.29,1.98-0.56,2.94-0.96l0.54-0.22l0.1,0.56c0.17,1,0.59,1.96,0.91,2.94c0.96-0.24,1.89-0.54,2.82-0.83l0.39-0.12
					l0.17,0.39c0.83,2.03,1.42,4.12,2.13,6.2c0.98-0.27,1.96-0.56,2.94-0.88l0.42-0.12l0.15,0.42c0.69,2.08,1.35,4.14,2.06,6.22
					c0.98-0.29,1.98-0.56,2.94-0.93l0.49-0.2l0.12,0.51c0.51,2.13,1.32,4.19,1.98,6.27c0.96-0.29,1.91-0.59,2.87-0.88l0.42-0.15
					l0.15,0.42c1.08,3.18,2.08,6.42,3.16,9.6c5.56-1.71,11.12-3.48,16.66-5.27c5.66-1.84,11.37-3.6,16.97-5.58
					c-1.13-3.16-1.86-6.47-3.01-9.63l-0.17-0.47l0.47-0.15c0.96-0.27,1.91-0.61,2.84-0.93c-0.98-3.18-2.01-6.39-3.04-9.58
					l-0.12-0.39l0.37-0.17c0.93-0.39,1.91-0.73,2.89-1.03c-1.13-3.58-2.33-7.1-3.38-10.7l0,0l0,0c-1.49-4.24-2.79-8.55-4.21-12.83
					c-0.96,0.32-1.91,0.61-2.87,0.91l-0.42,0.12l-0.15-0.42c-0.32-0.93-0.64-1.89-0.93-2.84c-1,0.29-1.96,0.64-2.96,0.88l-0.39,0.1
					l-0.15-0.37c-0.39-0.96-0.66-1.96-1-2.96c-2.08,0.66-4.16,1.35-6.27,1.98l-0.42,0.12l-0.15-0.42c-0.32-0.93-0.64-1.89-0.93-2.84
					c-3.26,0.86-6.44,2.01-9.65,3.01l-0.42,0.12l-0.15-0.39c-0.37-0.96-0.69-1.94-1-2.91c-2.08,0.66-4.16,1.35-6.27,1.98l-0.42,0.12
					l-0.15-0.42c-1.42-4.31-2.79-8.62-4.19-12.93c-0.56,0.17-1.13,0.34-1.67,0.51c-0.42,0.12-0.83,0.27-1.25,0.42l-0.44,0.15
					l-0.15-0.44c-0.29-1-0.61-1.98-1.03-2.94C264.22,89.86,262.02,90.57,259.81,91.25L259.81,91.25z"/>
				<path id="path3016_13_" class="st3" d="M259.81,91.25c2.2-0.69,4.41-1.42,6.61-2.13c0.47,1.08,0.81,2.18,1.15,3.31
					c-2.23,0.73-4.48,1.45-6.71,2.18C260.5,93.51,260.16,92.38,259.81,91.25z"/>
				<path id="path3018_13_" class="st3" d="M257.53,95.76c1.1-0.37,2.23-0.71,3.33-1.13c3.97,12.32,7.96,24.67,11.9,36.99
					c-1.13,0.39-2.23,0.76-3.38,1.08c-0.37-1.1-0.73-2.2-1.08-3.31c-1.13,0.32-2.25,0.69-3.36,1.05c-0.39-1.13-0.78-2.25-1.1-3.38
					c1.1-0.39,2.23-0.73,3.33-1.13C263.98,115.87,260.72,105.83,257.53,95.76L257.53,95.76z"/>
				<path id="path3020_13_" class="st3" d="M267.6,92.5c1.1-0.37,2.23-0.73,3.33-1.08c1.45,4.46,2.87,8.92,4.34,13.37
					c2.25-0.66,4.46-1.4,6.69-2.11c0.37,1.1,0.71,2.23,1.13,3.31c3.36-1.03,6.69-2.23,10.09-3.14c0.34,1.1,0.69,2.18,1.08,3.26
					c2.25-0.69,4.46-1.42,6.71-2.13c0.37,1.1,0.66,2.25,1.15,3.33c1.15-0.27,2.23-0.69,3.36-1c0.34,1.1,0.69,2.18,1.08,3.26
					c1.1-0.34,2.2-0.69,3.31-1.05c1.42,4.26,2.72,8.6,4.21,12.83c1.03,3.6,2.25,7.15,3.38,10.73c-1.1,0.34-2.2,0.71-3.26,1.2
					c1.05,3.31,2.13,6.64,3.16,9.97c-1.1,0.39-2.18,0.78-3.31,1.08c-1.2-3.33-2.23-6.74-3.28-10.12c1.1-0.34,2.23-0.71,3.33-1.08
					c-2.52-7.84-5.05-15.68-7.54-23.51c-1.1,0.34-2.23,0.71-3.33,1.08c-0.42-1.08-0.69-2.18-1.13-3.26
					c-1.18,0.15-2.25,0.64-3.36,0.98c1.05,3.38,2.2,6.71,3.21,10.09c-1.1,0.37-2.2,0.71-3.28,1.05c-1.52-4.46-2.89-8.96-4.36-13.45
					c-2.25,0.71-4.51,1.45-6.74,2.18c1.08,3.36,2.2,6.71,3.23,10.09c-1.1,0.39-2.23,0.73-3.33,1.08c-1.47-4.48-2.91-8.96-4.31-13.45
					c-2.25,0.71-4.51,1.45-6.74,2.18c1.42,4.48,2.89,8.94,4.31,13.42c-1.13,0.39-2.25,0.76-3.38,1.08
					C274.07,112.66,270.84,102.59,267.6,92.5L267.6,92.5z"/>
				<path id="path3026_13_" class="st3" d="M252.71,126.97c3.36-1.13,6.71-2.2,10.09-3.26c0.39,1.1,0.76,2.2,1.08,3.33
					c-2.2,0.76-4.46,1.45-6.69,2.18c0.64,2.25,1.54,4.41,2.11,6.69c-1.08,0.49-2.23,0.76-3.38,1.1
					C254.84,133.68,253.79,130.32,252.71,126.97z"/>
				<path id="path3030_13_" class="st3" d="M259.42,135.96c1.03-0.51,2.16-0.81,3.23-1.13c0.39,1.1,0.76,2.23,1.1,3.36
					c1.13-0.34,2.25-0.71,3.38-1.05c0.73,2.23,1.45,4.48,2.18,6.71c1.1-0.37,2.23-0.71,3.33-1.05c0.71,2.25,1.59,4.46,2.08,6.76
					c-1.05,0.44-2.18,0.73-3.28,1.05c-0.76-2.2-1.45-4.43-2.18-6.64c-1.1,0.34-2.23,0.69-3.36,1c-0.76-2.2-1.35-4.43-2.25-6.59
					c-1.08,0.34-2.16,0.69-3.23,0.96C260.03,138.23,259.52,137.13,259.42,135.96L259.42,135.96z"/>
				<path id="path3038_13_" class="st3" d="M274.88,149.5c1.08-0.44,2.18-0.73,3.28-1.1c0.76,2.23,1.45,4.46,2.16,6.69
					c1.13-0.37,2.23-0.73,3.38-1.05c0.73,2.23,1.42,4.48,2.18,6.69c8.94-2.87,17.91-5.73,26.85-8.62c-0.69-2.25-1.45-4.46-2.13-6.71
					c1.15-0.39,2.28-0.76,3.45-1.08c1.25,3.28,2.01,6.74,3.18,10.07c-5.63,1.96-11.32,3.75-16.97,5.56
					c-5.54,1.79-11.07,3.58-16.66,5.27c-1.13-3.33-2.18-6.69-3.31-10.02c-1.1,0.34-2.18,0.69-3.28,1
					C276.27,153.98,275.37,151.8,274.88,149.5L274.88,149.5z"/>
			</g>
		</g>
	</g>
</g>
</svg>
